<svg xmlns="http://www.w3.org/2000/svg" viewBox="0 0 502.15 568.98"><defs><style>.cls-1{isolation:isolate;}.cls-2{fill:#e4e4e4;}.cls-3{fill:#e79a4d;}.cls-4{fill:#231f20;}.cls-5,.cls-6{fill:#d17730;opacity:0.3;}.cls-5{mix-blend-mode:screen;}.cls-10,.cls-11,.cls-13,.cls-17,.cls-6,.cls-9{mix-blend-mode:multiply;}.cls-7{fill:#54372a;}.cls-8{fill:#ffdb00;}.cls-10,.cls-9{fill:#9973b4;}.cls-10,.cls-16{opacity:0.5;}.cls-11,.cls-15,.cls-16,.cls-18{fill:#f2623a;}.cls-12{fill:#f9d6ba;}.cls-13{fill:#86d5f8;}.cls-14,.cls-17{fill:#b48257;}.cls-15{opacity:0.25;}.cls-19{fill:#a68169;}.cls-20{font-size:60px;stroke:#144687;stroke-miterlimit:10;font-family:Hera Big;font-weight:700;}.cls-20,.cls-21{fill:#144687;}.cls-21{font-size:24px;font-family:Tribute;}</style></defs><title>404-med</title><g class="cls-1"><g id="text_images" data-name="text/images"><rect class="cls-2" width="502.15" height="100" rx="30.99" ry="30.99"/><rect class="cls-2" y="132" width="463.66" height="100" rx="30.08" ry="30.08"/><path class="cls-3" d="M1430.91,2534.12a55.18,55.18,0,0,0-8.39-29.32l-1.66-35.39c-6.84-58-55.77-87.47-89.77-87.47-34.26,0-82.93,29.5-89.77,87.47l-1.69,36a55.14,55.14,0,0,0-7.92,25.55,38.28,38.28,0,0,0,3.13,21.87,55.54,55.54,0,0,0,16.29,23.55c2.39,9.59,7.8,26.25,20.47,39.34,31.42,32.47,43.8,37.11,59.42,37.11h0.13c15.62,0,28-4.65,59.42-37.11,12.51-12.92,17.94-29.31,20.38-39a55.47,55.47,0,0,0,18-28,38.19,38.19,0,0,0,1.94-13.37C1430.89,2535,1430.91,2534.55,1430.91,2534.12Z" transform="translate(-1222.27 -2097)"/><path class="cls-4" d="M1343.7,2501.11l-1.56,6.91s31.59-15.14,44-11.74a65,65,0,0,1,16.34,7.55s-6.1-8-11.41-10.95C1374.27,2483.45,1343.7,2501.11,1343.7,2501.11Z" transform="translate(-1222.27 -2097)"/><path class="cls-4" d="M1318.29,2501.11l1.56,6.91s-31.59-16.67-44-13.27c-8.48,2.32-16.34,9.08-16.34,9.08s6.1-9.49,11.41-12.48C1287.72,2481.92,1318.29,2501.11,1318.29,2501.11Z" transform="translate(-1222.27 -2097)"/><circle class="cls-5" cx="56.36" cy="453.55" r="19.59"/><circle class="cls-5" cx="161.32" cy="453.55" r="19.59"/><polygon class="cls-6" points="123.36 475.43 94.1 475.43 103.9 417.43 113.55 417.43 123.36 475.43"/><circle class="cls-6" cx="94.1" cy="467.61" r="7.82"/><circle class="cls-6" cx="123.36" cy="467.61" r="7.82"/><circle class="cls-7" cx="75.11" cy="418.61" r="8.4"/><circle class="cls-7" cx="157.6" cy="418.61" r="8.4"/><circle class="cls-8" cx="19.05" cy="464.43" r="6.84"/><circle class="cls-8" cx="197.27" cy="464.43" r="6.84"/><polygon class="cls-9" points="118.49 496.37 108.79 498.85 99.09 496.37 73.82 505.55 108.79 507.77 143.76 505.55 118.49 496.37"/><path class="cls-10" d="M1331.06,2615.63c17.18,0,34.91-13.08,34.91-13.08l-34.94,2.22-34.94-2.22s17.44,13.08,34.91,13.08h0.07Z" transform="translate(-1222.27 -2097)"/><circle class="cls-11" cx="108.79" cy="392.82" r="3.6"/><circle class="cls-8" cx="87.39" cy="462.42" r="2.23"/><path class="cls-3" d="M1259.5,2507.2V2530h59.9l-1.53-22.8H1259.5Zm31.77,16.34c-15.56,0-21.46-7.94-21.46-7.94s20.39-14.57,42.08,0C1311.89,2515.61,1306.83,2523.55,1291.28,2523.55Z" transform="translate(-1222.27 -2097)"/><path class="cls-3" d="M1345.41,2507.2V2530h59.9v-22.8h-59.9Zm28.87,16.34c-15.56,0-21.46-7.94-21.46-7.94s20.39-14.57,42.08,0C1394.9,2515.61,1389.84,2523.55,1374.28,2523.55Z" transform="translate(-1222.27 -2097)"/><path class="cls-12" d="M1714.43,2540.28a52.33,52.33,0,0,0-11-32.22v-27l-0.16-.15a103,103,0,0,0-102.93-101.56h-0.06a103,103,0,0,0-103,101.68l0,0V2506a52.52,52.52,0,0,0,1.64,70.44c2.27,10.66,3.06,24,13.48,37.33,19.93,25.43,65.29,52.23,65.29,52.23H1623s45.36-26.8,65.29-52.23c11.23-14.33,11.95-28.78,14-39.79A52.36,52.36,0,0,0,1714.43,2540.28Z" transform="translate(-1222.27 -2097)"/><circle class="cls-13" cx="334.84" cy="423.62" r="8.61"/><circle class="cls-13" cx="421.18" cy="423.62" r="8.61"/><polygon class="cls-14" points="359.07 385.05 359.07 394.33 318.86 401.97 302.37 415.01 315.77 392.69 359.07 385.05"/><polygon class="cls-14" points="396.95 385.05 396.95 394.33 437.16 401.97 453.65 415.01 440.25 392.69 396.95 385.05"/><path class="cls-14" d="M1497.19,2554.77h9.28V2483.5s48.58-71.93,48.58-97.82h-14.17c-18.43,0-43.69,25.25-43.69,43.69v125.4Z" transform="translate(-1222.27 -2097)"/><path class="cls-14" d="M1703.77,2554.77h-9.28V2483.5s-48.58-71.93-48.58-97.82h14.17c18.43,0,43.69,25.25,43.69,43.69v125.4Z" transform="translate(-1222.27 -2097)"/><path class="cls-14" d="M1660.34,2385.68s-14.83-19.71-51.81-19.71c-37.63,0-38.92,16.49-77.71,6.19,0,0,13.67,65.68,66.82,65.68S1660.34,2385.68,1660.34,2385.68Z" transform="translate(-1222.27 -2097)"/><circle class="cls-15" cx="324.97" cy="464.74" r="20.17"/><circle class="cls-15" cx="429.79" cy="464.74" r="20.17"/><path class="cls-15" d="M1600.29,2553.94a20.17,20.17,0,0,0-20.17,20.17h40.35A20.17,20.17,0,0,0,1600.29,2553.94Z" transform="translate(-1222.27 -2097)"/><polygon class="cls-16" points="378.01 506.09 378.01 506.09 336.96 512.2 362.13 518.46 393.89 518.46 419.07 512.2 378.01 506.09"/><polygon class="cls-17" points="368.31 518.46 378.01 526.37 387.71 518.46 368.31 518.46"/><polygon class="cls-18" points="388.71 500.42 377.91 501.99 367.32 500.42 336.96 512.2 378.01 508.73 419.07 512.2 388.71 500.42"/><rect class="cls-15" x="368.67" y="418.55" width="18.68" height="49.91"/><polygon class="cls-12" points="345.14 428.19 324.96 428.19 335.05 437.81 345.14 428.19"/><polygon class="cls-12" points="431.27 428.19 411.1 428.19 421.18 437.81 431.27 428.19"/><circle class="cls-19" cx="317.56" cy="433.35" r="2.23"/><text class="cls-20" transform="translate(129.56 72.27)">OOPS!</text><text class="cls-21" transform="translate(43.43 172)">That page doesn’t exist. Because Micah <tspan x="85.68" y="30">didn’t build it. Sorry!</tspan></text><path class="cls-2" d="M1709.08,2181.94s32,61.58,0,182.06c0,0,14.25-117.6-22.15-169.38Z" transform="translate(-1222.27 -2097)"/><path class="cls-2" d="M1231.37,2313.44s-14.95,35.56,2.34,63c0,0-1.19-34.59,17.26-50Z" transform="translate(-1222.27 -2097)"/></g></g></svg>