<svg xmlns="http://www.w3.org/2000/svg" viewBox="0 0 330.46 470.43"><defs><style>.cls-1{isolation:isolate;}.cls-2{fill:#e4e4e4;}.cls-3{fill:#e79a4d;}.cls-4{fill:#231f20;}.cls-5,.cls-6{fill:#d17730;opacity:0.3;}.cls-5{mix-blend-mode:screen;}.cls-10,.cls-11,.cls-13,.cls-17,.cls-6,.cls-9{mix-blend-mode:multiply;}.cls-7{fill:#54372a;}.cls-8{fill:#ffdb00;}.cls-10,.cls-9{fill:#9973b4;}.cls-10,.cls-16{opacity:0.5;}.cls-11,.cls-15,.cls-16,.cls-18{fill:#f2623a;}.cls-12{fill:#f9d6ba;}.cls-13{fill:#86d5f8;}.cls-14,.cls-17{fill:#b48257;}.cls-15{opacity:0.25;}.cls-19{fill:#a68169;}.cls-20{font-size:60px;stroke:#144687;stroke-miterlimit:10;font-family:Hera Big;font-weight:700;}.cls-20,.cls-21{fill:#144687;}.cls-21{font-size:24px;font-family:Tribute;}</style></defs><title>404</title><g class="cls-1"><g id="text_images" data-name="text/images"><rect class="cls-2" width="330.46" height="100" rx="30.99" ry="30.99"/><rect class="cls-2" y="112" width="294.06" height="130" rx="30.08" ry="30.08"/><path class="cls-3" d="M165.64,2481.08a36.14,36.14,0,0,0-5.49-19.2l-1.09-23.17c-4.48-38-36.52-57.28-58.78-57.28-22.44,0-54.3,19.32-58.78,57.28l-1.1,23.55A36.11,36.11,0,0,0,35.2,2479a25.07,25.07,0,0,0,2.05,14.32,36.37,36.37,0,0,0,10.67,15.42c1.57,6.28,5.11,17.19,13.41,25.76,20.57,21.26,28.68,24.3,38.91,24.3h0.08c10.23,0,18.33-3,38.91-24.3,8.19-8.46,11.74-19.2,13.34-25.51a36.33,36.33,0,0,0,11.78-18.31,25,25,0,0,0,1.27-8.76C165.63,2481.64,165.64,2481.36,165.64,2481.08Z" transform="translate(-24.92 -2097)"/><path class="cls-4" d="M108.53,2459.47l-1,4.53s20.68-9.91,28.82-7.69a42.57,42.57,0,0,1,10.7,4.94s-4-5.21-7.47-7.17C128.55,2447.9,108.53,2459.47,108.53,2459.47Z" transform="translate(-24.92 -2097)"/><path class="cls-4" d="M91.89,2459.47l1,4.53s-20.68-10.91-28.82-8.69c-5.55,1.52-10.7,5.94-10.7,5.94s4-6.21,7.47-8.17C71.87,2446.9,91.89,2459.47,91.89,2459.47Z" transform="translate(-24.92 -2097)"/><circle class="cls-5" cx="41" cy="394.84" r="12.83"/><circle class="cls-5" cx="109.73" cy="394.84" r="12.83"/><polygon class="cls-6" points="84.88 409.17 65.71 409.17 72.14 371.19 78.45 371.19 84.88 409.17"/><circle class="cls-6" cx="65.71" cy="404.05" r="5.12"/><circle class="cls-6" cx="84.87" cy="404.05" r="5.12"/><circle class="cls-7" cx="53.28" cy="371.96" r="5.5"/><circle class="cls-7" cx="107.3" cy="371.96" r="5.5"/><circle class="cls-8" cx="16.57" cy="401.97" r="4.48"/><circle class="cls-8" cx="133.28" cy="401.97" r="4.48"/><polygon class="cls-9" points="81.69 422.88 75.34 424.51 68.98 422.88 52.43 428.89 75.34 430.35 98.24 428.89 81.69 422.88"/><path class="cls-10" d="M100.26,2534.46c11.25,0,22.86-8.56,22.86-8.56l-22.88,1.45-22.88-1.45s11.42,8.56,22.86,8.56h0Z" transform="translate(-24.92 -2097)"/><circle class="cls-11" cx="75.34" cy="355.08" r="2.36"/><circle class="cls-8" cx="61.32" cy="400.65" r="1.46"/><path class="cls-3" d="M53.39,2463.46v14.93H92.62l-1-14.93H53.39Zm20.81,10.7c-10.19,0-14.05-5.2-14.05-5.2s13.35-9.54,27.55,0C87.7,2469,84.39,2474.16,74.2,2474.16Z" transform="translate(-24.92 -2097)"/><path class="cls-3" d="M109.65,2463.46v14.93h39.22v-14.93H109.65Zm18.9,10.7c-10.19,0-14.05-5.2-14.05-5.2s13.35-9.54,27.55,0C142.06,2469,138.74,2474.16,128.56,2474.16Z" transform="translate(-24.92 -2097)"/><path class="cls-12" d="M344.39,2485.12a34.27,34.27,0,0,0-7.23-21.1v-17.65l-0.1-.1a67.46,67.46,0,0,0-67.4-66.51h0a67.46,67.46,0,0,0-67.45,66.59l0,0v16.29a34.39,34.39,0,0,0,1.08,46.13c1.49,7,2,15.75,8.83,24.45,13.05,16.65,42.76,34.2,42.76,34.2h29.7s29.7-17.55,42.76-34.2c7.36-9.39,7.82-18.85,9.15-26.06A34.29,34.29,0,0,0,344.39,2485.12Z" transform="translate(-24.92 -2097)"/><circle class="cls-13" cx="216.46" cy="375.24" r="5.64"/><circle class="cls-13" cx="273" cy="375.24" r="5.64"/><polygon class="cls-14" points="232.32 349.99 232.32 356.06 206 361.06 195.19 369.61 203.97 354.99 232.32 349.99"/><polygon class="cls-14" points="257.13 349.99 257.13 356.06 283.46 361.06 294.26 369.61 285.49 354.99 257.13 349.99"/><path class="cls-14" d="M202.14,2494.6h6.08v-46.66s31.81-47.1,31.81-64.06h-9.28c-12.07,0-28.61,16.54-28.61,28.61v82.11Z" transform="translate(-24.92 -2097)"/><path class="cls-14" d="M337.41,2494.6h-6.08v-46.66s-31.81-47.1-31.81-64.06h9.28c12.07,0,28.61,16.54,28.61,28.61v82.11Z" transform="translate(-24.92 -2097)"/><path class="cls-14" d="M309,2383.88S299.27,2371,275,2371c-24.64,0-25.48,10.8-50.88,4.05,0,0,8.95,43,43.76,43S309,2383.88,309,2383.88Z" transform="translate(-24.92 -2097)"/><circle class="cls-15" cx="209.99" cy="402.17" r="13.21"/><circle class="cls-15" cx="278.63" cy="402.17" r="13.21"/><path class="cls-15" d="M269.65,2494.06a13.21,13.21,0,0,0-13.21,13.21h26.42A13.21,13.21,0,0,0,269.65,2494.06Z" transform="translate(-24.92 -2097)"/><polygon class="cls-16" points="244.73 429.25 244.73 429.25 217.84 433.25 234.33 437.35 255.13 437.35 271.61 433.25 244.73 429.25"/><polygon class="cls-17" points="238.38 437.35 244.73 442.52 251.08 437.35 238.38 437.35"/><polygon class="cls-18" points="251.73 425.53 244.66 426.56 237.72 425.53 217.84 433.25 244.73 430.97 271.61 433.25 251.73 425.53"/><rect class="cls-15" x="238.61" y="371.92" width="12.23" height="32.68"/><polygon class="cls-12" points="223.2 378.24 209.99 378.24 216.6 384.54 223.2 378.24"/><polygon class="cls-12" points="279.6 378.24 266.39 378.24 273 384.54 279.6 378.24"/><circle class="cls-19" cx="205.14" cy="381.62" r="1.46"/><text class="cls-20" transform="translate(43.71 72.27)">OOPS!</text><text class="cls-21" transform="translate(32.74 152)">That page doesn’t exist. <tspan x="9.95" y="30">Because Micah didn’t </tspan><tspan x="42.34" y="60">build it. Sorry!</tspan></text><path class="cls-2" d="M341.12,2181.94s32,60.9,0,180.06c0,0,14.25-116.3-22.15-167.52Z" transform="translate(-24.92 -2097)"/><path class="cls-2" d="M43.09,2313.44s-14.95,35.56,2.34,63c0,0-1.19-34.59,17.26-50Z" transform="translate(-24.92 -2097)"/></g></g></svg>