<?xml version="1.0" encoding="UTF-8" standalone="no"?>
<svg width="50px" height="58px" viewBox="0 0 50 58" version="1.1" xmlns="http://www.w3.org/2000/svg" xmlns:xlink="http://www.w3.org/1999/xlink" xmlns:sketch="http://www.bohemiancoding.com/sketch/ns">
    <!-- Generator: Sketch 3.4.2 (15857) - http://www.bohemiancoding.com/sketch -->
    <title>&amp;</title>
    <desc>Created with Sketch.</desc>
    <defs>
        <path id="path-1" d="M0,0.381436745 L49.6828571,0.381436745 L49.6828571,57.6923077 L0,57.6923077"></path>
    </defs>
    <g id="Home" stroke="none" stroke-width="1" fill="none" fill-rule="evenodd" sketch:type="MSPage">
        <g id="Form" sketch:type="MSArtboardGroup" transform="translate(-615.000000, -281.000000)">
            <g id="&amp;" sketch:type="MSLayerGroup" transform="translate(615.000000, 281.000000)">
                <mask id="mask-2" sketch:name="Clip 2" fill="white">
                    <use xlink:href="#path-1"></use>
                </mask>
                <g id="Clip-2"></g>
                <path d="M15.2792857,22.2622695 C13.1021429,22.2622695 10.8464286,23.5081373 8.90214286,26.7007629 C9.83547619,28.1025429 12.0135714,30.2047362 14.735,30.2047362 C18.0792857,30.2047362 19.012619,27.0903051 18.3902381,24.6758106 C18.0016667,22.9631596 16.6792857,22.2622695 15.2792857,22.2622695 M26.322619,57.6924984 C12.0911905,57.6924984 2.44785714,50.1390973 0.425952381,42.0407184 C-0.663095238,37.7581373 0.269761905,30.8279085 4.00261905,25.9221551 C2.60309524,23.8199619 1.82547619,21.2500318 1.6697619,20.6268595 C-0.818809524,10.9712651 5.1697619,0.381150668 14.1907143,0.381150668 C19.5564286,0.381150668 24.3007143,4.27466624 25.6230952,9.49224412 C25.8559524,10.4262873 27.1002381,15.487953 22.9007143,15.487953 C21.8897619,15.487953 20.1011905,15.0206929 19.4788095,12.8403051 C19.2454762,11.6721551 19.4011905,9.25861411 22.5116667,9.02450731 C21.1897619,4.43057851 17.6121429,2.56201526 14.735,2.56201526 C7.73595238,2.56201526 5.24738095,13.3075652 7.19166667,22.7290528 C9.6802381,20.8609663 12.4797619,20.0818818 14.735,20.0818818 C18.7792857,20.0818818 20.9569048,22.8854418 21.5007143,25.0653528 C22.3564286,28.4138907 19.9454762,32.385124 15.2016667,32.385124 C13.1021429,32.385124 10.2245238,31.6842339 7.5802381,29.737953 C6.33595238,34.2536872 6.25833333,40.0157661 7.03595238,43.2865861 C9.21357143,51.9299428 17.6902381,55.5116338 25.8559524,55.5116338 C47.7869048,55.5116338 47.4754762,38.0694851 46.0759524,32.618754 C45.142619,28.9588684 43.1207143,25.6103306 38.9211905,21.5613795 C33.1664286,25.4548951 30.2107143,27.4016529 31.2216667,31.5287985 C31.5330952,32.5410362 31.7664286,32.852384 32.155,33.3973617 C32.5440476,30.9833439 34.4883333,30.8279085 35.1883333,30.8279085 C36.8211905,30.8279085 38.2216667,31.9955817 38.6102381,33.4755563 C38.9211905,34.6432295 38.4545238,37.2126828 35.4992857,37.2126828 C32.3111905,37.2126828 29.1221429,34.8768595 28.2669048,31.4506039 C26.8669048,25.9221551 31.4554762,22.7290528 35.732619,19.9264463 C38.5321429,17.901494 42.6540476,15.0984107 44.0540476,8.40181182 C42.4983333,8.16818182 41.3321429,7.07774952 41.0211905,5.83235855 C40.5545238,3.88560076 41.7983333,2.01656071 43.9764286,2.01656071 C45.2983333,2.01656071 46.8540476,2.71745073 47.3202381,4.58649078 C47.7092857,5.91007629 47.7092857,13.9302606 41.0988095,19.770534 C44.6759524,23.4304196 47.7869048,27.3234584 49.1088095,32.385124 C50.8978571,39.6267006 49.8088095,57.6924984 26.322619,57.6924984" id="Fill-1" fill="#000000" sketch:type="MSShapeGroup" mask="url(#mask-2)"></path>
            </g>
        </g>
    </g>
</svg>