<?xml version="1.0" encoding="utf-8"?>
<!-- Generator: Adobe Illustrator 18.1.1, SVG Export Plug-In . SVG Version: 6.00 Build 0)  -->
<svg version="1.1" id="Layer_1" xmlns="http://www.w3.org/2000/svg" xmlns:xlink="http://www.w3.org/1999/xlink" x="0px" y="0px"
	 viewBox="0 0 210 200" enable-background="new 0 0 210 200" xml:space="preserve">
<g>
	<g>
		<polygon fill="#FBD0C6" points="22.3,27 24.5,39.8 15.9,46.7 35.6,82.7 52.5,46.7 45.8,39.8 46.9,26.2 		"/>
		<path fill="#1B468D" d="M44.1,120.8h16.7v-7.3h8.4l0.7-26.8c0.2-1.5,0.1-3.1-0.1-4.7l-4.3-23.4c-0.9-6.5-5.1-12.1-11.1-14.8
			l-8.7-4c0,0,1.5,20.5-10.6,20.5S24.5,39.8,24.5,39.8l-8.7,4c-6,2.7-10.1,8.3-11.1,14.8L0.5,82c-0.2,1.5-0.2,3.1-0.1,4.7l0.7,26.8
			h8.4v7.3h16.7"/>
		<path fill="#DC519D" d="M31.9,52.9c1.4,30-3.4,42.6-3.4,42.6c-5.3,21-19,25.3-19,25.3v-7.3H1.1L0.4,86.6c-0.2-1.5-0.1-3.1,0.1-4.7
			l4.3-23.4c0.9-6.5,5.1-12.1,11.1-14.8l8.7-4C24.5,39.8,24.5,46.6,31.9,52.9z"/>
		<path fill="#DC519D" d="M38.4,52.9c-0.5,26.9,4.1,42.4,4.1,42.4c5.1,20.2,18.3,25.6,18.3,25.6v-7.3h8.4l0.7-26.8
			c0.2-1.5,0.1-3.1-0.1-4.7l-4.3-23.4c-0.9-6.5-5.1-12.1-11.1-14.8l-8.7-4C45.8,39.8,45.8,47.5,38.4,52.9z"/>
		<circle fill="#F2B450" cx="46.6" cy="38.4" r="2.2"/>
		<path fill="#FCE0D9" d="M49.1,18.8c0-0.4,0-0.6,0-0.6l0,0C48.6,10.8,42.5,5,35,5c-7.8,0-14.1,6.3-14.1,14.1
			c0,0-0.1,18.7,14.1,18.7c10.4,0,13.1-10.4,13.8-16c0.2-0.9,0.3-1.8,0.3-2.7C49.1,19,49.1,18.9,49.1,18.8z"/>
		<circle fill="#F2B450" cx="25.4" cy="38.4" r="2.2"/>
		<circle fill="#F2B450" cx="28.2" cy="41.8" r="2.2"/>
		<circle fill="#F2B450" cx="31.5" cy="44.8" r="2.2"/>
		<circle fill="#F2B450" cx="35.8" cy="45.3" r="2.2"/>
		<circle fill="#F2B450" cx="40" cy="44" r="2.2"/>
		<circle fill="#F2B450" cx="43.5" cy="41.3" r="2.2"/>
		<path fill="#C8C8C8" d="M39.5,9.5c0,0-2.5,5.2-10.2,8.5c-5.5,2.4-8.4,2.6-8.4,2.6s0.7,8.4,4.8,13.1c0,0-0.5,1.6-0.2,3.2
			c0.3,1.4,1.1,2.9,1.1,2.9h-5.6c0,0-10.7-11.3-4.7-26.8C20.7,1.9,30.1,0.5,35.1,0.5s11.7,2.3,15.8,10s-1.1,19.8,0,24.7
			c0.5,2.4,1.2,4.6,1.2,4.6h-6.3l-2.3-5.3c0,0,3.4-3.3,4.5-11.8C48.8,16.1,39.5,9.5,39.5,9.5z"/>
		<path fill="#C8C8C8" d="M36.4,19.1l0.7-1.4c0,0,1.6-1.1,4.5-0.7c3,0.4,3.6,2.1,3.6,2.1s-1.1-0.6-4.2-0.7
			C38.3,18.2,36.4,19.1,36.4,19.1z"/>
		<path fill="#C8C8C8" d="M33.3,19.1l-0.7-1.4c0,0-1.6-1.1-4.5-0.7s-3.6,2.1-3.6,2.1s1.1-0.6,4.2-0.7C31.5,18.2,33.3,19.1,33.3,19.1
			z"/>
		<circle fill="#534741" cx="28.4" cy="20.8" r="1.1"/>
		<polygon fill="#FCE0D9" points="26.8,21.3 30.2,21.3 28.4,23 		"/>
		<circle fill="#534741" cx="40.8" cy="20.8" r="1.1"/>
		<polygon fill="#FCE0D9" points="39.1,21.3 42.5,21.3 40.8,23 		"/>
		<path fill="#FCE0D9" d="M19.9,20.8c0,0-0.1,0.7-0.1,1.1c0,1.8,0.9,3.3,2.2,4.3v-5.8C22,20.4,20.6,20.7,19.9,20.8z"/>
		<path fill="#FCE0D9" d="M46.9,26.2c1.3-1,2.2-2.5,2.2-4.3s-0.9-3.3-2.2-4.3L46.9,26.2z"/>
		<path opacity="0.25" fill="#F26342" d="M37.2,26c0-0.5-0.4-0.9-0.9-1l-0.8-4.9h-1.3L33.5,25c-0.5,0-0.9,0.4-0.9,1c0,0.5,0.4,1,1,1
			c0.3,0.5,0.8,0.8,1.3,0.8c0.6,0,1.1-0.3,1.3-0.8C36.8,26.9,37.2,26.5,37.2,26z"/>
		<path opacity="0.5" fill="#C94628" d="M29.5,30.2l4-0.3l1.3,0.3l1.3-0.3l3.8,0.6c0,0-2.9,0.5-5.1,0.5
			C32.7,30.9,29.5,30.2,29.5,30.2z"/>
		<path opacity="0.5" fill="#F26342" d="M29.5,30.2c0,0,2,2.4,5.2,2.4s5.2-2.1,5.2-2.1l-3.8-0.6l-1.3,0.3l-1.3-0.3L29.5,30.2z"/>
		<path fill="#1B468D" d="M9.5,119.4c0,0,0.5,14.3,2.4,22.9s11.9,39.3,11.9,39.3h9.5l2.9-62.1L9.5,119.4z"/>
		<path fill="#1B468D" d="M60.7,119.4c0,0-0.5,14.3-2.4,22.9c-1.9,8.6-11.2,39.3-11.2,39.3h-9.5L34,119.4L60.7,119.4z"/>
		<path fill="#FBD0C6" d="M2.3,113.5c0,0,2.2,10.3,5,14s2.6,1.2,2.6,1.2l-0.4-15.2H2.3z"/>
		<path fill="#FBD0C6" d="M67.8,113.5c0,0-2.2,10.3-5,14c-2.8,3.6-2.6,1.2-2.6,1.2l0.4-15.2H67.8z"/>
		<path d="M31.5,59.6"/>
		<circle fill="#FFDB00" cx="27.4" cy="41.1" r="0.5"/>
		<circle fill="#FFDB00" cx="31" cy="44" r="0.5"/>
		<circle fill="#FFDB00" cx="35.1" cy="44.5" r="0.5"/>
		<circle fill="#FFDB00" cx="39.2" cy="43.5" r="0.5"/>
		<circle fill="#FFDB00" cx="43" cy="40.6" r="0.5"/>
		<g>
			<circle fill="#FFDB00" cx="27.7" cy="72.5" r="1.9"/>
			<circle fill="#F2B450" cx="27.7" cy="72.5" r="1.4"/>
		</g>
		<g>
			<circle fill="#FFDB00" cx="28.2" cy="63.9" r="1.9"/>
			<circle fill="#F2B450" cx="28.2" cy="63.9" r="1.4"/>
		</g>
		<g>
			<circle fill="#FFDB00" cx="26.9" cy="81.3" r="1.9"/>
			<circle fill="#F2B450" cx="26.9" cy="81.3" r="1.4"/>
		</g>
		<g>
			<path fill="#DC519D" d="M23.8,181.5c0,0-1.9,3.5-1,7.8s4,7.8,5.8,7.8s7.6-2.4,4.7-15.5"/>
			<path fill="#F2B450" d="M28.8,190.9c3.4,0,4.8,1.3,4.4,2.4c-0.7,1.7-2.1,3.7-4.5,3.7c-1.6,0-3.2-2.1-4.1-3.7
				C23.8,192.2,25.9,191,28.8,190.9z"/>
			<path fill="#FFDB00" d="M25.9,192.6c0,0,0.9-0.6,1.7-0.6c0,0-0.1,1.9,1.2,4C28.8,196,27,195.6,25.9,192.6z"/>
			<path fill="none" stroke="#E685BB" stroke-width="0.7159" stroke-linecap="round" stroke-miterlimit="10" d="M25.9,187.9
				c0,0,2.5-1.9,5.3,0"/>
			<path fill="none" stroke="#E685BB" stroke-width="0.7159" stroke-linecap="round" stroke-miterlimit="10" d="M25.9,186.2
				c0,0,2.5-1.9,5.3,0"/>
			<path fill="none" stroke="#E685BB" stroke-width="0.7159" stroke-linecap="round" stroke-miterlimit="10" d="M25.9,184.3
				c0,0,2.5-1.9,5.3,0"/>
		</g>
		<g>
			<path fill="#DC519D" d="M47.1,181.5c0,0,1.9,3.5,1,7.8c-1,4.3-4,7.8-5.8,7.8c-1.8,0-7.6-2.4-4.7-15.5"/>
			<path fill="#F2B450" d="M42.1,190.9c-3.4,0-4.8,1.3-4.4,2.4c0.7,1.7,2.1,3.7,4.5,3.7c1.6,0,3.2-2.1,4.1-3.7
				C47,192.2,45,191,42.1,190.9z"/>
			<path fill="#FFDB00" d="M45,192.6c0,0-0.9-0.6-1.7-0.6c0,0,0.1,1.9-1.2,4C42.1,196,43.9,195.6,45,192.6z"/>
			<path fill="none" stroke="#E685BB" stroke-width="0.7159" stroke-linecap="round" stroke-miterlimit="10" d="M45,187.9
				c0,0-2.5-1.9-5.3,0"/>
			<path fill="none" stroke="#E685BB" stroke-width="0.7159" stroke-linecap="round" stroke-miterlimit="10" d="M45,186.2
				c0,0-2.5-1.9-5.3,0"/>
			<path fill="none" stroke="#E685BB" stroke-width="0.7159" stroke-linecap="round" stroke-miterlimit="10" d="M45,184.3
				c0,0-2.5-1.9-5.3,0"/>
		</g>
	</g>
	<g>
		<rect x="159.9" y="84.4" fill="#FFF57C" width="41.4" height="80.9"/>
		<rect x="155" y="143.2" fill="#1B468D" width="46.2" height="22.2"/>
		<circle fill="#8BD7F8" cx="160.8" cy="154.3" r="4.8"/>
		<circle fill="#8BD7F8" cx="175.7" cy="154.3" r="4.8"/>
		<circle fill="#8BD7F8" cx="191.1" cy="154.3" r="4.8"/>
		<rect x="197.4" y="84.6" fill="#1B468D" width="3.9" height="80.7"/>
		<path fill="#E69E25" d="M178.3,79.9h30.5c0.9,0,1.2,1.1,0.5,1.6c-2,1.5-5.9,3.5-12,3.2c-6.7-0.4-4.9,0-4.9,0L175,90
			c-0.7,0.2-1.4-0.5-1.1-1.2l3.5-8.4C177.6,80.1,178,79.9,178.3,79.9z"/>
		<path fill="#E69E25" d="M155.3,44.5l-5.5-1.3c-1.9-6.3,0-12.2,0-12.2l-8.1,6.3l-8.1-6.3c0,0,1.9,5.9,0,12.2l-6.4,1.3
			c0,0,0.6,15.2,14.3,15.5v0c0.1,0,0.1,0,0.2,0c0.1,0,0.1,0,0.2,0v0C155.6,59.7,155.3,44.5,155.3,44.5z"/>
		<path fill="#F2B450" d="M131.6,28.6c-1.4-1-2.3-2.8-2.5-4.8s0.7-3.9,1.9-5L131.6,28.6z"/>
		<path fill="#F2B450" d="M153.6,18.8c0-0.4,0-0.6,0-0.6l0,0c-0.4-7.4-4.5-13.2-12-13.2c-7.8,0-12,6.3-12,14.1c0,0,0.7,7.8,4,14
			c2.3,4.4,5.8,6.5,8,6.5c2.4,0,5.6-2.2,7.9-6c2.4-4.1,3.5-8.6,3.9-11.9c0.2-0.9,0.3-1.8,0.3-2.7C153.6,19,153.6,18.9,153.6,18.8z"
			/>
		<circle fill="#534741" cx="136.6" cy="22.2" r="1.1"/>
		<polygon fill="#F2B450" points="135,22.7 138.4,22.7 136.6,24.3 		"/>
		<circle fill="#534741" cx="146.8" cy="22.2" r="1.1"/>
		<polygon fill="#F2B450" points="145.1,22.7 148.5,22.7 146.8,24.3 		"/>
		<path d="M144.2,19.9c0,0,3.4-0.8,5.1-0.2c1.5,0.5,1.7,1.2,1.7,1.2s-0.2-1.3-1.5-1.9c-1.1-0.6-3.7-0.5-4.5-0.1
			C144,19.4,144.2,19.9,144.2,19.9z"/>
		<path d="M139.2,19.9c0,0-3.4-0.8-5.1-0.2c-1.5,0.5-1.7,1.2-1.7,1.2s0.2-1.3,1.5-1.9c1.1-0.6,3.7-0.5,4.5-0.1
			C139.3,19.4,139.2,19.9,139.2,19.9z"/>
		<circle fill="#C94628" cx="141.9" cy="17" r="1.3"/>
		<path d="M141.6,9.7c0,0.1-0.8,0.4-0.9,0.4c-0.8,0.4-1.6,0.7-2.4,1c-0.9,0.3-2,0.4-2.8,0.9c-0.9,0.5-1.7,1.1-2.2,2
			c-0.5,0.9-0.6,0.9-1,1.8c-0.4,0.8-0.9,1.4-1.2,2.2c-0.5,1.1-0.4,2.4-0.3,3.6c0.1,1-0.1,4.2,0,4.6c0,0-3.9-3-4.3-6.4
			c-0.6-4.6,1-4.6,1.8-9.9c0.5-3.2,2.2-4,6.1-6.6c3.3-2.2,7.3-0.2,7.3-0.2V9.7z"/>
		<path fill="#F2B450" d="M151.7,28.6c1.4-1,2.3-2.8,2.4-4.8s-0.7-3.9-1.9-5L151.7,28.6z"/>
		<path d="M141.5,9.7c0,0.1,0.8,0.4,0.9,0.4c0.8,0.4,1.6,0.7,2.4,1c0.9,0.3,2,0.4,2.8,0.9c0.9,0.5,1.7,1.1,2.2,2
			c0.5,0.9,0.6,0.9,1,1.8c0.4,0.8,0.9,1.4,1.2,2.2c0.5,1.1,0.4,2.4,0.3,3.6c-0.1,1,0.1,4.2,0,4.6c0,0,3.5-3.7,4.2-7
			c0.9-4.9-1.7-5.5-2.5-10.5c-0.5-3.2-3-5.2-5.7-6c-3.7-1.1-6.8,0.4-6.8,0.4V9.7z"/>
		<circle fill="#FFDB00" cx="130.2" cy="27.1" r="0.9"/>
		<circle fill="#FFDB00" cx="152.7" cy="27" r="0.9"/>
		<path fill="#C94628" d="M143.7,31.2c-1.4-0.1-2.1,0.7-2.1,0.7s-0.7-0.7-2.1-0.7c-1.4,0.1-2.8,0.5-2.8,0.5s4.2,1.6,4.9,1.5
			c0.7,0.1,4.9-1.5,4.9-1.5S145.1,31.3,143.7,31.2z"/>
		<path opacity="0.5" fill="#C94628" d="M136.7,31.7c0,0,2.4,2.9,4.9,3c2.5,0.1,4.9-3,4.9-3s-3.8,1.5-4.9,1.5
			C140.5,33.2,136.7,31.7,136.7,31.7z"/>
		<path opacity="0.3" fill="#C94628" d="M143.6,26.7c-0.1,0-0.1,0-0.2,0l-0.8-5.9h-0.8h-0.8l-0.8,5.9c-0.1,0-0.1,0-0.2,0
			c-0.5,0-0.9,0.4-0.9,0.9c0,0.5,0.4,0.9,0.9,0.9c0,0,0,0,0,0h1.8h1.8c0,0,0,0,0,0c0.5,0,0.9-0.4,0.9-0.9
			C144.5,27.1,144.1,26.7,143.6,26.7z"/>
		<path fill="#E69E25" d="M109.9,89.8c1,5.2,8.4,29.6,8.4,29.6s1.7,9,4.3,11.8v-18.9c0,0-3.1-23.8-3.1-27.9c0-2.5,1.4-8.7,2.5-13.4
			l-8.8-4.9c-1.7,7.7-3.2,15.2-3.2,15.2S108.9,84.6,109.9,89.8z"/>
		<path fill="#1B468D" d="M166.6,54.4c-2.3-8.7-11.3-9.9-11.3-9.9l-1,4.2c-1.5,4.6-5.1,11.3-13,11.3c-8.3,0-11.9-7.3-13.2-11.9
			l-0.7-3c-0.1-0.4-0.1-0.6-0.1-0.6s0,0,0,0.1l0-0.1c0,0-8.9,1.2-11.3,9.9c-0.8,3.1-1.8,7.4-2.7,11.6L122,71c0-0.1,0-0.1,0.1-0.2
			c0,0.1,0,0.2,0,0.2l2.9,7.6l1,8.7h15.3h0h15.3l1-8.7l2.9-7.6l8.8-4.9C168.4,61.8,167.4,57.5,166.6,54.4z"/>
		<polygon fill="#E69E25" points="126,87.3 126.5,95.8 155.9,95.8 156.5,87.3 		"/>
		<path fill="#F2B450" d="M130.5,193.9c3.4,0,4.8,1.3,4.4,2.4c-0.7,1.7-2.1,3.7-4.5,3.7c-1.6,0-3.2-2.1-4.1-3.7
			C125.5,195.2,127.6,193.9,130.5,193.9z"/>
		<path fill="#FFDB00" d="M127.6,195.5c0,0,0.9-0.6,1.7-0.6c0,0-0.1,1.9,1.2,4C130.5,198.9,128.6,198.6,127.6,195.5z"/>
		<path fill="#F2B450" d="M152,193.9c-3.4,0-4.8,1.3-4.4,2.4c0.7,1.7,2.1,3.7,4.5,3.7c1.6,0,3.2-2.1,4.1-3.7
			C157,195.2,154.9,193.9,152,193.9z"/>
		<path fill="#FFDB00" d="M154.9,195.5c0,0-0.9-0.6-1.7-0.6c0,0,0.1,1.9-1.2,4C152,198.9,153.8,198.6,154.9,195.5z"/>
		<path fill="#8BD7F8" d="M160.7,114.2c0-6.4-4.7-18.4-4.7-18.4h-14.7h-14.7c0,0-4.7,12.1-4.7,18.4c0,6.4-0.3,81.5-0.3,81.5h19.7
			h19.7C160.9,195.7,160.7,120.6,160.7,114.2z"/>
		<linearGradient id="SVGID_2_" gradientUnits="userSpaceOnUse" x1="121.5492" y1="105.437" x2="205.3407" y2="105.437">
			<stop  offset="0" style="stop-color:#FFF57C"/>
			<stop  offset="0.1397" style="stop-color:#FFF582"/>
			<stop  offset="0.3347" style="stop-color:#FFF795"/>
			<stop  offset="0.5622" style="stop-color:#FFF9B2"/>
			<stop  offset="0.8122" style="stop-color:#FFFCDB"/>
			<stop  offset="1" style="stop-color:#FFFFFF"/>
		</linearGradient>
		<path fill="url(#SVGID_2_)" d="M154.2,44.2L122,71l3,7.6l1.6,17.2c0,0-3.8,7.7-4.3,14.2c-0.5,6.5-0.7,56.7-0.7,56.7
			s32.7-23.4,51.7-49.4c24.9-34.1,32.1-37.4,32.1-37.4s-22.4,0.6-29.2-4.6c-5.4-4.1-3.9-14.7-9.7-23.6
			C162.4,45.6,157.1,44.4,154.2,44.2z"/>
		<g>
			<path fill="#1B468D" d="M198.9,79.8c-4.3,3.9-12.5,12.7-28.2,34.3c-15.8,21.6-41.1,41.5-49.1,47.5c0,3.1,0,5,0,5
				s32.7-23.4,51.7-49.4c24.9-34.1,32.1-37.4,32.1-37.4S202.8,79.8,198.9,79.8z"/>
		</g>
		<rect x="121.5" y="191.2" fill="#1B468D" width="39.4" height="4.5"/>
		<path fill="#1B468D" d="M154.2,44.2c0,0,3,0.3,4.5,1l-35.3,29.4L122,71L154.2,44.2z"/>
		<path fill="#FFDB00" d="M133.5,43.2c0,0-0.9,25.3,8,25.3c8.9,0,8.2-25.3,8.2-25.3l3.1,0.7c0,0,2.4,28.4-11.1,28.4
			c-13.5,0-11.7-28.5-11.7-28.5L133.5,43.2z"/>
	</g>
	<path fill="#DC519D" d="M24.5,3.1c0,0,9.4-7.1,19.9,0C44.4,3.1,36.4,6.8,24.5,3.1z"/>
	<circle fill="none" stroke="#1B468D" stroke-width="1.0345" stroke-miterlimit="10" cx="28.4" cy="20.8" r="3.7"/>
	<circle fill="none" stroke="#1B468D" stroke-width="1.0345" stroke-miterlimit="10" cx="40.8" cy="20.8" r="3.7"/>
	<line fill="none" stroke="#1B468D" stroke-width="1.0345" stroke-miterlimit="10" x1="32.2" y1="20.8" x2="37.1" y2="20.8"/>
</g>
</svg>
