<?xml version="1.0" encoding="utf-8"?>
<!-- Generator: Adobe Illustrator 18.1.1, SVG Export Plug-In . SVG Version: 6.00 Build 0)  -->
<svg version="1.1" id="Layer_1" xmlns="http://www.w3.org/2000/svg" xmlns:xlink="http://www.w3.org/1999/xlink" x="0px" y="0px"
	 viewBox="0 0 154 200" enable-background="new 0 0 154 200" xml:space="preserve">
<g>
	<g>
		<path fill="#F2B450" d="M47.6,116.7c0,0-1.2,9.2-4.5,14.5c-0.4,0.7-1.2,0.2-1.2-0.8l0-13.7H47.6z"/>
		<path fill="#F2B450" d="M0.2,116.7c0,0,1.2,9.2,4.5,14.5c0.4,0.7,1.2,0.2,1.2-0.8l-0.1-13.7H0.2z"/>
		<rect x="16.9" y="28.9" fill="#F2B450" width="14.9" height="21.5"/>
		<path fill="#FFCA6C" d="M13.3,17.2c-1.7,1.4-2.8,3.5-2.8,5.8s1.1,4.5,2.8,5.8V17.2z"/>
		<path fill="#FFCA6C" d="M35.5,28.9c1.7-1.4,2.8-3.5,2.8-5.8c0-2.4-1.1-4.5-2.8-5.8L35.5,28.9z"/>
		<path fill="#FFCA6C" d="M36.9,20.5c0-0.4,0-0.6,0-0.6l0,0C36.4,12.1,32.2,6,24.3,6c-8.2,0-12.6,6.6-12.6,14.8
			c0,0,0.8,8.2,4.2,14.7c2.4,4.6,6.1,6.8,8.4,6.8c2.6,0,5.9-2.3,8.2-6.3c2.5-4.3,3.7-9,4.1-12.5c0.2-0.9,0.3-1.8,0.3-2.8
			C36.9,20.7,36.9,20.6,36.9,20.5z"/>
		<polygon points="11.7,11 11.7,5.1 17.7,2.9 31.1,2.9 36.9,5.1 36.9,11 		"/>
		<rect x="11.7" y="7.7" width="2.3" height="16.8"/>
		<rect x="34.6" y="7.7" width="2.3" height="16.8"/>
		<polygon points="17.2,19.1 15.6,21.1 17.2,20.6 21.3,20.6 21.3,19.1 		"/>
		<polygon points="31.7,19.1 33.3,21.1 31.7,20.6 27.6,20.6 27.6,19.1 		"/>
		<circle cx="18.8" cy="23.4" r="0.7"/>
		<circle cx="29.7" cy="23.4" r="0.7"/>
		<path fill="#F2B450" d="M27.2,28.5c0-0.6-0.5-1.2-1.1-1.2l-1-5.9h-1.5l-0.8,5.9c-0.6,0-1.1,0.6-1.1,1.2c0,0.7,0.5,1.2,1.1,1.2
			c0.3,0.6,0.9,1,1.6,1c0.7,0,1.3-0.4,1.6-1C26.7,29.7,27.2,29.2,27.2,28.5z"/>
		<path opacity="0.3" fill="#C94628" d="M21.5,33.5c0,0,1.9-0.6,3,0c0,0,1.4-0.7,3,0c0,0-1.5,0.5-3,0.5S21.5,33.5,21.5,33.5z"/>
		<path opacity="0.3" fill="#C94628" d="M21.5,33.5c0,0,1.6,1.3,3,1.3c1.4,0,3-1.3,3-1.3s-2.1-0.6-3,0
			C24.5,33.5,23.2,32.9,21.5,33.5z"/>
		<path fill="#C94628" d="M17,3.2C17,3.2,20,0,24.6,0s7.3,3.2,7.3,3.2s-1.6,1.9-7.6,1.9S17,3.2,17,3.2z"/>
		<path fill="#C94628" d="M41.6,48.8L33,46.6l0,0v-5.9l-8.1,4.5l-0.5,3.7L24,45.1l-8.4-4.4v5.8l0,0l-9.3,2.2c-3.5,0-6.3,2.8-6.3,6.3
			v68.8h47.9V55.1C47.9,51.6,45.1,48.8,41.6,48.8z"/>
		<polyline fill="none" stroke="#F2B450" stroke-width="0.5432" stroke-miterlimit="10" points="26.6,49.5 26.6,77.4 24.4,79.4 
			22.4,77.4 22.4,49.6 		"/>
		<polyline fill="none" stroke="#F2B450" stroke-width="0.2716" stroke-miterlimit="10" points="21,49.5 21,78.3 24.4,81.8 
			27.8,78.4 27.8,49.5 		"/>
		<rect x="5.7" y="122.8" fill="#C94628" width="36.3" height="23.4"/>
		<circle fill="#FFFFFF" cx="19.3" cy="50.6" r="0.4"/>
		<circle fill="#FFFFFF" cx="19.3" cy="52.6" r="0.4"/>
		<circle fill="#FFFFFF" cx="19.3" cy="54.6" r="0.4"/>
		<circle fill="#FFFFFF" cx="19.3" cy="56.6" r="0.4"/>
		<circle fill="#FFFFFF" cx="19.3" cy="58.6" r="0.4"/>
		<circle fill="#FFFFFF" cx="19.3" cy="60.6" r="0.4"/>
		<circle fill="#FFFFFF" cx="19.3" cy="62.6" r="0.4"/>
		<circle fill="#FFFFFF" cx="19.3" cy="64.7" r="0.4"/>
		<circle fill="#FFFFFF" cx="19.3" cy="66.7" r="0.4"/>
		<circle fill="#FFFFFF" cx="19.3" cy="68.7" r="0.4"/>
		<circle fill="#FFFFFF" cx="19.3" cy="70.7" r="0.4"/>
		<circle fill="#FFFFFF" cx="19.3" cy="72.7" r="0.4"/>
		<circle fill="#FFFFFF" cx="19.3" cy="74.7" r="0.4"/>
		<circle fill="#FFFFFF" cx="19.3" cy="76.7" r="0.4"/>
		<circle fill="#FFFFFF" cx="19.3" cy="78.7" r="0.4"/>
		<circle fill="#FFFFFF" cx="20.6" cy="80.1" r="0.4"/>
		<circle fill="#FFFFFF" cx="21.8" cy="81.4" r="0.4"/>
		<circle fill="#FFFFFF" cx="23" cy="82.8" r="0.4"/>
		<circle fill="#FFFFFF" cx="29.2" cy="50.6" r="0.4"/>
		<circle fill="#FFFFFF" cx="29.2" cy="52.6" r="0.4"/>
		<circle fill="#FFFFFF" cx="29.2" cy="54.6" r="0.4"/>
		<circle fill="#FFFFFF" cx="29.2" cy="56.6" r="0.4"/>
		<circle fill="#FFFFFF" cx="29.2" cy="58.6" r="0.4"/>
		<circle fill="#FFFFFF" cx="29.2" cy="60.6" r="0.4"/>
		<circle fill="#FFFFFF" cx="29.2" cy="62.6" r="0.4"/>
		<circle fill="#FFFFFF" cx="29.2" cy="64.7" r="0.4"/>
		<circle fill="#FFFFFF" cx="29.2" cy="66.7" r="0.4"/>
		<circle fill="#FFFFFF" cx="29.2" cy="68.7" r="0.4"/>
		<circle fill="#FFFFFF" cx="29.2" cy="70.7" r="0.4"/>
		<circle fill="#FFFFFF" cx="29.2" cy="72.7" r="0.4"/>
		<circle fill="#FFFFFF" cx="29.2" cy="74.7" r="0.4"/>
		<circle fill="#FFFFFF" cx="29.2" cy="76.7" r="0.4"/>
		<circle fill="#FFFFFF" cx="29.2" cy="78.7" r="0.4"/>
		<circle fill="#FFFFFF" cx="28" cy="80.1" r="0.4"/>
		<circle fill="#FFFFFF" cx="26.8" cy="81.4" r="0.4"/>
		<circle fill="#FFFFFF" cx="25.6" cy="82.8" r="0.4"/>
		<circle fill="#FFFFFF" cx="24.2" cy="84.1" r="0.4"/>
		<g>
			<circle fill="#FFFFFF" cx="5.9" cy="121.5" r="0.4"/>
			<circle fill="#FFFFFF" cx="3.9" cy="121.5" r="0.4"/>
			<circle fill="#FFFFFF" cx="1.9" cy="121.5" r="0.4"/>
			<path fill="#FFFFFF" d="M0,121.1v0.9c0.2,0,0.3-0.2,0.3-0.4S0.2,121.1,0,121.1z"/>
		</g>
		<g>
			<circle fill="#FFFFFF" cx="42" cy="121.5" r="0.4"/>
			<circle fill="#FFFFFF" cx="44" cy="121.5" r="0.4"/>
			<circle fill="#FFFFFF" cx="46" cy="121.5" r="0.4"/>
			<path fill="#FFFFFF" d="M47.9,121.9v-0.9c-0.2,0-0.3,0.2-0.3,0.4S47.7,121.9,47.9,121.9z"/>
		</g>
		<line fill="none" stroke="#F2B450" stroke-width="0.4872" stroke-miterlimit="10" x1="6.4" y1="118.7" x2="0.1" y2="118.7"/>
		<line fill="none" stroke="#F2B450" stroke-width="0.2436" stroke-miterlimit="10" x1="0" y1="120.1" x2="6.4" y2="120.1"/>
		<line fill="none" stroke="#F2B450" stroke-width="0.4872" stroke-miterlimit="10" x1="48" y1="118.7" x2="41.6" y2="118.7"/>
		<line fill="none" stroke="#F2B450" stroke-width="0.2436" stroke-miterlimit="10" x1="41.6" y1="120.1" x2="48" y2="120.1"/>
		<rect x="13.3" y="146.2" fill="#F2B450" width="9.7" height="42.7"/>
		<rect x="25.6" y="146.2" fill="#F2B450" width="9.7" height="42.7"/>
		<g>
			<path fill="#534741" d="M23,188.9c0,0,1.5,9.4-4,11c-3.2,0.9-6-5.9-6.1-7.6c-0.1-1.7,0.4-3.4,0.4-3.4H23z"/>
			<path fill="none" stroke="#F2B450" stroke-width="0.5432" stroke-linecap="round" stroke-miterlimit="10" d="M16.2,193.6
				c0,0,1.9-0.8,4.2,0"/>
			<path fill="none" stroke="#F2B450" stroke-width="0.5432" stroke-linecap="round" stroke-miterlimit="10" d="M16.2,191.9
				c0,0,1.9-0.8,4.2,0"/>
			<path fill="none" stroke="#F2B450" stroke-width="0.5432" stroke-linecap="round" stroke-miterlimit="10" d="M16.2,190.3
				c0,0,1.9-0.8,4.2,0"/>
		</g>
		<g>
			<path fill="#534741" d="M25.6,188.9c0,0-1.5,9.4,4,11c3.2,0.9,6-5.9,6.1-7.6c0.1-1.7-0.4-3.4-0.4-3.4H25.6z"/>
			<path fill="none" stroke="#F2B450" stroke-width="0.5432" stroke-linecap="round" stroke-miterlimit="10" d="M32.4,193.6
				c0,0-1.9-0.8-4.2,0"/>
			<path fill="none" stroke="#F2B450" stroke-width="0.5432" stroke-linecap="round" stroke-miterlimit="10" d="M32.4,191.9
				c0,0-1.9-0.8-4.2,0"/>
			<path fill="none" stroke="#F2B450" stroke-width="0.5432" stroke-linecap="round" stroke-miterlimit="10" d="M32.4,190.3
				c0,0-1.9-0.8-4.2,0"/>
		</g>
	</g>
	<g>
		<g>
			<g>
				<path fill="#B1B1B1" d="M127.7,183.1c0,0-0.5,2.8,0,4.4c0.5,1.6,1.9,2.8,1.9,2.8s0.5,3,3.4,5.8c2.9,2.7,6.7,4,8,4s2.3-4.1,1-6.9
					c-2.2-4.6-2.7-5.4-3.7-7.5c-0.4-0.9-1.4-2.8-1.4-2.8L127.7,183.1z"/>
				<path fill="none" stroke="#DC519D" stroke-width="0.5552" stroke-linecap="round" stroke-miterlimit="10" d="M139.1,188.9
					c0,0-1.9-0.8-4.1,0.7"/>
				<path fill="none" stroke="#DC519D" stroke-width="0.5552" stroke-linecap="round" stroke-miterlimit="10" d="M134.4,188.1
					c0,0,1.9-1.4,3.8-0.7"/>
				<path fill="none" stroke="#DC519D" stroke-width="0.5552" stroke-linecap="round" stroke-miterlimit="10" d="M133.6,186.5
					c0,0,2.1-1.4,4.1-0.7"/>
			</g>
			<g>
				<path fill="#B1B1B1" d="M119.1,183.1c0,0,0.5,2.8,0,4.4c-0.5,1.6-1.9,2.8-1.9,2.8s-0.5,3-3.4,5.8c-2.9,2.7-6.7,4-8,4
					s-2.3-4.1-1-6.9c2.2-4.6,2.7-5.4,3.7-7.5c0.4-0.9,1.4-2.8,1.4-2.8L119.1,183.1z"/>
				<path fill="none" stroke="#DC519D" stroke-width="0.5552" stroke-linecap="round" stroke-miterlimit="10" d="M107.7,188.9
					c0,0,1.9-0.8,4.1,0.7"/>
				<path fill="none" stroke="#DC519D" stroke-width="0.5552" stroke-linecap="round" stroke-miterlimit="10" d="M112.4,188.1
					c0,0-1.9-1.4-3.8-0.7"/>
				<path fill="none" stroke="#DC519D" stroke-width="0.5552" stroke-linecap="round" stroke-miterlimit="10" d="M113.2,186.5
					c0,0-2.1-1.4-4.1-0.7"/>
			</g>
			<polygon fill="#0F3778" points="103.7,101 107.7,185.9 120.4,185.9 123,124.3 126.5,185.9 138.5,185.9 142.6,101 			"/>
			<path fill="#E69E25" d="M133.9,40.9l-22.4-0.1c0,0,3-3.4,2.6-6.2c-0.6-3.6-1.9-6.6-1.9-6.6h21c0,0-1.6,3.4-2,6.9
				C130.8,37.2,133.9,40.9,133.9,40.9z"/>
			<path fill="#F2B450" d="M112.2,17.1c-1.6,1.3-2.6,3.2-2.6,5.5s1,4.2,2.6,5.5V17.1z"/>
			<path fill="#F2B450" d="M133.1,28c1.6-1.3,2.6-3.2,2.6-5.5s-1-4.2-2.6-5.5L133.1,28z"/>
			<path fill="#F2B450" d="M134.4,18.3c0-7.1-4.7-12.8-11.8-12.8s-11.8,5.7-11.8,12.8c0,1,0.1,2,0.3,2.9l0,0l1.2,8.9
				c0,0,3.4,5.6,5.4,6.9c2,1.3,4.8,1.3,4.8,1.3s2.8,0.1,4.8-1.3c2-1.3,5.4-6.9,5.4-6.9l1.2-8.9l0,0
				C134.3,20.2,134.4,19.3,134.4,18.3z"/>
			<path opacity="0.3" fill="#C94628" d="M124.2,23.1v-3.4h-2.9v3.4c-0.8,0-1.4,0.6-1.4,1.4c0,0.8,0.6,1.4,1.4,1.4
				c0.1,0,0.1,0,0.2,0h2.5c0.1,0,0.1,0,0.2,0c0.8,0,1.4-0.6,1.4-1.4C125.7,23.7,125,23.1,124.2,23.1z"/>
			<circle fill="#0F3778" cx="129" cy="20.3" r="1.1"/>
			<circle fill="#0F3778" cx="116.1" cy="20.3" r="1.1"/>
			<polygon fill="#F2B450" points="130.1,21 127.9,21 129,22.2 			"/>
			<polygon fill="#F2B450" points="117.2,21 115.1,21 116.1,22.2 			"/>
			<path fill="#534741" d="M124.2,16.9l-0.5,1.3c0,0,5.1-1.4,7.2-0.7c1.5,0.5,2,0.9,2,0.9l-0.7-1.5
				C132.2,16.9,129.6,15.2,124.2,16.9z"/>
			<path fill="#534741" d="M121.5,16.9l0.5,1.3c0,0-5.1-1.4-7.2-0.7c-1.5,0.5-2,0.9-2,0.9l0.7-1.5C113.4,16.9,116,15.2,121.5,16.9z"
				/>
			<g>
				<path opacity="0.3" fill="#C94628" d="M117.6,30.2c0,0,3,2.2,5.1,2.2s4.9-2.2,4.9-2.2l-3.4-1.4l-1.5,0.7l-1.3-0.7L117.6,30.2z"
					/>
				<path opacity="0.3" fill="#C94628" d="M122.8,29.5l-1.3-0.7l-3.8,1.4c0,0,3.1,0.4,5.1,0.4s4.9-0.4,4.9-0.4l-3.4-1.4L122.8,29.5z
					"/>
			</g>
			<path fill="#534741" d="M127.2,9.2c0,0-1.7,2.5-5.5,2.4c-3.8-0.1-11-5.7-11-5.7s3,0.1,5.6-1.4s7.2-3.1,11.5,0L127.2,9.2z"/>
			<path fill="#534741" d="M112.8,7.1l-2.9,1.9l0.9,15h0.6l0.7-9.6c0,0,1.3-6.9,10.6-6L112.8,7.1z"/>
			<path fill="#534741" d="M127.7,4.4l7.7,4.6l-0.9,15H134l-0.7-9.6c0,0-1.3-6.9-10.6-6L127.7,4.4z"/>
			<g>
				<path fill="none" stroke="#DC519D" stroke-width="1.015" stroke-linecap="round" stroke-miterlimit="10" d="M111.7,18.4h9
					c0,0,0.1,4.4-4.5,4.4C112,22.8,111.7,18.4,111.7,18.4z"/>
				<path fill="none" stroke="#DC519D" stroke-width="1.015" stroke-linecap="round" stroke-miterlimit="10" d="M124.6,18.4h9
					c0,0,0.1,4.4-4.5,4.4C124.9,22.8,124.6,18.4,124.6,18.4z"/>
				
					<line fill="none" stroke="#DC519D" stroke-width="1.015" stroke-linecap="round" stroke-miterlimit="10" x1="120.6" y1="18.4" x2="124.8" y2="18.4"/>
			</g>
			<path fill="#DC519D" d="M114.1,34.6l-1.4,2.6v29.2h21.2L133,37.2l-2-2.3c0,0-4.4,5.1-8.4,5.1S114.1,34.6,114.1,34.6z"/>
			<polygon fill="#BD3C82" points="114.5,46.6 122.6,43.1 131.2,46.6 131.2,66.9 114.5,66.9 			"/>
			<polygon fill="#FFFFFF" points="116.1,58 122.6,63.8 129.6,58 129.6,101 116.1,101 			"/>
			<path fill="#1B468D" d="M112.7,37.2l-20,9.5l-0.4,40.5l1.6,25.4h8v4.4h18.1V75.9L112.7,37.2z"/>
			<polygon fill="#0F3778" points="120.1,75.9 107.4,63.6 109.3,57 99,43.8 112.7,37.2 			"/>
			<path fill="#1B468D" d="M153,46.6l-20-9.5l-7.4,38.7v41.1h18.1v-4.4h8l1.6-25.4L153,46.6z"/>
			<polygon fill="#0F3778" points="125.7,75.9 138.3,63.6 136.4,57 146.8,43.8 133,37.2 			"/>
			<g>
				<path fill="#FFFFFF" d="M130,38.3c0.3-0.2,0.6,0.1,0.6,0.4c-0.1,0.4-0.1,0.9-0.1,1.6c0.1,1.5,0.6,3.9,0.1,5.5
					c-0.1,0.2-0.3,0.3-0.5,0.2l-5.2-2c-0.2-0.1-0.3-0.2-0.2-0.4l0-2.4c0-0.1,0.1-0.3,0.2-0.3L130,38.3z"/>
				<path fill="#FFFFFF" d="M115.9,38.3c-0.3-0.2-0.6,0.1-0.6,0.4c0.1,0.4,0.1,0.9,0.1,1.6c-0.1,1.5-0.6,3.9-0.1,5.5
					c0.1,0.2,0.3,0.3,0.5,0.2l5.2-2c0.2-0.1,0.3-0.2,0.2-0.4l0-2.4c0-0.1-0.1-0.3-0.2-0.3L115.9,38.3z"/>
				<path fill="#FFFFFF" d="M123.4,44.8h-0.8c-0.9,0-1.7-0.8-1.7-1.7v-1c0-0.9,0.8-1.7,1.7-1.7h0.8c0.7,0,1.3,0.4,1.6,1
					c0.1,0.2,0.1,0.4,0.1,0.7v1C125.1,44,124.4,44.8,123.4,44.8z"/>
			</g>
			<path fill="#F2B450" d="M96.5,112.5c0,0,1.7,9.2,6.7,14.5c0.6,0.7,1.8,0.2,1.8-0.8l-0.4-13.7H96.5z"/>
			<path fill="#F2B450" d="M149.8,112.5c0,0-1.7,9.2-6.7,14.5c-0.6,0.7-1.8,0.2-1.8-0.8l0.4-13.7H149.8z"/>
			<polygon fill="#DC519D" points="104.6,116.3 95.2,116.3 95.2,112.5 104.5,112.5 			"/>
			<polygon fill="#DC519D" points="141.7,116.3 151.1,116.3 151.1,112.5 141.8,112.5 			"/>
			<rect x="120.1" y="89.2" fill="#B1B1B1" width="5.6" height="13.4"/>
		</g>
		<circle fill="#1B468D" cx="123" cy="50" r="0.8"/>
		<circle fill="#1B468D" cx="123" cy="58.7" r="0.8"/>
		<circle fill="#B1B1B1" cx="122.6" cy="69.8" r="1"/>
		<circle fill="#B1B1B1" cx="122.6" cy="81.3" r="1"/>
	</g>
	<circle fill="#FFDB00" cx="134.4" cy="26.6" r="0.7"/>
	<circle fill="#FFDB00" cx="110.9" cy="26.6" r="0.7"/>
	<circle fill="#FFFFFF" cx="134.2" cy="26.3" r="0.2"/>
	<circle fill="#FFFFFF" cx="110.6" cy="26.3" r="0.2"/>
</g>
</svg>
