<?xml version="1.0" encoding="utf-8"?>
<!-- Generator: Adobe Illustrator 20.0.0, SVG Export Plug-In . SVG Version: 6.00 Build 0)  -->
<svg version="1.1" id="Layer_1" xmlns="http://www.w3.org/2000/svg" xmlns:xlink="http://www.w3.org/1999/xlink" x="0px" y="0px"
	 viewBox="0 0 154.6 200" enable-background="new 0 0 154.6 200" xml:space="preserve">
<g>
	<circle fill="#FFDB00" cx="44.9" cy="27.4" r="0.6"/>
	<circle fill="#FFDB00" cx="21.4" cy="27.4" r="0.6"/>
	<circle fill="#FFFFFF" cx="44.7" cy="27.2" r="0.2"/>
	<circle fill="#FFFFFF" cx="21.2" cy="27.2" r="0.2"/>
	<g>
		<polygon fill="#FBD0C6" points="21,29.8 23.2,42.6 14.6,49.5 34.3,85.4 51.1,49.5 44.4,42.6 45.6,29 		"/>
		<path fill="#231F20" d="M42.7,123.5h11.7L52.3,100l0.8-25.3l4.2,25.2l8.6,0.2l0.7-10.8c0.2-1.5,0.1-3.1-0.1-4.6l-2.3-23.4
			c-0.9-6.5-5.1-12.1-11-14.8l-8.7-4l-1.8-4.2c0,0,7.3,22-8.8,22s-9.6-22-9.6-22l-1,4.2l-8.7,4c-6,2.7-10.1,8.3-11,14.8L1.2,84.7
			c-0.2,1.5-0.2,3.1-0.1,4.6L1.8,100h8.4l4.4-25.2l1.6,25.2l-1,23.4h14.7"/>
		<path fill="#FCE0D9" d="M47.7,21.6c0-0.4,0-0.6,0-0.6l0,0c-0.4-7.4-6.5-13.2-14-13.2c-7.8,0-14.1,6.3-14.1,14.1
			c0,0-0.1,18.7,14.1,18.7c10.4,0,13.1-10.4,13.8-16c0.2-0.9,0.3-1.8,0.3-2.7C47.7,21.8,47.7,21.7,47.7,21.6z"/>
		<path fill="#534741" d="M38.2,12.3c0,0-2.5,5.2-10.2,8.5c-5.5,2.4-8.3,2.6-8.3,2.6s0.7,8.4,4.8,13.1c0,0-0.5,1.6-0.2,3.2
			c0.3,1.4,1.1,2.9,1.1,2.9h-5.6c0,0-10.7-11.3-4.7-26.7C19.4,4.8,28.8,3.4,33.7,3.4s11.6,2.3,15.7,10s-1.1,19.7,0,24.7
			c0.5,2.3,1.2,4.6,1.2,4.6h-6.3l-2.3-5.3c0,0,3.4-3.3,4.4-11.8C47.4,19,38.2,12.3,38.2,12.3z"/>
		<path fill="#534741" d="M35.8,21.6l0-1c0,0,1.5-1.1,4.5-0.7c3,0.4,3.6,2.1,3.6,2.1s-1.1-1-4.2-1.1C36.9,20.7,35.8,21.6,35.8,21.6z
			"/>
		<path fill="#534741" d="M31.2,21.6l0.1-1.1c0,0-1.5-1.1-4.5-0.7c-3,0.4-3.6,2.1-3.6,2.1s0.8-0.9,3.9-1
			C29.8,20.8,31.2,21.6,31.2,21.6z"/>
		<circle fill="#00A79B" cx="27.1" cy="23.7" r="1.1"/>
		<polygon fill="#FCE0D9" points="25.4,24.2 28.8,24.2 27.1,25.8 		"/>
		<circle fill="#00A79B" cx="39.4" cy="23.7" r="1.1"/>
		<polygon fill="#FCE0D9" points="37.8,24.2 41.2,24.2 39.4,25.8 		"/>
		<path fill="#FCE0D9" d="M18.6,23.7c0,0-0.1,0.7-0.1,1.1c0,1.8,0.9,3.3,2.2,4.3v-5.8C20.7,23.3,19.3,23.5,18.6,23.7z"/>
		<path fill="#FCE0D9" d="M45.6,29c1.3-1,2.2-2.5,2.2-4.3s-0.9-3.3-2.2-4.3V29z"/>
		<path opacity="0.25" fill="#F26342" d="M35.8,28.8c0-0.5-0.4-0.9-0.9-1L34.1,23h-1.3l-0.7,4.8c-0.5,0-0.9,0.4-0.9,1
			c0,0.5,0.4,1,1,1c0.3,0.5,0.8,0.8,1.3,0.8c0.6,0,1.1-0.3,1.3-0.8C35.4,29.8,35.8,29.3,35.8,28.8z"/>
		<path opacity="0.5" fill="#C94628" d="M28.2,33l4-0.3l1.3,0.3l1.3-0.3l3.8,0.6c0,0-2.9,0.5-5.1,0.5C31.3,33.7,28.2,33,28.2,33z"/>
		<path opacity="0.5" fill="#F26342" d="M28.2,33c0,0,2,2.4,5.2,2.4s5.2-2.1,5.2-2.1l-3.8-0.6L33.5,33l-1.3-0.3L28.2,33z"/>
		<path fill="#FBD0C6" d="M15.9,102.6c0,0-1.5,14.2,0.4,22.8s7.4,58.7,7.4,58.7l9.3,0l-1.3-81.5L15.9,102.6z"/>
		<path fill="#FBD0C6" d="M52.5,102.6c0,0,2.5,14.2,0.6,22.8S46.4,184,46.4,184l-9.2,0.4l0.6-81.9L52.5,102.6z"/>
		<path fill="#FBD0C6" d="M1.8,100c0,0,1.5,7.5,3.4,15c1.6,6.6,3.5,13.3,4.8,15c2.8,3.6,2.6,1.2,2.6,1.2L10.2,100H1.8z"/>
		<path fill="#FBD0C6" d="M65.8,99.9c0,0-1.1,8.2-2.6,16.1c-1.2,6.3-2.6,12.5-3.8,14.1c-2.8,3.6-2.6,1.2-2.6,1.2l0.4-31.4H65.8z"/>
		<path fill="#231F20" d="M16.1,100c0,0-4,7.9-4.4,20.2c-0.2,5.8,3.1,33.2,5.1,39.7l36.1-0.4c1.7-6.1,4.9-33.9,4.1-41.1
			c-1.5-12.6-4.7-18.4-4.7-18.4L16.1,100z"/>
		<g>
			<path fill="#DC519D" d="M23.7,184c0,0-1.9,3.4-0.9,7.6c0.9,4.2,4,7.6,5.7,7.6c1.7,0,7.4-2.3,4.6-15.2"/>
			<path fill="#F2B450" d="M28.6,193.3c3.4,0,4.7,1.2,4.3,2.3c-0.7,1.6-2,3.6-4.4,3.6c-1.6,0-3.1-2-4-3.6
				C23.7,194.5,25.7,193.3,28.6,193.3z"/>
			<path fill="#FFDB00" d="M25.7,194.9c0,0,0.9-0.6,1.6-0.6c0,0-0.1,1.9,1.2,3.9C28.6,198.2,26.8,197.9,25.7,194.9z"/>
			<path fill="none" stroke="#E685BB" stroke-width="0.7159" stroke-linecap="round" stroke-miterlimit="10" d="M25.7,190.3
				c0,0,2.4-1.9,5.2,0"/>
			<path fill="none" stroke="#E685BB" stroke-width="0.7159" stroke-linecap="round" stroke-miterlimit="10" d="M25.7,188.6
				c0,0,2.4-1.9,5.2,0"/>
			<path fill="none" stroke="#E685BB" stroke-width="0.7159" stroke-linecap="round" stroke-miterlimit="10" d="M25.7,186.7
				c0,0,2.4-1.9,5.2,0"/>
		</g>
		<g>
			<path fill="#DC519D" d="M46.4,184c0,0,1.9,3.4,0.9,7.6c-0.9,4.2-4,7.6-5.7,7.6s-7.4-2.3-4.6-15.2"/>
			<path fill="#F2B450" d="M41.6,193.3c-3.4,0-4.7,1.2-4.3,2.3c0.7,1.6,2,3.6,4.4,3.6c1.6,0,3.1-2,4-3.6
				C46.4,194.5,44.4,193.3,41.6,193.3z"/>
			<path fill="#FFDB00" d="M44.4,194.9c0,0-0.9-0.6-1.6-0.6c0,0,0.1,1.9-1.2,3.9C41.5,198.2,43.3,197.9,44.4,194.9z"/>
			<path fill="none" stroke="#E685BB" stroke-width="0.7159" stroke-linecap="round" stroke-miterlimit="10" d="M44.4,190.3
				c0,0-2.4-1.9-5.2,0"/>
			<path fill="none" stroke="#E685BB" stroke-width="0.7159" stroke-linecap="round" stroke-miterlimit="10" d="M44.4,188.6
				c0,0-2.4-1.9-5.2,0"/>
			<path fill="none" stroke="#E685BB" stroke-width="0.7159" stroke-linecap="round" stroke-miterlimit="10" d="M44.4,186.7
				c0,0-2.4-1.9-5.2,0"/>
		</g>
	</g>
</g>
<ellipse transform="matrix(0.7778 -0.6285 0.6285 0.7778 -18.6779 23.3672)" fill="#F2B450" cx="23.7" cy="38.1" rx="2.2" ry="2.2"/>
<ellipse transform="matrix(0.7778 -0.6285 0.6285 0.7778 -20.2206 25.8759)" fill="#F2B450" cx="26.5" cy="41.5" rx="2.2" ry="2.2"/>
<ellipse transform="matrix(0.7778 -0.6285 0.6285 0.7778 -21.3915 28.6132)" fill="#F2B450" cx="29.8" cy="44.6" rx="2.2" ry="2.2"/>
<ellipse transform="matrix(0.7778 -0.6285 0.6285 0.7778 -20.7236 31.3972)" fill="#F2B450" cx="34" cy="45" rx="2.2" ry="2.2"/>
<ellipse transform="matrix(0.7778 -0.6285 0.6285 0.7778 -18.9838 33.7921)" fill="#F2B450" cx="38.3" cy="43.7" rx="2.2" ry="2.2"/>
<ellipse transform="matrix(0.7778 -0.6285 0.6285 0.7778 -16.7621 35.6581)" fill="#F2B450" cx="42" cy="41.5" rx="2.2" ry="2.2"/>
<circle fill="#FFDB00" cx="25.6" cy="40.8" r="0.5"/>
<circle fill="#FFDB00" cx="22.6" cy="37.6" r="0.5"/>
<ellipse transform="matrix(0.7778 -0.6285 0.6285 0.7778 -13.9926 36.6193)" fill="#F2B450" cx="44.8" cy="38.1" rx="2.2" ry="2.2"/>
<circle fill="#FFDB00" cx="43.7" cy="37.6" r="0.5"/>
<circle fill="#FFDB00" cx="29.2" cy="43.7" r="0.5"/>
<circle fill="#FFDB00" cx="33.4" cy="44.2" r="0.5"/>
<circle fill="#FFDB00" cx="37.5" cy="43.2" r="0.5"/>
<circle fill="#FFDB00" cx="41.6" cy="40.8" r="0.5"/>
<g>
	<g>
		<g>
			<path fill="#1B468D" d="M128.9,183.1c0,0-0.5,2.8,0,4.4c0.5,1.6,1.9,2.8,1.9,2.8s0.5,3,3.4,5.8s6.7,4,8,4s2.3-4.1,1-6.9
				c-2.2-4.6-2.7-5.4-3.7-7.5c-0.4-0.9-1.4-2.8-1.4-2.8L128.9,183.1z"/>
			<path fill="none" stroke="#DC519D" stroke-width="0.5552" stroke-linecap="round" stroke-miterlimit="10" d="M140.3,189
				c0,0-1.9-0.8-4.1,0.7"/>
			<path fill="none" stroke="#DC519D" stroke-width="0.5552" stroke-linecap="round" stroke-miterlimit="10" d="M135.6,188.1
				c0,0,1.9-1.4,3.8-0.7"/>
			<path fill="none" stroke="#DC519D" stroke-width="0.5552" stroke-linecap="round" stroke-miterlimit="10" d="M134.8,186.6
				c0,0,2.1-1.4,4.1-0.7"/>
		</g>
		<g>
			<path fill="#1B468D" d="M120.4,183.1c0,0,0.5,2.8,0,4.4c-0.5,1.6-1.9,2.8-1.9,2.8s-0.5,3-3.4,5.8s-6.7,4-8,4
				c-1.3,0-2.3-4.1-1-6.9c2.2-4.6,2.7-5.4,3.7-7.5c0.4-0.9,1.4-2.8,1.4-2.8L120.4,183.1z"/>
			<path fill="none" stroke="#DC519D" stroke-width="0.5552" stroke-linecap="round" stroke-miterlimit="10" d="M109,189
				c0,0,1.9-0.8,4.1,0.7"/>
			<path fill="none" stroke="#DC519D" stroke-width="0.5552" stroke-linecap="round" stroke-miterlimit="10" d="M113.7,188.1
				c0,0-1.9-1.4-3.8-0.7"/>
			<path fill="none" stroke="#DC519D" stroke-width="0.5552" stroke-linecap="round" stroke-miterlimit="10" d="M114.5,186.6
				c0,0-2.1-1.4-4.1-0.7"/>
		</g>
		<polygon fill="#BABCBE" points="104.9,90.5 108.9,186 121.6,186 124.2,124.4 127.8,186 139.7,186 143.8,90.5 		"/>
		<path fill="#E69E25" d="M135.1,40.9l-10.9,11.2l-11.5-11.2c0,0,3-3.4,2.6-6.2c-0.6-3.6-1.9-6.6-1.9-6.6h21c0,0-1.6,3.4-2,6.9
			C132,37.2,135.1,40.9,135.1,40.9z"/>
		<path fill="#F2B450" d="M113.4,17.1c-1.6,1.3-2.6,3.2-2.6,5.5s1,4.2,2.6,5.5V17.1z"/>
		<path fill="#F2B450" d="M134.4,28c1.6-1.3,2.6-3.2,2.6-5.5s-1-4.2-2.6-5.5V28z"/>
		<path fill="#F2B450" d="M135.7,18.3c0-7.1-4.7-12.8-11.8-12.8s-11.8,5.7-11.8,12.8c0,1,0.1,2,0.3,2.9l0,0l1.2,8.9
			c0,0,3.4,5.6,5.4,6.9c2,1.3,4.8,1.3,4.8,1.3s2.8,0.1,4.8-1.3c2-1.3,5.4-6.9,5.4-6.9l1.2-8.9l0,0C135.5,20.3,135.7,19.3,135.7,18.3
			z"/>
		<path opacity="0.3" fill="#C94628" d="M125.4,23.1v-3.4h-2.9v3.4c-0.8,0-1.4,0.6-1.4,1.4s0.6,1.4,1.4,1.4c0.1,0,0.1,0,0.2,0h2.5
			c0.1,0,0.1,0,0.2,0c0.8,0,1.4-0.6,1.4-1.4S126.2,23.1,125.4,23.1z"/>
		<circle fill="#0F3778" cx="130.2" cy="20.4" r="1.1"/>
		<circle fill="#0F3778" cx="117.4" cy="20.4" r="1.1"/>
		<polygon fill="#F2B450" points="131.3,21.1 129.1,21.1 130.2,22.2 		"/>
		<polygon fill="#F2B450" points="118.5,21.1 116.3,21.1 117.4,22.2 		"/>
		<path fill="#534741" d="M125.4,17l-0.5,1.3c0,0,5.1-1.4,7.2-0.7c1.5,0.5,2,0.9,2,0.9l-0.7-1.5C133.5,17,130.8,15.2,125.4,17z"/>
		<path fill="#534741" d="M122.7,17l0.5,1.3c0,0-5.1-1.4-7.2-0.7c-1.5,0.5-2,0.9-2,0.9l0.7-1.5C114.6,17,117.3,15.2,122.7,17z"/>
		<g>
			<path opacity="0.3" fill="#C94628" d="M118.9,30.3c0,0,3,2.2,5.1,2.2c2.2,0,4.9-2.2,4.9-2.2l-3.4-1.4l-1.5,0.7l-1.3-0.7
				L118.9,30.3z"/>
			<path opacity="0.3" fill="#C94628" d="M124,29.6l-1.3-0.7l-3.8,1.4c0,0,3.1,0.4,5.1,0.4c2,0,4.9-0.4,4.9-0.4l-3.4-1.4L124,29.6z"
				/>
		</g>
		<path fill="#534741" d="M128.4,9.2c0,0-1.7,2.5-5.5,2.4c-3.8-0.1-11-5.7-11-5.7s3,0.1,5.6-1.4c2.6-1.5,7.2-3.1,11.5,0L128.4,9.2z"
			/>
		<path fill="#534741" d="M114,7.2l-2.9,1.9l0.9,15h0.6l0.7-9.6c0,0,1.3-6.9,10.6-6L114,7.2z"/>
		<path fill="#534741" d="M129,4.5l7.7,4.6l-0.9,15h-0.6l-0.7-9.6c0,0-1.3-6.9-10.6-6L129,4.5z"/>
		<g>
			<path fill="none" stroke="#DC519D" stroke-width="1.015" stroke-linecap="round" stroke-miterlimit="10" d="M112.9,18.5h9
				c0,0,0.1,4.4-4.5,4.4C113.2,22.9,112.9,18.5,112.9,18.5z"/>
			<path fill="none" stroke="#DC519D" stroke-width="1.015" stroke-linecap="round" stroke-miterlimit="10" d="M125.8,18.5h9
				c0,0,0.1,4.4-4.5,4.4C126.1,22.9,125.8,18.5,125.8,18.5z"/>
			
				<line fill="none" stroke="#DC519D" stroke-width="1.015" stroke-linecap="round" stroke-miterlimit="10" x1="121.8" y1="18.5" x2="126.1" y2="18.5"/>
		</g>
		<polygon fill="#BD3C82" points="137,41.8 132.4,34.7 126.6,39.1 124.1,46.7 124.1,46.7 121.1,39.1 115.3,34.7 110.8,41.8 
			115.7,51.1 115.7,101.4 132.5,101.4 132.5,50.3 		"/>
		<polygon fill="#DC519D" points="115.3,34.7 112.4,39.2 117.5,44.7 121.1,39.1 		"/>
		<polygon fill="#DC519D" points="132.4,34.7 135.2,39 130.1,44.8 126.5,39.2 		"/>
		<circle fill="#1B468D" cx="124.2" cy="50.1" r="0.8"/>
		<circle fill="#1B468D" cx="124.2" cy="58.8" r="0.8"/>
		<circle fill="#1B468D" cx="124.2" cy="67.5" r="0.8"/>
		<circle fill="#1B468D" cx="124.2" cy="76.8" r="0.8"/>
		<circle fill="#1B468D" cx="124.2" cy="86.2" r="0.8"/>
		<circle fill="#1B468D" cx="124.2" cy="95.7" r="0.8"/>
		<path fill="#1B468D" d="M113.9,37.3l-16.2,7.6l-4.2,42.3l1.6,25.4h8v4.4h18.1V75.9L113.9,37.3z"/>
		<path fill="#1B468D" d="M150.1,44.7l-15.8-7.5l-7.4,38.7V117h18.1v-4.4h8l1.6-25.4L150.1,44.7z"/>
		<path fill="#F2B450" d="M97.7,112.6c0,0,1.7,9.2,6.7,14.5c0.6,0.7,1.8,0.2,1.8-0.8l-0.4-13.7H97.7z"/>
		<path fill="#F2B450" d="M151,112.6c0,0-1.7,9.2-6.7,14.5c-0.6,0.7-1.8,0.2-1.8-0.8l0.4-13.7H151z"/>
		<polyline fill="#DC519D" points="96.4,116.3 96.4,112.6 105.7,112.6 105.9,116.3 		"/>
		<polygon fill="#DC519D" points="142.9,116.3 152.3,116.3 152.3,112.6 143,112.6 		"/>
	</g>
	<circle fill="#FFDB00" cx="135.7" cy="26.6" r="0.7"/>
	<circle fill="#FFDB00" cx="112.1" cy="26.6" r="0.7"/>
	<circle fill="#FFFFFF" cx="135.4" cy="26.4" r="0.2"/>
	<circle fill="#FFFFFF" cx="111.8" cy="26.4" r="0.2"/>
</g>
</svg>
