<?xml version="1.0" encoding="utf-8"?>
<!-- Generator: Adobe Illustrator 18.1.1, SVG Export Plug-In . SVG Version: 6.00 Build 0)  -->
<svg version="1.1" id="Layer_1" xmlns="http://www.w3.org/2000/svg" xmlns:xlink="http://www.w3.org/1999/xlink" x="0px" y="0px"
	 viewBox="0 0 161 200" enable-background="new 0 0 161 200" xml:space="preserve">
<g>
	<g>
		<path fill="#F2B450" d="M159.7,114.2c0,0-1.2,9.4-4.5,14.7c-0.4,0.7-1.2,0.2-1.2-0.8l0-13.9H159.7z"/>
		<path fill="#F2B450" d="M111.5,114.2c0,0,1.2,9.4,4.5,14.7c0.4,0.7,1.2,0.2,1.2-0.8l-0.1-13.9H111.5z"/>
		<rect x="128.5" y="24.9" fill="#E69E25" width="15.2" height="21.8"/>
		<rect x="124.8" y="121.3" fill="#1B468D" width="9.9" height="66.2"/>
		<rect x="137.3" y="121.3" fill="#1B468D" width="9.9" height="66.2"/>
		<path fill="#8BD7F8" d="M160,51.5c0-3.5-2.9-6.4-6.4-6.4l-7.2-1.8l-1.6-6.4l-8.2,4.6l-0.5,3.8l-0.4-3.9l-8.5-4.5l-1.6,6.3
			l-7.8,1.9c-3.5,0-6.4,2.9-6.4,6.4v69.9h5.9v5.9H154v-5.9h6V51.5z"/>
		<path fill="#F2B450" d="M125.8,13.1c-1.7,1.4-2.9,3.5-2.9,5.9s1.1,4.5,2.9,5.9V13.1z"/>
		<path fill="#F2B450" d="M146.4,24.9c1.7-1.4,2.9-3.5,2.9-5.9s-1.1-4.5-2.9-5.9V24.9z"/>
		<path fill="#F2B450" d="M147.8,16.4c0-0.4,0-0.6,0-0.6l0,0C147.3,7.9,144,0.6,136,0.6c-8.3,0-11.8,7.8-11.8,16.1
			c0,0-0.3,7.3,3.3,14c2.5,4.7,6.2,6.9,8.6,6.9c2.6,0,6-2.3,8.4-6.4c2.6-4.4,2.7-8.2,3.2-11.6c0.2-0.9,0.3-1.9,0.3-2.9
			C147.8,16.6,147.8,16.5,147.8,16.4z"/>
		<polygon fill="#534741" points="128.8,15 127.1,17 128.8,16.5 133.8,16.5 133.8,15 		"/>
		<polygon fill="#534741" points="143.5,15 145.2,17 143.5,16.5 138.5,16.5 138.5,15 		"/>
		<circle fill="#0F3778" cx="130.4" cy="19.4" r="0.9"/>
		<circle fill="#0F3778" cx="141.5" cy="19.4" r="0.9"/>
		<path opacity="0.3" fill="#C94628" d="M132.3,29.7c0,0,2.2-0.8,3.9,0c0,0,1.4-0.8,4,0c0,0-1.9,0.7-4,0.7S132.3,29.7,132.3,29.7z"
			/>
		<path opacity="0.3" fill="#C94628" d="M132.3,29.7c0,0,1.7,2.6,3.9,2.6c2.2,0,4-2.6,4-2.6s-2.7-0.9-4,0
			C136.2,29.7,134.5,28.8,132.3,29.7z"/>
		<polyline fill="none" stroke="#0F3778" stroke-width="0.276" stroke-miterlimit="10" points="132.7,45.9 132.7,75.2 136.2,78.6 
			139.6,75.2 139.6,45.9 		"/>
		<circle fill="#FFFFFF" cx="131" cy="46.9" r="0.5"/>
		<circle fill="#FFFFFF" cx="131" cy="49" r="0.5"/>
		<circle fill="#FFFFFF" cx="131" cy="51" r="0.5"/>
		<circle fill="#FFFFFF" cx="131" cy="53.1" r="0.5"/>
		<circle fill="#FFFFFF" cx="131" cy="55.1" r="0.5"/>
		<circle fill="#FFFFFF" cx="131" cy="57.2" r="0.5"/>
		<circle fill="#FFFFFF" cx="131" cy="59.2" r="0.5"/>
		<circle fill="#FFFFFF" cx="131" cy="61.3" r="0.5"/>
		<circle fill="#FFFFFF" cx="131" cy="63.3" r="0.5"/>
		<circle fill="#FFFFFF" cx="131" cy="65.4" r="0.5"/>
		<circle fill="#FFFFFF" cx="131" cy="67.4" r="0.5"/>
		<circle fill="#FFFFFF" cx="131" cy="69.4" r="0.5"/>
		<circle fill="#FFFFFF" cx="131" cy="71.5" r="0.5"/>
		<circle fill="#FFFFFF" cx="131" cy="73.5" r="0.5"/>
		<circle fill="#FFFFFF" cx="131" cy="75.6" r="0.5"/>
		<circle fill="#FFFFFF" cx="132.2" cy="76.9" r="0.5"/>
		<circle fill="#FFFFFF" cx="133.4" cy="78.3" r="0.5"/>
		<circle fill="#FFFFFF" cx="134.7" cy="79.7" r="0.5"/>
		<circle fill="#FFFFFF" cx="141" cy="46.9" r="0.5"/>
		<circle fill="#FFFFFF" cx="141" cy="49" r="0.5"/>
		<circle fill="#FFFFFF" cx="141" cy="51" r="0.5"/>
		<circle fill="#FFFFFF" cx="141" cy="53.1" r="0.5"/>
		<circle fill="#FFFFFF" cx="141" cy="55.1" r="0.5"/>
		<circle fill="#FFFFFF" cx="141" cy="57.2" r="0.5"/>
		<circle fill="#FFFFFF" cx="141" cy="59.2" r="0.5"/>
		<circle fill="#FFFFFF" cx="141" cy="61.3" r="0.5"/>
		<circle fill="#FFFFFF" cx="141" cy="63.3" r="0.5"/>
		<circle fill="#FFFFFF" cx="141" cy="65.4" r="0.5"/>
		<circle fill="#FFFFFF" cx="141" cy="67.4" r="0.5"/>
		<circle fill="#FFFFFF" cx="141" cy="69.4" r="0.5"/>
		<circle fill="#FFFFFF" cx="141" cy="71.5" r="0.5"/>
		<circle fill="#FFFFFF" cx="141" cy="73.5" r="0.5"/>
		<circle fill="#FFFFFF" cx="141" cy="75.6" r="0.5"/>
		<circle fill="#FFFFFF" cx="139.8" cy="76.9" r="0.5"/>
		<circle fill="#FFFFFF" cx="138.5" cy="78.3" r="0.5"/>
		<circle fill="#FFFFFF" cx="137.3" cy="79.7" r="0.5"/>
		<circle fill="#FFFFFF" cx="135.9" cy="81" r="0.5"/>
		<g>
			<circle fill="#FFFFFF" cx="117.3" cy="119" r="0.5"/>
			<circle fill="#FFFFFF" cx="115.3" cy="119" r="0.5"/>
			<circle fill="#FFFFFF" cx="113.3" cy="119" r="0.5"/>
			<path fill="#FFFFFF" d="M111.3,118.6v0.9c0.2,0,0.3-0.2,0.3-0.4C111.7,118.8,111.5,118.7,111.3,118.6z"/>
		</g>
		<g>
			<circle fill="#FFFFFF" cx="154" cy="119" r="0.5"/>
			<circle fill="#FFFFFF" cx="156" cy="119" r="0.5"/>
			<circle fill="#FFFFFF" cx="158.1" cy="119" r="0.5"/>
			<path fill="#FFFFFF" d="M160,119.5v-0.9c-0.2,0-0.3,0.2-0.3,0.4C159.7,119.3,159.8,119.4,160,119.5z"/>
		</g>
		<line fill="none" stroke="#0F3778" stroke-width="0.2476" stroke-miterlimit="10" x1="111.3" y1="117.6" x2="117.8" y2="117.6"/>
		<line fill="none" stroke="#0F3778" stroke-width="0.2476" stroke-miterlimit="10" x1="153.5" y1="117.6" x2="160.1" y2="117.6"/>
		<g>
			<path d="M134.6,187.6c0,0,1.5,9.6-4.1,11.2c-3.2,0.9-6.1-6-6.2-7.7s0.4-3.4,0.4-3.4H134.6z"/>
			<path fill="none" stroke="#FFFFFF" stroke-width="0.5521" stroke-linecap="round" stroke-miterlimit="10" d="M127.8,192.3
				c0,0,1.9-0.8,4.2,0"/>
			<path fill="none" stroke="#FFFFFF" stroke-width="0.5521" stroke-linecap="round" stroke-miterlimit="10" d="M127.8,190.6
				c0,0,1.9-0.8,4.2,0"/>
			<path fill="none" stroke="#FFFFFF" stroke-width="0.5521" stroke-linecap="round" stroke-miterlimit="10" d="M127.8,188.9
				c0,0,1.9-0.8,4.2,0"/>
		</g>
		<g>
			<path d="M137.3,187.6c0,0-1.5,9.6,4.1,11.2c3.2,0.9,6.1-6,6.2-7.7c0.1-1.7-0.4-3.4-0.4-3.4H137.3z"/>
			<path fill="none" stroke="#FFFFFF" stroke-width="0.5521" stroke-linecap="round" stroke-miterlimit="10" d="M144.2,192.3
				c0,0-1.9-0.8-4.2,0"/>
			<path fill="none" stroke="#FFFFFF" stroke-width="0.5521" stroke-linecap="round" stroke-miterlimit="10" d="M144.2,190.6
				c0,0-1.9-0.8-4.2,0"/>
			<path fill="none" stroke="#FFFFFF" stroke-width="0.5521" stroke-linecap="round" stroke-miterlimit="10" d="M144.2,188.9
				c0,0-1.9-0.8-4.2,0"/>
		</g>
		<path opacity="0.3" fill="#C94628" d="M137.6,23.6V17h-2.9v6.6c-0.8,0-1.5,0.7-1.5,1.5s0.7,1.5,1.5,1.5c0.1,0,0.1,0,0.2,0h2.5
			c0.1,0,0.1,0,0.2,0c0.8,0,1.5-0.7,1.5-1.5S138.4,23.6,137.6,23.6z"/>
	</g>
	<circle fill="#FFDB00" cx="44.9" cy="24.6" r="0.7"/>
	<circle fill="#FFDB00" cx="20.9" cy="24.6" r="0.7"/>
	<circle fill="#FFFFFF" cx="44.6" cy="24.3" r="0.2"/>
	<circle fill="#FFFFFF" cx="20.6" cy="24.3" r="0.2"/>
	<g>
		<polygon fill="#FBD0C6" points="20.4,27 22.7,40.1 13.9,47.1 34,83.8 51.3,47.1 44.4,40.1 45.5,26.2 		"/>
		<path fill="#FFF57C" d="M42.6,122.8h12l-2.2-24L53.2,73l4.3,25.7l8.7,0.3l0.7-11c0.2-1.6,0.1-3.2-0.1-4.7l-2.3-23.9
			c-0.9-6.6-5.2-12.3-11.3-15.1l-8.8-4l-1.8-4.3l-9,22.5l-9.8-22.5l-1,4.3l-8.8,4C7.7,47,3.5,52.7,2.5,59.3L0.2,83.2
			c-0.2,1.6-0.3,3.2-0.1,4.7l0.7,10.9h8.6l4.5-25.7l1.6,25.7l-1,24h15"/>
		<path fill="#FCE0D9" d="M47.8,18.7c0-0.4,0-0.6,0-0.6l0,0c-0.5-7.5-6.7-13.5-14.3-13.5C25.5,4.6,19,11,19,19
			C19,19,18.9,38,33.4,38C44,38,46.8,27.4,47.5,21.7c0.2-0.9,0.3-1.8,0.3-2.7C47.8,18.9,47.8,18.8,47.8,18.7z"/>
		<path fill="#534741" d="M38,9.2c0,0-2.6,5.3-10.4,8.7c-5.6,2.4-8.5,2.7-8.5,2.7s0.7,8.6,4.9,13.4c0,0-0.5,1.7-0.2,3.3
			c0.3,1.4,1.1,2.9,1.1,2.9h-5.7c0,0-10.9-11.6-4.8-27.3C18.8,1.5,28.4,0,33.5,0s11.9,2.3,16.1,10.2s-1.1,20.2,0,25.2
			c0.5,2.4,1.2,4.7,1.2,4.7h-6.4l-2.3-5.4c0,0,3.5-3.4,4.5-12.1C47.4,16,38,9.2,38,9.2z"/>
		<path fill="#534741" d="M35.6,18.6l0-1.1c0,0,1.6-1.1,4.6-0.7c3,0.4,3.7,2.2,3.7,2.2s-1.1-1-4.3-1.1
			C36.7,17.7,35.6,18.6,35.6,18.6z"/>
		<path fill="#534741" d="M30.9,18.7l0.1-1.1c0,0-1.6-1.1-4.6-0.7S22.7,19,22.7,19s0.8-0.9,4-1C29.5,17.8,30.9,18.7,30.9,18.7z"/>
		<circle fill="#00A79B" cx="26.7" cy="20.8" r="1.1"/>
		<polygon fill="#FCE0D9" points="25,21.3 28.4,21.3 26.7,22.9 		"/>
		<circle fill="#00A79B" cx="39.3" cy="20.8" r="1.1"/>
		<polygon fill="#FCE0D9" points="37.6,21.3 41,21.3 39.3,22.9 		"/>
		<path fill="#FCE0D9" d="M18,20.8c0,0-0.1,0.7-0.1,1.1c0,1.8,0.9,3.4,2.2,4.4v-5.9C20.1,20.4,18.7,20.6,18,20.8z"/>
		<path fill="#FCE0D9" d="M45.5,26.2c1.4-1,2.2-2.6,2.2-4.4s-0.9-3.4-2.2-4.4V26.2z"/>
		<path opacity="0.25" fill="#F26342" d="M35.6,26c0-0.5-0.4-1-1-1l-0.8-5h-1.3l-0.7,5c-0.5,0-1,0.5-1,1c0,0.6,0.4,1,1,1
			c0.3,0.5,0.8,0.8,1.4,0.8c0.6,0,1.1-0.3,1.4-0.8C35.2,27,35.6,26.6,35.6,26z"/>
		<path opacity="0.5" fill="#C94628" d="M27.8,30.3l4.1-0.3l1.4,0.3l1.3-0.3l3.9,0.6c0,0-3,0.5-5.2,0.5S27.8,30.3,27.8,30.3z"/>
		<path opacity="0.5" fill="#F26342" d="M27.8,30.3c0,0,2.1,2.5,5.3,2.5s5.3-2.2,5.3-2.2L34.6,30l-1.3,0.3L31.9,30L27.8,30.3z"/>
		<path fill="#FBD0C6" d="M15.2,101.4c0,0-1.5,14.6,0.4,23.3s7.3,60,7.3,60h9.7l-1.4-83.3L15.2,101.4z"/>
		<path fill="#FBD0C6" d="M52.7,101.4c0,0,2.6,14.6,0.6,23.3c-1.9,8.8-6.6,60.4-6.6,60.4H37l0.6-83.7L52.7,101.4z"/>
		<path fill="#FBD0C6" d="M0.8,98.8c0,0,1.6,7.6,3.5,15.4c1.7,6.8,3.6,13.6,4.9,15.4c2.9,3.7,2.6,1.2,2.6,1.2L9.4,98.8H0.8z"/>
		<path fill="#FBD0C6" d="M66.3,98.7c0,0-1.1,8.4-2.6,16.4c-1.2,6.5-2.6,12.7-3.9,14.4c-2.9,3.7-2.6,1.2-2.6,1.2l0.5-32.1H66.3z"/>
		<path d="M29.8,60.3"/>
		<g>
			<path fill="#CACACA" d="M22.9,184.7c0,0-2,3.5-1,7.9c1,4.4,4.1,7.9,5.9,7.9c1.8,0,7.7-2.4,4.8-15.8"/>
			<path fill="none" stroke="#000000" stroke-width="0.7305" stroke-linecap="round" stroke-miterlimit="10" d="M25.1,191.3
				c0,0,2.5-2,5.4,0"/>
			<path fill="none" stroke="#000000" stroke-width="0.7305" stroke-linecap="round" stroke-miterlimit="10" d="M25.1,189.5
				c0,0,2.5-2,5.4,0"/>
			<path fill="none" stroke="#000000" stroke-width="0.7305" stroke-linecap="round" stroke-miterlimit="10" d="M25.1,187.6
				c0,0,2.5-2,5.4,0"/>
		</g>
		<g>
			<path fill="#CACACA" d="M46.7,184.7c0,0,2,3.5,1,7.9c-1,4.4-4.1,7.9-5.9,7.9s-7.7-2.4-4.8-15.8"/>
			<path fill="none" stroke="#000000" stroke-width="0.7305" stroke-linecap="round" stroke-miterlimit="10" d="M44.5,191.3
				c0,0-2.5-2-5.4,0"/>
			<path fill="none" stroke="#000000" stroke-width="0.7305" stroke-linecap="round" stroke-miterlimit="10" d="M44.5,189.5
				c0,0-2.5-2-5.4,0"/>
			<path fill="none" stroke="#000000" stroke-width="0.7305" stroke-linecap="round" stroke-miterlimit="10" d="M44.5,187.6
				c0,0-2.5-2-5.4,0"/>
		</g>
		<path fill="#E8BD6F" d="M15.4,98.8c0,0-4.1,8.1-4.5,20.7c-0.2,6,3.1,33.9,5.2,40.6l36.9-0.4c1.8-6.2,5-34.6,4.2-42
			c-1.5-12.9-4.8-18.8-4.8-18.8L15.4,98.8z"/>
	</g>
	<polygon fill="#FFFFFF" points="22.7,40.1 20.9,46.8 25.6,45.5 33.5,58.4 41,45.5 45.5,46.8 44.4,40.1 42.5,35.8 33.5,56.7 
		23.7,35.8 	"/>
	<circle fill="#CACACA" cx="33.5" cy="67.6" r="2.1"/>
	<polyline fill="none" stroke="#CACACA" stroke-width="0.5079" stroke-miterlimit="10" points="25,45.7 33.5,65.5 41.7,45.7 	"/>
	<path fill="#FFFFFF" d="M34.7,66.4c0.1,0.2,0.2,0.5,0.2,0.8c0,0.9-0.7,1.7-1.7,1.7c-0.4,0-0.9-0.2-1.2-0.5c0.3,0.5,0.8,0.9,1.5,0.9
		c0.9,0,1.7-0.7,1.7-1.7C35.2,67.1,35,66.7,34.7,66.4z"/>
</g>
</svg>
