<?xml version="1.0" encoding="utf-8"?>
<!-- Generator: Adobe Illustrator 18.1.1, SVG Export Plug-In . SVG Version: 6.00 Build 0)  -->
<svg version="1.1" id="Layer_1" xmlns="http://www.w3.org/2000/svg" xmlns:xlink="http://www.w3.org/1999/xlink" x="0px" y="0px"
	 viewBox="0 0 66 30" enable-background="new 0 0 66 30" xml:space="preserve">
<g>
	<g opacity="0.25">
		<g>
			<g>
				<g>
					<path d="M29.2,4.3l-0.5-0.2c-0.1-0.4,0-0.9,0.2-1.4c0.5-0.8,1.5-1.5,2.6-1.8C32.9,0.6,33.4,0,33.4,0L34,0c0,0,0.6,0.6,1.9,0.9
						c1.1,0.2,2.3,1.1,2.7,2c0.2,0.4,0.2,0.8,0.1,1.2l-0.5,0.2C35.4,3.1,32,3.1,29.2,4.3z M33.7,2.7c1.5,0,2.9,0.2,4.3,0.7
						c0-0.1,0-0.1-0.1-0.2c-0.3-0.7-1.3-1.4-2.2-1.6c-1-0.2-1.7-0.6-2-0.9c-0.3,0.3-1,0.7-2,0.9c-0.8,0.2-1.7,0.8-2.1,1.4
						c-0.1,0.1-0.1,0.2-0.2,0.4C30.8,2.9,32.2,2.7,33.7,2.7z"/>
				</g>
			</g>
			<g>
				<g>
					<path d="M22.5,10.8c-0.4-0.2-0.7-0.6-0.8-1.1c-0.2-0.9,0-2.2,0.6-3.1c0.7-1.2,0.7-2,0.7-2l0.4-0.4c0,0,0,0,0,0
						c0.2,0,0.9,0,2-0.7c0.6-0.4,1.5-0.6,2.3-0.6c1,0,1.7,0.3,1.9,0.9l-0.2,0.5c-1.4,0.6-2.7,1.4-3.8,2.5c-1.1,1.1-2,2.4-2.5,3.8
						L22.5,10.8z M23.6,4.9c-0.1,0.4-0.2,1.2-0.8,2.1c-0.5,0.7-0.7,1.8-0.5,2.5c0,0.1,0.1,0.3,0.1,0.4c0.6-1.3,1.4-2.5,2.5-3.5
						c1.1-1.1,2.3-1.9,3.6-2.5c-0.6-0.3-2.1-0.2-2.9,0.3C24.8,4.7,24,4.9,23.6,4.9z"/>
				</g>
			</g>
			<g>
				<g>
					<path d="M22.4,20C22.4,20,22.4,20,22.4,20c-1.2,0-2.4-1.5-2.7-2.8c-0.3-1.3-0.9-1.9-0.9-1.9l0-0.6c0,0,0.6-0.6,0.9-1.9
						c0.3-1.3,1.6-2.9,2.7-2.9c0.2,0,0.3,0,0.5,0.1l0.2,0.5c-0.6,1.4-0.9,2.9-0.9,4.5c0,1.6,0.3,3.1,0.9,4.5L22.8,20
						C22.6,20,22.5,20,22.4,20z M19.5,15c0.3,0.3,0.7,1,0.9,2c0.2,1.1,1.1,2.1,1.8,2.2c-0.5-1.3-0.7-2.8-0.7-4.3
						c0-1.5,0.2-2.9,0.7-4.3c-0.7,0.2-1.6,1.3-1.8,2.3C20.1,14,19.7,14.7,19.5,15z"/>
				</g>
			</g>
			<g>
				<g>
					<path d="M27.6,27.1L27.6,27.1c-0.8,0-1.6-0.2-2.3-0.7c-1.1-0.7-1.8-0.7-2-0.7l-0.4-0.4c0,0,0-0.8-0.7-2
						c-0.6-0.9-0.8-2.4-0.5-3.3c0.2-0.4,0.4-0.8,0.8-0.9l0.5,0.2c0.6,1.4,1.4,2.7,2.5,3.8c1.1,1.1,2.4,2,3.8,2.5l0.2,0.5
						C29.2,26.8,28.5,27.1,27.6,27.1z M23.6,25.1c0.5,0.1,1.2,0.2,2.1,0.8c0.5,0.3,1.3,0.5,1.9,0.5l0,0c0.3,0,0.7,0,1-0.2
						c-1.3-0.6-2.5-1.4-3.5-2.5c-1.1-1.1-1.9-2.3-2.5-3.5c0,0.1-0.1,0.1-0.1,0.2c-0.2,0.7-0.1,2,0.4,2.7
						C23.4,23.9,23.6,24.7,23.6,25.1z"/>
				</g>
			</g>
			<g>
				<g>
					<path d="M33.4,30c0,0-0.6-0.6-1.9-0.9c-1.1-0.2-2.3-1.1-2.7-2c-0.2-0.4-0.2-0.8-0.1-1.2l0.5-0.2c2.8,1.2,6.2,1.1,8.9,0l0.5,0.2
						c0.1,0.4,0,0.9-0.2,1.4c-0.5,0.8-1.5,1.5-2.6,1.8C34.5,29.4,34,30,34,30L33.4,30L33.4,30z M29.4,26.6c0,0.1,0,0.1,0.1,0.2
						c0.3,0.7,1.3,1.4,2.2,1.6c1,0.2,1.7,0.6,2,0.9c0.3-0.3,1-0.7,2-0.9c0.8-0.2,1.7-0.8,2.1-1.4c0.1-0.1,0.1-0.2,0.2-0.4
						C35.3,27.6,32.1,27.5,29.4,26.6z"/>
				</g>
			</g>
			<g>
				<g>
					<path d="M39.8,27.1c-1,0-1.7-0.3-1.9-0.9l0.2-0.5c1.4-0.6,2.7-1.4,3.8-2.5c1.1-1.1,2-2.4,2.5-3.8l0.5-0.2
						c0.4,0.2,0.7,0.6,0.8,1.1c0.2,0.9,0,2.2-0.6,3.1c-0.7,1.2-0.7,2-0.7,2l-0.4,0.4c0,0,0,0,0,0c-0.2,0-0.9,0-2,0.7
						C41.5,26.9,40.6,27.1,39.8,27.1z M38.9,26.2c0.6,0.3,2.1,0.2,2.9-0.3c0.9-0.6,1.6-0.7,2.1-0.8c0-0.4,0.2-1.2,0.8-2.1
						c0.5-0.7,0.7-1.8,0.5-2.5c0-0.1-0.1-0.3-0.1-0.4c-0.6,1.3-1.4,2.5-2.5,3.5C41.4,24.8,40.2,25.6,38.9,26.2z"/>
				</g>
			</g>
			<g>
				<g>
					<path d="M45.1,20L45.1,20c-0.2,0-0.3,0-0.5-0.1l-0.2-0.5c0.6-1.4,0.9-2.9,0.9-4.5c0-1.6-0.3-3.1-0.9-4.5l0.2-0.5
						c0.1,0,0.3-0.1,0.4-0.1c1.2,0,2.4,1.5,2.7,2.8c0.3,1.3,0.9,1.9,0.9,1.9l0,0.6c0,0-0.6,0.6-0.9,1.9C47.5,18.5,46.2,20,45.1,20z
						 M45.3,10.7c0.5,1.3,0.7,2.8,0.7,4.3c0,1.5-0.2,2.9-0.7,4.3c0.7-0.2,1.6-1.3,1.8-2.3c0.2-1,0.6-1.7,0.9-2c-0.3-0.3-0.7-1-0.9-2
						C46.8,11.9,46,10.9,45.3,10.7z"/>
				</g>
			</g>
			<g>
				<g>
					<path d="M44.9,10.8l-0.5-0.2c-0.6-1.4-1.4-2.7-2.5-3.8c-1.1-1.1-2.4-2-3.8-2.5l-0.2-0.5c0.3-0.6,1-0.9,1.9-0.9
						c0.8,0,1.6,0.2,2.3,0.7c1.1,0.7,1.8,0.7,2,0.7l0.4,0.4c0,0,0,0.8,0.7,2C45.8,7.5,46,9,45.7,9.9C45.5,10.4,45.3,10.7,44.9,10.8z
						 M38.9,3.8c1.3,0.6,2.5,1.4,3.5,2.5c1.1,1.1,1.9,2.3,2.5,3.5C45,9.8,45,9.7,45,9.7c0.2-0.7,0.1-2-0.4-2.7
						c-0.6-0.9-0.7-1.6-0.8-2.1c-0.5-0.1-1.2-0.2-2.1-0.8c-0.5-0.3-1.3-0.5-1.9-0.5C39.6,3.6,39.2,3.6,38.9,3.8z"/>
				</g>
			</g>
		</g>
		<g>
			<g>
				<path d="M33.4,27.1l-3.3-5.8h-6.7l-0.3-0.6l3.4-5.8l-3.4-5.8l0.3-0.6h6.7l3.3-5.8h0.6l3.3,5.8h6.7l0.3,0.6L41.1,15l3.4,5.8
					l-0.3,0.6h-6.7l-3.3,5.8H33.4z M24,20.6h6.3l0.3,0.2l3.1,5.4l3.1-5.4l0.3-0.2h6.3l-3.1-5.4v-0.4l3.1-5.4h-6.3l-0.3-0.2l-3.1-5.4
					l-3.1,5.4l-0.3,0.2H24l3.1,5.4v0.4L24,20.6z"/>
			</g>
		</g>
		<g>
			<g>
				<path d="M33.4,27.1l-3.4-6l0.3-0.6h6.9l0.3,0.6l-3.4,6H33.4z M30.9,21.4l2.8,4.9l2.8-4.9H30.9z"/>
			</g>
			<g>
				<path d="M26.5,15.2l-3.5-6l0.3-0.6h6.9l0.3,0.6l-3.5,6H26.5z M24,9.4l2.8,4.9l2.8-4.9H24z"/>
			</g>
			<g>
				<path d="M40.3,15.2l-3.5-6l0.3-0.6h6.9l0.3,0.6l-3.5,6H40.3z M37.8,9.4l2.8,4.9l2.8-4.9H37.8z"/>
			</g>
			<g>
				<path d="M37.2,9.4h-6.9L30,8.8l3.4-6h0.6l3.4,6L37.2,9.4z M30.9,8.6h5.6l-2.8-4.9L30.9,8.6z"/>
			</g>
			<g>
				<path d="M44.1,21.4h-6.9l-0.3-0.6l3.5-6H41l3.5,6L44.1,21.4z M37.8,20.6h5.6l-2.8-4.9L37.8,20.6z"/>
			</g>
			<g>
				<path d="M30.3,21.4l-6.9,0l-0.3-0.6l3.5-6h0.6l3.5,6L30.3,21.4z M24,20.6l5.6,0l-2.8-4.9L24,20.6z"/>
			</g>
			<g>
				<path d="M37.2,21.4h-6.9L30,21.2l-3.5-6v-0.4l3.5-6l0.3-0.2h6.9l0.3,0.2l3.5,6v0.4l-3.5,6L37.2,21.4z M30.5,20.6H37l3.2-5.6
					L37,9.4h-6.5L27.3,15L30.5,20.6z"/>
			</g>
		</g>
		<g>
			<g>
				<path d="M30.6,15.2h-0.6l-1.7-3l0.3-0.6H32l0.3,0.6L30.6,15.2z M29.1,12.4l1.1,1.9l1.1-1.9H29.1z"/>
			</g>
			<g>
				<path d="M37.5,15.2h-0.6l-1.7-3l0.3-0.6h3.5l0.3,0.6L37.5,15.2z M36.1,12.4l1.1,1.9l1.1-1.9H36.1z"/>
			</g>
			<g>
				<path d="M34,21.2h-0.6l-1.7-3l0.3-0.6h3.5l0.3,0.6L34,21.2z M32.6,18.4l1.1,1.9l1.1-1.9H32.6z"/>
			</g>
			<g>
				<path d="M32,18.4h-3.5l-0.3-0.6l1.7-3h0.6l1.7,3L32,18.4z M29.1,17.6h2.2l-1.1-1.9L29.1,17.6z"/>
			</g>
			<g>
				<path d="M38.9,18.4h-3.5l-0.3-0.6l1.7-3h0.6l1.7,3L38.9,18.4z M36.1,17.6h2.2l-1.1-1.9L36.1,17.6z"/>
			</g>
			<g>
				<path d="M35.4,12.4H32l-0.3-0.6l1.7-3H34l1.7,3L35.4,12.4z M32.6,11.6h2.2l-1.1-1.9L32.6,11.6z"/>
			</g>
		</g>
		<g>
			<circle cx="33.7" cy="15" r="0.3"/>
		</g>
	</g>
	<g>
		<circle fill="#CACACA" cx="2.2" cy="14.7" r="2.2"/>
	</g>
	<g>
		<circle fill="#CACACA" cx="63.8" cy="14.7" r="2.2"/>
	</g>
</g>
</svg>
