<svg xmlns="http://www.w3.org/2000/svg" viewBox="0 0 309.06 197"><defs><style>.cls-1{isolation:isolate;}.cls-2{fill:#e79a4d;}.cls-3{fill:#231f20;}.cls-4,.cls-5{fill:#d17730;opacity:0.3;}.cls-4{mix-blend-mode:screen;}.cls-10,.cls-12,.cls-15,.cls-5,.cls-8,.cls-9{mix-blend-mode:multiply;}.cls-6{fill:#54372a;}.cls-7{fill:#ffdb00;}.cls-8,.cls-9{fill:#9973b4;}.cls-16,.cls-9{opacity:0.5;}.cls-10,.cls-14,.cls-16,.cls-17{fill:#f2623a;}.cls-11{fill:#f9d6ba;}.cls-12{fill:#86d5f8;}.cls-13,.cls-15{fill:#b48257;}.cls-14{opacity:0.25;}.cls-18{fill:#a68169;}</style></defs><title>faces-frowning</title><g class="cls-1"><g id="text_images" data-name="text/images"><path class="cls-2" d="M4014.5,10328.84a36.24,36.24,0,0,0-5.51-19.25l-1.09-23.24c-4.49-38.07-36.62-57.44-58.95-57.44-22.5,0-54.46,19.37-58.95,57.44l-1.11,23.61a36.21,36.21,0,0,0-5.2,16.78,25.14,25.14,0,0,0,2.06,14.36,36.47,36.47,0,0,0,10.7,15.46c1.57,6.3,5.13,19.24,13.44,27.83,20.63,21.32,28.76,24.37,39,24.37H3949c10.26,0,18.39-3.05,39-24.37,8.21-8.49,11.78-21.25,13.38-27.58a36.43,36.43,0,0,0,11.81-18.36,25.08,25.08,0,0,0,1.27-8.78C4014.48,10329.39,4014.5,10329.12,4014.5,10328.84Z" transform="translate(-3883.41 -10218.42)"/><path class="cls-3" d="M3961.24,10298.16l-1,4.54s16.73-1.94,24.89.29c5.57,1.52,10.73,6,10.73,6s-4-6.23-7.5-8.19C3977.3,10294.56,3961.24,10298.16,3961.24,10298.16Z" transform="translate(-3883.41 -10218.42)"/><path class="cls-3" d="M3936.53,10298.16l1,4.54s-16.73-1.94-24.89.29c-5.57,1.52-10.73,6-10.73,6s4-6.23,7.5-8.19C3920.47,10294.56,3936.53,10298.16,3936.53,10298.16Z" transform="translate(-3883.41 -10218.42)"/><circle class="cls-4" cx="31.09" cy="121.2" r="12.86"/><circle class="cls-4" cx="100.01" cy="121.2" r="12.86"/><polygon class="cls-5" points="75.08 135.57 55.87 135.57 62.31 97.48 68.64 97.48 75.08 135.57"/><circle class="cls-5" cx="55.87" cy="130.43" r="5.14"/><circle class="cls-5" cx="75.08" cy="130.43" r="5.14"/><circle class="cls-6" cx="38.39" cy="98.26" r="5.52"/><circle class="cls-6" cx="92.56" cy="98.26" r="5.52"/><circle class="cls-7" cx="6.59" cy="128.35" r="4.49"/><circle class="cls-7" cx="123.62" cy="128.35" r="4.49"/><polygon class="cls-8" points="71.89 149.32 65.52 150.95 59.15 149.32 42.55 156.34 65.52 156.81 88.49 156.34 71.89 149.32"/><path class="cls-9" d="M3948.93,10382.36c11.28,0,22.92-7.6,22.92-7.6l-22.95.47-22.95-.47s11.46,7.6,22.92,7.6h0Z" transform="translate(-3883.41 -10218.42)"/><circle class="cls-10" cx="65.52" cy="78.33" r="2.36"/><polygon class="cls-2" points="86.11 94.13 99.35 94.13 92.73 87.81 86.11 94.13"/><polygon class="cls-2" points="31.9 94.13 45.15 94.13 38.53 87.81 31.9 94.13"/><circle class="cls-7" cx="51.47" cy="127.03" r="1.46"/><path class="cls-11" d="M4192.47,10332.88a34.37,34.37,0,0,0-7.25-21.16V10294l-0.1-.1a67.65,67.65,0,0,0-67.59-66.69h0a67.65,67.65,0,0,0-67.64,66.77l0,0v16.33a34.49,34.49,0,0,0,1.08,46.26c1.49,7,2,15.79,8.85,24.52,13.09,16.7,42.88,34.3,42.88,34.3h29.79s29.79-17.6,42.88-34.3c7.38-9.41,7.84-18.9,9.17-26.13A34.38,34.38,0,0,0,4192.47,10332.88Z" transform="translate(-3883.41 -10218.42)"/><circle class="cls-12" cx="205.76" cy="101.55" r="5.65"/><circle class="cls-12" cx="262.45" cy="101.55" r="5.65"/><polygon class="cls-13" points="221.67 76.24 221.67 82.33 195.26 87.33 184.43 95.89 193.23 81.24 221.67 76.24"/><polygon class="cls-13" points="246.54 76.24 246.54 82.33 272.95 87.33 283.78 95.89 274.98 81.24 246.54 76.24"/><path class="cls-13" d="M4049.82,10342.4h6.09v-46.8s31.9-47.23,31.9-64.23h-9.31c-12.1,0-28.69,16.58-28.69,28.69v82.34Z" transform="translate(-3883.41 -10218.42)"/><path class="cls-13" d="M4185.47,10342.4h-6.09v-46.8s-31.9-47.23-31.9-64.23h9.31c12.1,0,28.69,16.58,28.69,28.69v82.34Z" transform="translate(-3883.41 -10218.42)"/><path class="cls-13" d="M4157,10231.36s-9.74-12.94-34-12.94c-24.71,0-25.55,10.83-51,4.06,0,0,9,43.13,43.88,43.13S4157,10231.36,4157,10231.36Z" transform="translate(-3883.41 -10218.42)"/><circle class="cls-14" cx="199.27" cy="128.55" r="13.25"/><circle class="cls-14" cx="268.1" cy="128.55" r="13.25"/><path class="cls-14" d="M4117.52,10341.85a13.25,13.25,0,0,0-13.25,13.25h26.49A13.25,13.25,0,0,0,4117.52,10341.85Z" transform="translate(-3883.41 -10218.42)"/><polygon class="cls-15" points="227.74 163.83 234.11 169.02 240.47 163.83 227.74 163.83"/><polygon class="cls-16" points="234.11 155.7 234.11 155.7 209.15 158.7 223.68 163.83 244.53 163.83 259.06 158.7 234.11 155.7"/><polygon class="cls-17" points="241.13 151.98 234.04 153.01 227.08 151.98 209.15 158.7 234.11 157.44 259.06 158.7 241.13 151.98"/><rect class="cls-14" x="227.97" y="98.22" width="12.27" height="32.77"/><polygon class="cls-11" points="212.52 104.55 199.27 104.55 205.9 110.87 212.52 104.55"/><polygon class="cls-11" points="269.08 104.55 255.83 104.55 262.45 110.87 269.08 104.55"/><circle class="cls-18" cx="194.41" cy="107.94" r="1.46"/></g></g></svg>