<svg xmlns="http://www.w3.org/2000/svg" viewBox="0 0 309.06 197"><defs><style>.cls-1{isolation:isolate;}.cls-2{fill:#e79a4d;}.cls-3{fill:#231f20;}.cls-4,.cls-5{fill:#d17730;opacity:0.3;}.cls-4{mix-blend-mode:screen;}.cls-10,.cls-12,.cls-15,.cls-5,.cls-8,.cls-9{mix-blend-mode:multiply;}.cls-6{fill:#54372a;}.cls-7{fill:#ffdb00;}.cls-8,.cls-9{fill:#9973b4;}.cls-16,.cls-9{opacity:0.5;}.cls-10,.cls-14,.cls-16,.cls-17{fill:#f2623a;}.cls-11{fill:#f9d6ba;}.cls-12{fill:#86d5f8;}.cls-13,.cls-15{fill:#b48257;}.cls-14{opacity:0.25;}.cls-18{fill:#a68169;}</style></defs><title>faces-smiling</title><g class="cls-1"><g id="text_images" data-name="text/images"><path class="cls-2" d="M4393.45,10320.41a36.24,36.24,0,0,0-5.51-19.25l-1.09-23.24c-4.49-38.07-36.62-57.44-58.95-57.44-22.5,0-54.46,19.37-58.95,57.44l-1.11,23.61a36.21,36.21,0,0,0-5.2,16.78,25.14,25.14,0,0,0,2.06,14.36,36.47,36.47,0,0,0,10.7,15.46c1.57,6.3,5.13,19.24,13.44,27.83,20.63,21.32,28.76,24.37,39,24.37h0.09c10.26,0,18.39-3.05,39-24.37,8.21-8.49,11.78-21.25,13.38-27.58a36.43,36.43,0,0,0,11.81-18.36,25.08,25.08,0,0,0,1.27-8.78C4393.44,10321,4393.45,10320.69,4393.45,10320.41Z" transform="translate(-4262.36 -10210)"/><path class="cls-3" d="M4340.19,10294.73l-1,4.54s16.73-6.94,24.89-4.71c5.57,1.52,10.73,6,10.73,6s-4-6.23-7.5-8.19C4356.25,10286.14,4340.19,10294.73,4340.19,10294.73Z" transform="translate(-4262.36 -10210)"/><path class="cls-3" d="M4315.48,10294.73l1,4.54s-16.73-6.94-24.89-4.71c-5.57,1.52-10.73,6-10.73,6s4-6.23,7.5-8.19C4299.42,10286.14,4315.48,10294.73,4315.48,10294.73Z" transform="translate(-4262.36 -10210)"/><circle class="cls-4" cx="31.09" cy="121.2" r="12.86"/><circle class="cls-4" cx="100.01" cy="121.2" r="12.86"/><polygon class="cls-5" points="75.08 135.57 55.87 135.57 62.31 97.48 68.64 97.48 75.08 135.57"/><circle class="cls-5" cx="55.87" cy="130.43" r="5.14"/><circle class="cls-5" cx="75.08" cy="130.43" r="5.14"/><circle class="cls-6" cx="38.39" cy="98.26" r="5.52"/><circle class="cls-6" cx="92.56" cy="98.26" r="5.52"/><circle class="cls-7" cx="6.59" cy="128.35" r="4.49"/><circle class="cls-7" cx="123.62" cy="128.35" r="4.49"/><path class="cls-8" d="M4334.25,10359.32l-6.37,1.63-6.37-1.63-18.6,1s20.54,6.47,25,6.47,25-6.47,25-6.47Z" transform="translate(-4262.36 -10210)"/><path class="cls-9" d="M4327.88,10373.94c11.28,0,24.92-13.6,24.92-13.6s-20.45,6.47-24.95,6.47-24.95-6.47-24.95-6.47,13.46,13.6,24.92,13.6h0Z" transform="translate(-4262.36 -10210)"/><circle class="cls-10" cx="65.52" cy="81.33" r="2.36"/><polygon class="cls-2" points="86.11 94.13 99.35 94.13 92.73 87.81 86.11 94.13"/><polygon class="cls-2" points="31.9 94.13 45.15 94.13 38.53 87.81 31.9 94.13"/><circle class="cls-7" cx="51.47" cy="127.03" r="1.46"/><path class="cls-11" d="M4571.42,10324.46a34.37,34.37,0,0,0-7.25-21.16v-17.7l-0.1-.1a67.65,67.65,0,0,0-67.59-66.69h0a67.65,67.65,0,0,0-67.64,66.77l0,0v16.33a34.49,34.49,0,0,0,1.08,46.26c1.49,7,2,15.79,8.85,24.52,13.09,16.7,42.88,34.3,42.88,34.3h29.79s29.79-17.6,42.88-34.3c7.38-9.41,7.84-18.9,9.17-26.13A34.38,34.38,0,0,0,4571.42,10324.46Z" transform="translate(-4262.36 -10210)"/><circle class="cls-12" cx="205.76" cy="101.55" r="5.65"/><circle class="cls-12" cx="262.45" cy="101.55" r="5.65"/><polygon class="cls-13" points="221.67 81.24 221.67 87.33 195.26 87.33 184.43 95.89 193.23 81.24 221.67 81.24"/><polygon class="cls-13" points="246.54 81.24 246.54 87.33 272.95 87.33 283.78 95.89 274.98 81.24 246.54 81.24"/><path class="cls-13" d="M4428.77,10334h6.09v-46.8s31.9-47.23,31.9-64.23h-9.31c-12.1,0-28.69,16.58-28.69,28.69V10334Z" transform="translate(-4262.36 -10210)"/><path class="cls-13" d="M4564.42,10334h-6.09v-46.8s-31.9-47.23-31.9-64.23h9.31c12.1,0,28.69,16.58,28.69,28.69V10334Z" transform="translate(-4262.36 -10210)"/><path class="cls-13" d="M4535.91,10222.94s-9.74-12.94-34-12.94c-24.71,0-25.55,10.83-51,4.06,0,0,9,43.13,43.88,43.13S4535.91,10222.94,4535.91,10222.94Z" transform="translate(-4262.36 -10210)"/><circle class="cls-14" cx="199.27" cy="128.55" r="13.25"/><circle class="cls-14" cx="268.1" cy="128.55" r="13.25"/><path class="cls-14" d="M4496.47,10333.43a13.25,13.25,0,0,0-13.25,13.25h26.49A13.25,13.25,0,0,0,4496.47,10333.43Z" transform="translate(-4262.36 -10210)"/><polygon class="cls-15" points="227.74 163.83 234.11 169.02 240.47 163.83 227.74 163.83"/><polygon class="cls-16" points="234.11 155.7 234.11 155.7 207.15 153.7 223.68 163.83 244.53 163.83 261.06 153.7 234.11 155.7"/><polygon class="cls-17" points="241.13 151.98 234.04 153.01 227.08 151.98 207.15 153.7 234.11 157.44 261.06 153.7 241.13 151.98"/><rect class="cls-14" x="227.97" y="98.22" width="12.27" height="32.77"/><polygon class="cls-11" points="212.52 104.55 199.27 104.55 205.9 110.87 212.52 104.55"/><polygon class="cls-11" points="269.08 104.55 255.83 104.55 262.45 110.87 269.08 104.55"/><circle class="cls-18" cx="194.41" cy="107.94" r="1.46"/></g></g></svg>