<svg xmlns="http://www.w3.org/2000/svg" viewBox="0 0 229.99 300"><defs><style>.cls-1{isolation:isolate;}.cls-2{fill:#f9d6ba;}.cls-3{fill:#86d5f8;}.cls-3,.cls-7{mix-blend-mode:multiply;}.cls-4,.cls-7{fill:#b48257;}.cls-5,.cls-6,.cls-8{fill:#f2623a;}.cls-5{opacity:0.25;}.cls-6{opacity:0.5;}.cls-9{fill:#a68169;}</style></defs><title>micah-smile</title><g class="cls-1"><g id="text_images" data-name="text/images"><path class="cls-2" d="M5663.1,9900.51a52.33,52.33,0,0,0-11-32.22v-27l-0.16-.15A103,103,0,0,0,5549,9739.62h-0.06a103,103,0,0,0-103,101.68l0,0v24.87a52.52,52.52,0,0,0,1.64,70.44c2.27,10.66,3.06,24,13.48,37.33,19.93,25.43,65.29,52.23,65.29,52.23h45.36s45.36-26.8,65.29-52.23c11.23-14.33,11.95-28.78,14-39.79A52.36,52.36,0,0,0,5663.1,9900.51Z" transform="translate(-5433.11 -9726.21)"/><circle class="cls-3" cx="72.68" cy="154.64" r="8.61"/><circle class="cls-3" cx="159.02" cy="154.64" r="8.61"/><polygon class="cls-4" points="96.91 123.71 96.91 132.99 56.7 132.99 40.21 146.03 53.61 123.71 96.91 123.71"/><polygon class="cls-4" points="134.79 123.71 134.79 132.99 175 132.99 191.49 146.03 178.09 123.71 134.79 123.71"/><path class="cls-4" d="M5445.86,9915h9.28v-71.26s48.58-71.93,48.58-97.82h-14.17c-18.43,0-43.69,25.25-43.69,43.69V9915Z" transform="translate(-5433.11 -9726.21)"/><path class="cls-4" d="M5652.44,9915h-9.28v-71.26s-48.58-71.93-48.58-97.82h14.17c18.43,0,43.69,25.25,43.69,43.69V9915Z" transform="translate(-5433.11 -9726.21)"/><path class="cls-4" d="M5609,9745.92s-14.83-19.71-51.81-19.71c-37.63,0-38.92,16.49-77.71,6.19,0,0,13.67,65.68,66.82,65.68S5609,9745.92,5609,9745.92Z" transform="translate(-5433.11 -9726.21)"/><circle class="cls-5" cx="62.8" cy="195.76" r="20.17"/><circle class="cls-5" cx="167.62" cy="195.76" r="20.17"/><path class="cls-5" d="M5549,9914.18a20.17,20.17,0,0,0-20.17,20.17h40.35A20.17,20.17,0,0,0,5549,9914.18Z" transform="translate(-5433.11 -9726.21)"/><polygon class="cls-6" points="115.85 237.11 115.85 237.11 77.85 237.11 99.97 249.49 131.73 249.49 153.85 237.11 115.85 237.11"/><polygon class="cls-7" points="106.15 249.49 115.85 257.39 125.55 249.49 106.15 249.49"/><polygon class="cls-8" points="126.55 231.44 115.75 233.01 105.16 231.44 77.85 237.11 115.85 239.75 153.85 237.11 126.55 231.44"/><rect class="cls-5" x="106.51" y="149.57" width="18.68" height="49.91"/><polygon class="cls-2" points="82.98 159.22 62.8 159.22 72.89 168.84 82.98 159.22"/><polygon class="cls-2" points="169.1 159.22 148.93 159.22 159.02 168.84 169.1 159.22"/><circle class="cls-9" cx="55.4" cy="164.38" r="2.23"/></g></g></svg>