<svg xmlns="http://www.w3.org/2000/svg" viewBox="0 0 304.19 304.17"><defs><style>.cls-1{isolation:isolate;}.cls-2{fill:#f8d5b9;}.cls-3{fill:#85d4f7;}.cls-3,.cls-6{mix-blend-mode:multiply;}.cls-4,.cls-6{fill:#b38157;}.cls-5,.cls-7,.cls-8{fill:#f1623a;}.cls-5{opacity:0.25;}.cls-7{opacity:0.5;}.cls-9{fill:#a58069;}.cls-10{fill:#f06342;}</style></defs><title>micah_home</title><g class="cls-1"><g id="text_images" data-name="text/images"><path class="cls-2" d="M10872.6,12252.91a38,38,0,0,0-8-23.42v-19.59l-0.11-.11a74.86,74.86,0,0,0-74.8-73.81h0a74.86,74.86,0,0,0-74.85,73.9l0,0V12228a38.17,38.17,0,0,0,1.19,51.19c1.65,7.75,2.22,17.47,9.79,27.13,14.48,18.48,47.45,38,47.45,38h33s33-19.48,47.45-38c8.16-10.42,8.68-20.92,10.15-28.92A38,38,0,0,0,10872.6,12252.91Z" transform="translate(-10637.56 -12086.53)"/><circle class="cls-3" cx="120.72" cy="152.09" r="6.25"/><circle class="cls-3" cx="183.46" cy="152.09" r="6.25"/><polygon class="cls-4" points="138.33 129.61 138.33 136.35 109.11 136.35 97.12 145.83 106.86 129.61 138.33 129.61"/><polygon class="cls-4" points="165.86 129.61 165.86 136.35 195.08 136.35 207.06 145.83 197.32 129.61 165.86 129.61"/><path class="cls-4" d="M10714.73,12263.44h6.74v-51.79s35.31-52.27,35.31-71.09h-10.3c-13.4,0-31.75,18.35-31.75,31.75v91.13Z" transform="translate(-10637.56 -12086.53)"/><path class="cls-4" d="M10864.85,12263.44h-6.74v-51.79s-35.31-52.27-35.31-71.09h10.3c13.4,0,31.75,18.35,31.75,31.75v91.13Z" transform="translate(-10637.56 -12086.53)"/><path class="cls-4" d="M10833.29,12140.56s-10.77-14.32-37.65-14.32c-27.35,0-28.28,12-56.47,4.5,0,0,9.93,47.73,48.56,47.73S10833.29,12140.56,10833.29,12140.56Z" transform="translate(-10637.56 -12086.53)"/><circle class="cls-5" cx="113.54" cy="181.97" r="14.66"/><circle class="cls-5" cx="189.72" cy="181.97" r="14.66"/><path class="cls-5" d="M10789.65,12262.84a14.66,14.66,0,0,0-14.66,14.66h29.32A14.66,14.66,0,0,0,10789.65,12262.84Z" transform="translate(-10637.56 -12086.53)"/><polygon class="cls-6" points="145.05 221.01 152.09 226.75 159.14 221.01 145.05 221.01"/><polygon class="cls-7" points="152.09 212.02 152.09 212.02 122.27 209.81 140.55 221.01 163.63 221.01 181.92 209.81 152.09 212.02"/><polygon class="cls-8" points="159.87 207.9 152.02 209.04 144.32 207.9 122.27 209.81 152.09 213.94 181.92 209.81 159.87 207.9"/><rect class="cls-5" x="145.3" y="148.4" width="13.58" height="36.27"/><polygon class="cls-2" points="128.2 155.41 113.54 155.41 120.87 162.4 128.2 155.41"/><polygon class="cls-2" points="190.79 155.41 176.13 155.41 183.47 162.4 190.79 155.41"/><circle class="cls-9" cx="108.16" cy="159.16" r="1.62"/><path class="cls-10" d="M10914.09,12154.91a1.29,1.29,0,1,1,1.45-1.1A1.29,1.29,0,0,1,10914.09,12154.91Zm-3.95-8.61a1.29,1.29,0,1,0-1.38,1.19A1.29,1.29,0,0,0,10910.14,12146.3Zm-5.84-7.16a1.29,1.29,0,1,0-1.3,1.27A1.29,1.29,0,0,0,10904.3,12139.14Zm-6.27-6.8a1.29,1.29,0,1,0-1.23,1.35A1.29,1.29,0,0,0,10898,12132.33Zm-6.68-6.42a1.29,1.29,0,1,0-1.14,1.42A1.29,1.29,0,0,0,10891.36,12125.91Zm-7.07-6a1.29,1.29,0,1,0-1.05,1.49A1.29,1.29,0,0,0,10884.28,12119.9Zm-7.45-5.59a1.29,1.29,0,1,0-1,1.55A1.29,1.29,0,0,0,10876.83,12114.31Zm-7.81-5.14a1.29,1.29,0,1,0-.86,1.6A1.29,1.29,0,0,0,10869,12109.18Zm-8.16-4.67a1.29,1.29,0,1,0-.76,1.65A1.29,1.29,0,0,0,10860.86,12104.51Zm-8.49-4.17a1.29,1.29,0,1,0-.65,1.7A1.29,1.29,0,0,0,10852.37,12100.34Zm-8.8-3.66a1.29,1.29,0,1,0-.55,1.74A1.29,1.29,0,0,0,10843.57,12096.68Zm-9.1-3.12a1.29,1.29,0,1,0-.43,1.77A1.29,1.29,0,0,0,10834.47,12093.56Zm-9.37-2.56a1.29,1.29,0,1,0-.32,1.79A1.29,1.29,0,0,0,10825.1,12091Zm-9.64-2a1.29,1.29,0,1,0-.2,1.81A1.29,1.29,0,0,0,10815.46,12089Zm-9.83-1.37a1.29,1.29,0,1,0-.09,1.82A1.29,1.29,0,0,0,10805.63,12087.66Zm-9.79-.73a1.29,1.29,0,1,0,0,1.82A1.29,1.29,0,0,0,10795.84,12086.94Zm-9.7-.1a1.29,1.29,0,1,0,.14,1.81A1.29,1.29,0,0,0,10786.15,12086.84Zm-9.58.51a1.29,1.29,0,1,0,.26,1.8A1.29,1.29,0,0,0,10776.56,12087.36Zm-9.45,1.11a1.29,1.29,0,1,0,.37,1.78A1.29,1.29,0,0,0,10767.12,12088.47Zm-9.29,1.69a1.29,1.29,0,1,0,.48,1.76A1.29,1.29,0,0,0,10757.83,12090.16Zm-9.11,2.25a1.29,1.29,0,1,0,.59,1.72A1.29,1.29,0,0,0,10748.72,12092.41Zm-8.91,2.8a1.29,1.29,0,1,0,.7,1.68A1.29,1.29,0,0,0,10739.81,12095.21Zm-8.68,3.33a1.29,1.29,0,1,0,.8,1.64A1.29,1.29,0,0,0,10731.13,12098.54Zm-8.44,3.84a1.29,1.29,0,1,0,.9,1.58A1.29,1.29,0,0,0,10722.7,12102.38Zm-8.17,4.34a1.29,1.29,0,1,0,1,1.53A1.29,1.29,0,0,0,10714.53,12106.72Zm-7.88,4.82a1.29,1.29,0,1,0,1.08,1.46A1.29,1.29,0,0,0,10706.65,12111.54Zm-7.57,5.28a1.29,1.29,0,1,0,1.17,1.4A1.29,1.29,0,0,0,10699.08,12116.82Zm-7.23,5.73a1.29,1.29,0,1,0,1.25,1.32A1.29,1.29,0,0,0,10691.84,12122.55Zm-6.88,6.16a1.29,1.29,0,1,0,1.33,1.24A1.29,1.29,0,0,0,10685,12128.71Zm-6.5,6.57a1.29,1.29,0,1,0,1.4,1.16A1.29,1.29,0,0,0,10678.46,12135.28Zm-6.1,7a1.29,1.29,0,1,0,1.47,1.07A1.29,1.29,0,0,0,10672.36,12142.26Zm-5.68,7.35a1.29,1.29,0,1,0,1.53,1A1.29,1.29,0,0,0,10666.68,12149.61Zm-5.24,7.72a1.29,1.29,0,1,0,1.59.89A1.29,1.29,0,0,0,10661.44,12157.33Zm-4.77,8.07a1.29,1.29,0,1,0,1.64.78A1.29,1.29,0,0,0,10656.66,12165.39Zm-4.29,8.4a1.29,1.29,0,1,0,1.69.68A1.29,1.29,0,0,0,10652.38,12173.79Zm-3.78,8.71a1.29,1.29,0,1,0,1.73.57A1.29,1.29,0,0,0,10648.6,12182.5Zm-3.25,9a1.29,1.29,0,1,0,1.76.46A1.29,1.29,0,0,0,10645.35,12191.52Zm-2.69,9.29a1.29,1.29,0,1,0,1.79.35A1.29,1.29,0,0,0,10642.66,12200.81Zm-2.12,9.56a1.29,1.29,0,1,0,1.81.23A1.29,1.29,0,0,0,10640.54,12210.37Zm-1.52,9.8a1.29,1.29,0,1,0,1.82.12A1.29,1.29,0,0,0,10639,12220.16Zm-0.89,9.81a1.29,1.29,0,1,0,1.82,0A1.29,1.29,0,0,0,10638.13,12230Zm-0.25,9.72a1.29,1.29,0,1,0,1.82-.12A1.29,1.29,0,0,0,10637.88,12239.69Zm0.36,9.61a1.29,1.29,0,1,0,1.81-.23A1.29,1.29,0,0,0,10638.24,12249.3Zm1,9.48a1.29,1.29,0,1,0,1.79-.34A1.29,1.29,0,0,0,10639.2,12258.79Zm1.55,9.33a1.29,1.29,0,1,0,1.76-.46A1.29,1.29,0,0,0,10640.75,12268.12Zm2.11,9.16a1.29,1.29,0,1,0,1.73-.57A1.29,1.29,0,0,0,10642.86,12277.27Zm2.66,9a1.29,1.29,0,1,0,1.69-.67A1.29,1.29,0,0,0,10645.53,12286.23Zm3.2,8.74a1.29,1.29,0,1,0,1.65-.77A1.29,1.29,0,0,0,10648.72,12295Zm3.72,8.5a1.29,1.29,0,1,0,1.6-.87A1.29,1.29,0,0,0,10652.44,12303.47Zm4.22,8.24a1.29,1.29,0,1,0,1.54-1A1.29,1.29,0,0,0,10656.65,12311.71Zm4.7,8a1.29,1.29,0,1,0,1.48-1.06A1.29,1.29,0,0,0,10661.36,12319.66Zm5.17,7.65a1.29,1.29,0,1,0,1.41-1.15A1.29,1.29,0,0,0,10666.52,12327.31Zm5.62,7.32a1.29,1.29,0,1,0,1.34-1.23A1.29,1.29,0,0,0,10672.14,12334.63Zm6.05,7a1.29,1.29,0,1,0,1.26-1.31A1.29,1.29,0,0,0,10678.2,12341.6Zm6.47,6.6a1.29,1.29,0,1,0,1.18-1.38A1.29,1.29,0,0,0,10684.67,12348.2Zm6.87,6.2a1.29,1.29,0,1,0,1.1-1.45A1.29,1.29,0,0,0,10691.54,12354.4Zm7.26,5.79a1.29,1.29,0,1,0,1-1.52A1.29,1.29,0,0,0,10698.8,12360.19Zm7.63,5.35a1.29,1.29,0,1,0,.91-1.58A1.29,1.29,0,0,0,10706.43,12365.55Zm8,4.89a1.29,1.29,0,1,0,.81-1.63A1.29,1.29,0,0,0,10714.41,12370.44Zm8.32,4.41a1.29,1.29,0,1,0,.71-1.68A1.29,1.29,0,0,0,10722.73,12374.85Zm8.64,3.91a1.29,1.29,0,1,0,.6-1.72A1.29,1.29,0,0,0,10731.36,12378.76Zm8.94,3.38a1.29,1.29,0,1,0,.49-1.75A1.29,1.29,0,0,0,10740.3,12382.14Zm9.22,2.84a1.29,1.29,0,1,0,.38-1.78A1.29,1.29,0,0,0,10749.53,12385Zm9.49,2.27a1.29,1.29,0,1,0,.26-1.8A1.29,1.29,0,0,0,10759,12387.24Zm9.75,1.67a1.29,1.29,0,1,0,.15-1.81A1.29,1.29,0,0,0,10768.77,12388.92Zm9.82,1a1.29,1.29,0,1,0,0-1.82A1.29,1.29,0,0,0,10778.59,12390Zm9.74,0.41a1.29,1.29,0,1,0-.09-1.82A1.29,1.29,0,0,0,10788.34,12390.37Zm9.64-.21a1.29,1.29,0,1,0-.2-1.81A1.29,1.29,0,0,0,10798,12390.16Zm9.52-.81a1.29,1.29,0,1,0-.32-1.79A1.29,1.29,0,0,0,10807.5,12389.34Zm9.37-1.4a1.29,1.29,0,1,0-.43-1.77A1.29,1.29,0,0,0,10816.87,12387.94Zm9.2-2a1.29,1.29,0,1,0-.54-1.74A1.29,1.29,0,0,0,10826.07,12386Zm9-2.53a1.29,1.29,0,1,0-.65-1.7A1.29,1.29,0,0,0,10835.08,12383.44Zm8.8-3.07a1.29,1.29,0,1,0-.75-1.66A1.29,1.29,0,0,0,10843.88,12380.38Zm8.56-3.59a1.29,1.29,0,1,0-.85-1.61A1.29,1.29,0,0,0,10852.44,12376.79Zm8.31-4.09a1.29,1.29,0,1,0-.95-1.56A1.29,1.29,0,0,0,10860.74,12372.7Zm8-4.58a1.29,1.29,0,1,0-1-1.5A1.29,1.29,0,0,0,10868.77,12368.12Zm7.73-5.05a1.29,1.29,0,1,0-1.13-1.43A1.29,1.29,0,0,0,10876.5,12363.06Zm7.4-5.51a1.29,1.29,0,1,0-1.21-1.36A1.29,1.29,0,0,0,10883.9,12357.55Zm7.06-5.95a1.29,1.29,0,1,0-1.29-1.28A1.29,1.29,0,0,0,10891,12351.61Zm6.69-6.37a1.29,1.29,0,1,0-1.37-1.2A1.29,1.29,0,0,0,10897.65,12345.24Zm6.31-6.78a1.29,1.29,0,1,0-1.44-1.12A1.29,1.29,0,0,0,10904,12338.46Zm5.9-7.16a1.29,1.29,0,1,0-1.5-1A1.29,1.29,0,0,0,10909.85,12331.3Zm5.46-7.54a1.29,1.29,0,1,0-1.56-.93A1.29,1.29,0,0,0,10915.32,12323.76Zm5-7.89a1.29,1.29,0,1,0-1.62-.84A1.29,1.29,0,0,0,10920.33,12315.87Zm4.53-8.23a1.29,1.29,0,1,0-1.67-.73A1.29,1.29,0,0,0,10924.86,12307.63Zm4-8.56a1.29,1.29,0,1,0-1.71-.63A1.29,1.29,0,0,0,10928.9,12299.07Zm3.52-8.86a1.29,1.29,0,1,0-1.75-.52A1.29,1.29,0,0,0,10932.41,12290.21Zm3-9.15a1.29,1.29,0,1,0-1.77-.41A1.29,1.29,0,0,0,10935.39,12281.05Zm2.41-9.43a1.29,1.29,0,1,0-1.8-.29A1.29,1.29,0,0,0,10937.8,12271.63Zm1.82-9.69a1.29,1.29,0,1,0-1.81-.18A1.29,1.29,0,0,0,10939.62,12261.94Zm1.21-9.82a1.29,1.29,0,1,0-1.82-.06A1.29,1.29,0,0,0,10940.83,12252.12Zm0.57-9.75a1.29,1.29,0,1,0-1.82.06A1.29,1.29,0,0,0,10941.39,12242.37Zm-0.05-9.65a1.29,1.29,0,1,0-1.81.17A1.29,1.29,0,0,0,10941.34,12232.71Zm-0.66-9.54a1.29,1.29,0,1,0-1.8.29A1.29,1.29,0,0,0,10940.68,12223.18Zm-1.25-9.39a1.29,1.29,0,1,0-1.78.4A1.29,1.29,0,0,0,10939.43,12213.78Zm-1.82-9.23a1.29,1.29,0,1,0-1.75.51A1.29,1.29,0,0,0,10937.6,12204.55Zm-2.38-9a1.29,1.29,0,1,0-1.71.62A1.29,1.29,0,0,0,10935.22,12195.51Zm-2.92-8.84a1.29,1.29,0,1,0-1.67.72A1.29,1.29,0,0,0,10932.3,12186.66Zm-3.45-8.61a1.29,1.29,0,1,0-1.62.82A1.29,1.29,0,0,0,10928.86,12178.05Zm-4-8.36a1.29,1.29,0,1,0-1.57.92A1.29,1.29,0,0,0,10924.9,12169.69Zm-4.44-8.09a1.29,1.29,0,1,0-1.51,1A1.29,1.29,0,0,0,10920.46,12161.6Z" transform="translate(-10637.56 -12086.53)"/></g></g></svg>