<?xml version="1.0" encoding="UTF-8" standalone="no"?>
<svg width="135px" height="176px" viewBox="0 0 135 176" version="1.1" xmlns="http://www.w3.org/2000/svg" xmlns:xlink="http://www.w3.org/1999/xlink" xmlns:sketch="http://www.bohemiancoding.com/sketch/ns">
    <!-- Generator: Sketch 3.4.2 (15857) - http://www.bohemiancoding.com/sketch -->
    <title>Artboard 5</title>
    <desc>Created with Sketch.</desc>
    <defs>
        <path id="path-1" d="M0,0.336561404 L134.652918,0.336561404 L134.652918,176 L0,176"></path>
    </defs>
    <g id="Home" stroke="none" stroke-width="1" fill="none" fill-rule="evenodd" sketch:type="MSPage">
        <g id="Artboard-5" sketch:type="MSArtboardGroup">
            <g id="Micah" sketch:type="MSLayerGroup">
                <g id="Group-3">
                    <mask id="mask-2" sketch:name="Clip 2" fill="white">
                        <use xlink:href="#path-1"></use>
                    </mask>
                    <g id="Clip-2"></g>
                    <path d="M134.653021,102.398087 C134.653021,95.2855251 132.235117,88.7421333 128.185037,83.5295485 L128.185037,67.7446129 L128.092932,67.6540398 C127.630859,34.7451275 100.838383,8.20463626 67.8279978,8.1850807 L67.8269687,8.18405146 L67.8259395,8.1850807 C67.8146193,8.1850807 67.803299,8.18405146 67.7919788,8.18405146 C34.7409437,8.18405146 7.91347738,34.7708585 7.48896772,67.7250573 L7.46889999,67.7446129 L7.46889999,82.3078409 C2.81833244,87.7005427 0.000102911431,94.7178994 0.000102911431,102.398087 C0.000102911431,110.594437 3.20888132,118.03687 8.43112187,123.553595 C9.76073756,129.794905 10.2228099,137.633595 16.3213413,145.415163 C27.9904684,160.305174 54.5483068,176.000051 54.5483068,176.000051 L67.8269687,176.000051 L81.1056306,176.000051 C81.1056306,176.000051 107.662954,160.305174 119.332596,145.415163 C125.909666,137.022227 126.326971,128.562391 127.508909,122.113174 C131.967547,116.772449 134.653021,109.899701 134.653021,102.398087" id="Fill-1" fill="#FAD8BB" sketch:type="MSShapeGroup" mask="url(#mask-2)"></path>
                </g>
                <path d="M47.5908766,90.8847532 C47.5908766,93.6678175 45.335058,95.9239111 42.5523329,95.9239111 C39.7696078,95.9239111 37.5137893,93.6678175 37.5137893,90.8847532 C37.5137893,88.1016889 39.7696078,85.8455953 42.5523329,85.8455953 C45.335058,85.8455953 47.5908766,88.1016889 47.5908766,90.8847532" id="Fill-4" fill="#84B4B6" sketch:type="MSShapeGroup"></path>
                <path d="M98.1397364,90.8847532 C98.1397364,93.6678175 95.8839178,95.9239111 93.1011928,95.9239111 C90.3184677,95.9239111 88.0626491,93.6678175 88.0626491,90.8847532 C88.0626491,88.1016889 90.3184677,85.8455953 93.1011928,85.8455953 C95.8839178,85.8455953 98.1397364,88.1016889 98.1397364,90.8847532" id="Fill-6" fill="#84B4B6" sketch:type="MSShapeGroup"></path>
                <path d="M56.736564,72.7751251 L56.736564,78.2079673 L33.1971179,78.2079673 L23.5393946,85.8459556 L31.3863912,72.7751251 L56.736564,72.7751251 Z" id="Fill-8" fill="#B58356" sketch:type="MSShapeGroup"></path>
                <path d="M78.9171675,72.7751251 L78.9171675,78.2079673 L102.456614,78.2079673 L112.114337,85.8459556 L104.26734,72.7751251 L78.9171675,72.7751251 Z" id="Fill-10" fill="#B58356" sketch:type="MSShapeGroup"></path>
                <path d="M7.46879708,110.880515 L12.900977,110.880515 L12.900977,69.153076 C12.900977,69.153076 41.3451818,27.0360702 41.3451818,11.8753684 L33.0464041,11.8753684 C22.2535678,11.8753684 7.46879708,26.6619415 7.46879708,37.4560936 L7.46879708,110.880515 Z" id="Fill-12" fill="#B58356" sketch:type="MSShapeGroup"></path>
                <path d="M128.414993,110.880515 L122.982813,110.880515 L122.982813,69.153076 C122.982813,69.153076 94.5386082,27.0360702 94.5386082,11.8753684 L102.837386,11.8753684 C113.630222,11.8753684 128.414993,26.6619415 128.414993,37.4560936 L128.414993,110.880515 Z" id="Fill-14" fill="#B58356" sketch:type="MSShapeGroup"></path>
                <path d="M102.988666,11.8754199 C102.988666,11.8754199 94.3086011,0.336612865 72.6555215,0.336612865 C50.624757,0.336612865 49.8714453,9.99499883 27.1609508,3.9585076 C27.1609508,3.9585076 35.1618,42.4145076 66.2822166,42.4145076 C97.4021187,42.4145076 102.988666,11.8754199 102.988666,11.8754199" id="Fill-16" fill="#B58356" sketch:type="MSShapeGroup"></path>
                <path d="M48.5801642,114.965258 C48.5801642,121.48858 43.2925748,126.777329 36.7695338,126.777329 C30.2470073,126.777329 24.9589035,121.48858 24.9589035,114.965258 C24.9589035,108.441937 30.2470073,103.153188 36.7695338,103.153188 C43.2925748,103.153188 48.5801642,108.441937 48.5801642,114.965258" id="Fill-18" fill-opacity="0.25" fill="#F4623A" sketch:type="MSShapeGroup"></path>
                <path d="M109.950264,114.965258 C109.950264,121.48858 104.662675,126.777329 98.1396335,126.777329 C91.617107,126.777329 86.3290031,121.48858 86.3290031,114.965258 C86.3290031,108.441937 91.617107,103.153188 98.1396335,103.153188 C104.662675,103.153188 109.950264,108.441937 109.950264,114.965258" id="Fill-20" fill-opacity="0.25" fill="#F4623A" sketch:type="MSShapeGroup"></path>
                <path d="M67.8268657,110.397081 C61.3043393,110.397081 56.0162354,115.685315 56.0162354,122.209151 L79.6374961,122.209151 C79.6374961,115.685315 74.3499068,110.397081 67.8268657,110.397081" id="Fill-22" fill-opacity="0.25" fill="#F4623A" sketch:type="MSShapeGroup"></path>
                <path d="M67.8269687,139.177095 L67.8269687,139.177095 L45.579061,139.177095 L58.5284063,146.420884 L77.125531,146.420884 L90.0748763,139.177095 L67.8269687,139.177095 Z" id="Fill-24" fill-opacity="0.5" fill="#F4623A" sketch:type="MSShapeGroup"></path>
                <path d="M62.1498596,146.420936 L67.8269687,151.048912 L73.5040777,146.420936 L62.1498596,146.420936 Z" id="Fill-26" fill="#B58356" sketch:type="MSShapeGroup"></path>
                <path d="M74.0885118,135.856973 L67.766148,136.777113 L61.5652197,135.856973 L45.5789581,139.177301 L67.8268657,140.177301 L90.0747734,139.177301 L74.0885118,135.856973 Z" id="Fill-28" fill="#F4623A" sketch:type="MSShapeGroup"></path>
                <path d="M73.2960937,117.140351 L62.3581523,117.140351 L62.3581523,87.9166316 L73.2960937,87.9166316 L73.2960937,117.140351 Z" id="Fill-30" fill-opacity="0.25" fill="#F4623A" sketch:type="MSShapeGroup"></path>
                <path d="M48.5801642,93.5640702 L36.7695338,93.5640702 L42.6751063,99.1981287 L48.5801642,93.5640702 Z" id="Fill-32" fill="#FBD7E7" sketch:type="MSShapeGroup"></path>
                <path d="M99.0065594,93.5640702 L87.195929,93.5640702 L93.1015015,99.1981287 L99.0065594,93.5640702 Z" id="Fill-34" fill="#FBD7E7" sketch:type="MSShapeGroup"></path>
                <path d="M33.7392038,96.5866901 C33.7392038,97.3066433 33.155696,97.8902222 32.4358306,97.8902222 C31.7159651,97.8902222 31.1324573,97.3066433 31.1324573,96.5866901 C31.1324573,95.8667368 31.7159651,95.2831579 32.4358306,95.2831579 C33.155696,95.2831579 33.7392038,95.8667368 33.7392038,96.5866901" id="Fill-36" fill="#A78269" sketch:type="MSShapeGroup"></path>
            </g>
        </g>
    </g>
</svg>