<svg xmlns="http://www.w3.org/2000/svg" viewBox="0 0 304.19 304.17"><defs><style>.cls-1{isolation:isolate;}.cls-2{fill:#f8d5b9;}.cls-3{fill:#85d4f7;}.cls-3,.cls-6{mix-blend-mode:multiply;}.cls-4,.cls-6{fill:#b38157;}.cls-5,.cls-7,.cls-8{fill:#f1623a;}.cls-5{opacity:0.25;}.cls-7{opacity:0.5;}.cls-9{fill:#a58069;}.cls-10{fill:#f06342;}</style></defs><title>micah_home</title><g class="cls-1"><g id="text_images" data-name="text/images"><path class="cls-2" d="M10872.6,12252.91a38,38,0,0,0-8-23.42v-19.59l-0.11-.11a74.86,74.86,0,0,0-74.8-73.81h0a74.86,74.86,0,0,0-74.85,73.9l0,0V12228a38.17,38.17,0,0,0,1.19,51.19c1.65,7.75,2.22,17.47,9.79,27.13,14.48,18.48,47.45,38,47.45,38h33s33-19.48,47.45-38c8.16-10.42,8.68-20.92,10.15-28.92A38,38,0,0,0,10872.6,12252.91Z" transform="translate(-10637.56 -12086.53)"/><circle class="cls-3" cx="120.72" cy="152.09" r="6.25"/><circle class="cls-3" cx="183.46" cy="152.09" r="6.25"/><polygon class="cls-4" points="138.33 129.61 138.33 136.35 109.11 136.35 97.12 145.83 106.86 129.61 138.33 129.61"/><polygon class="cls-4" points="165.86 129.61 165.86 136.35 195.08 136.35 207.06 145.83 197.32 129.61 165.86 129.61"/><path class="cls-4" d="M10714.73,12263.44h6.74v-51.79s35.31-52.27,35.31-71.09h-10.3c-13.4,0-31.75,18.35-31.75,31.75v91.13Z" transform="translate(-10637.56 -12086.53)"/><path class="cls-4" d="M10864.85,12263.44h-6.74v-51.79s-35.31-52.27-35.31-71.09h10.3c13.4,0,31.75,18.35,31.75,31.75v91.13Z" transform="translate(-10637.56 -12086.53)"/><path class="cls-4" d="M10833.29,12140.56s-10.77-14.32-37.65-14.32c-27.35,0-28.28,12-56.47,4.5,0,0,9.93,47.73,48.56,47.73S10833.29,12140.56,10833.29,12140.56Z" transform="translate(-10637.56 -12086.53)"/><circle class="cls-5" cx="113.54" cy="181.97" r="14.66"/><circle class="cls-5" cx="189.72" cy="181.97" r="14.66"/><path class="cls-5" d="M10789.65,12262.84a14.66,14.66,0,0,0-14.66,14.66h29.32A14.66,14.66,0,0,0,10789.65,12262.84Z" transform="translate(-10637.56 -12086.53)"/><polygon class="cls-6" points="145.05 221.01 152.09 226.75 159.14 221.01 145.05 221.01"/><polygon class="cls-7" points="152.09 212.02 152.09 212.02 122.27 209.81 140.55 221.01 163.63 221.01 181.92 209.81 152.09 212.02"/><polygon class="cls-8" points="159.87 207.9 152.02 209.04 144.32 207.9 122.27 209.81 152.09 213.94 181.92 209.81 159.87 207.9"/><rect class="cls-5" x="145.3" y="148.4" width="13.58" height="36.27"/><polygon class="cls-2" points="128.2 155.41 113.54 155.41 120.87 162.4 128.2 155.41"/><polygon class="cls-2" points="190.79 155.41 176.13 155.41 183.47 162.4 190.79 155.41"/><circle class="cls-9" cx="108.16" cy="159.16" r="1.62"/><circle class="cls-10" cx="10914.26" cy="12153.63" r="1.29" transform="translate(-13231.35 9252.11) rotate(-82.29)"/><circle class="cls-10" cx="10908.86" cy="12146.21" r="1.29" transform="translate(-12648.56 10040.19) rotate(-85.76)"/><circle class="cls-10" cx="10903.02" cy="12139.12" r="1.29" transform="translate(-12019.66 10790.83) rotate(-89.23)"/><circle class="cls-10" cx="10896.75" cy="12132.39" r="1.29" transform="translate(-11197.43 -11559.3) rotate(-2.7)"/><circle class="cls-10" cx="10890.08" cy="12126.05" r="1.29" transform="translate(-11881.42 -10841.77) rotate(-6.19)"/><circle class="cls-10" cx="10883.01" cy="12120.12" r="1.29" transform="translate(-12522.77 -10081.23) rotate(-9.69)"/><circle class="cls-10" cx="10875.58" cy="12114.61" r="1.29" transform="translate(-13119.27 -9279.16) rotate(-13.22)"/><circle class="cls-10" cx="10867.78" cy="12109.55" r="1.29" transform="translate(-13668.44 -8437.3) rotate(-16.76)"/><circle class="cls-10" cx="10859.65" cy="12104.96" r="1.29" transform="translate(-14167.59 -7557.78) rotate(-20.34)"/><circle class="cls-10" cx="10851.19" cy="12100.86" r="1.29" transform="translate(-14613.9 -6643.26) rotate(-23.94)"/><circle class="cls-10" cx="10842.43" cy="12097.28" r="1.29" transform="translate(-15004.46 -5697.02) rotate(-27.56)"/><circle class="cls-10" cx="10833.37" cy="12094.23" r="1.29" transform="translate(-15336.5 -4723.01) rotate(-31.21)"/><circle class="cls-10" cx="10824.04" cy="12091.74" r="1.29" transform="translate(-15607.45 -3725.96) rotate(-34.87)"/><circle class="cls-10" cx="10814.45" cy="12089.83" r="1.29" transform="translate(-15815.21 -2711.28) rotate(-38.55)"/><circle class="cls-10" cx="10804.68" cy="12088.53" r="1.29" transform="translate(-15958.15 -1685.93) rotate(-42.23)"/><circle class="cls-10" cx="10794.95" cy="12087.86" r="1.29" transform="translate(-16035.64 -656.68) rotate(-45.91)"/><circle class="cls-10" cx="10785.31" cy="12087.82" r="1.29" transform="translate(-16047.98 370.94) rotate(-49.57)"/><circle class="cls-10" cx="10775.79" cy="12088.39" r="1.29" transform="translate(-15996.09 1391.26) rotate(-53.21)"/><circle class="cls-10" cx="10766.41" cy="12089.54" r="1.29" transform="translate(-15881.47 2399.28) rotate(-56.83)"/><circle class="cls-10" cx="10757.19" cy="12091.28" r="1.29" transform="translate(-15706.03 3390.64) rotate(-60.42)"/><circle class="cls-10" cx="10748.16" cy="12093.57" r="1.29" transform="translate(-15471.9 4361.69) rotate(-63.98)"/><circle class="cls-10" cx="10739.32" cy="12096.4" r="1.29" transform="translate(-15181.27 5309.36) rotate(-67.53)"/><circle class="cls-10" cx="10730.71" cy="12099.75" r="1.29" transform="translate(-14836.32 6231.18) rotate(-71.04)"/><circle class="cls-10" cx="10722.35" cy="12103.62" r="1.29" transform="translate(-14439.07 7125.09) rotate(-74.54)"/><circle class="cls-10" cx="10714.26" cy="12107.98" r="1.29" transform="translate(-13991.35 7989.4) rotate(-78.02)"/><circle class="cls-10" cx="10706.46" cy="12112.81" r="1.29" transform="translate(-13494.74 8822.63) rotate(-81.49)"/><circle class="cls-10" cx="10698.97" cy="12118.1" r="1.29" transform="translate(-12950.61 9623.41) rotate(-84.95)"/><circle class="cls-10" cx="10691.81" cy="12123.84" r="1.29" transform="translate(-12360.12 10390.35) rotate(-88.42)"/><circle class="cls-10" cx="10685.01" cy="12130" r="1.29" transform="matrix(1, -0.03, 0.03, 1, -11031.06, -11728.23)"/><circle class="cls-10" cx="10678.58" cy="12136.56" r="1.29" transform="translate(-11725.56 -11034.9) rotate(-5.37)"/><circle class="cls-10" cx="10672.56" cy="12143.53" r="1.29" transform="translate(-12380.39 -10298.04) rotate(-8.86)"/><circle class="cls-10" cx="10666.95" cy="12150.87" r="1.29" transform="translate(-12993.35 -9518.75) rotate(-12.37)"/><circle class="cls-10" cx="10661.79" cy="12158.56" r="1.29" transform="translate(-13561.97 -8698.34) rotate(-15.91)"/><circle class="cls-10" cx="10657.09" cy="12166.61" r="1.29" transform="translate(-14083.51 -7838.51) rotate(-19.47)"/><circle class="cls-10" cx="10652.88" cy="12174.98" r="1.29" transform="translate(-14555 -6941.46) rotate(-23.06)"/><circle class="cls-10" cx="10649.18" cy="12183.65" r="1.29" transform="translate(-14973.37 -6009.97) rotate(-26.67)"/><circle class="cls-10" cx="10646" cy="12192.63" r="1.29" transform="translate(-15335.54 -5047.51) rotate(-30.31)"/><circle class="cls-10" cx="10643.37" cy="12201.88" r="1.29" transform="translate(-15638.6 -4058.32) rotate(-33.97)"/><circle class="cls-10" cx="10641.32" cy="12211.39" r="1.29" transform="translate(-15879.95 -3047.39) rotate(-37.64)"/><circle class="cls-10" cx="10639.86" cy="12221.13" r="1.29" transform="translate(-16057.53 -2020.46) rotate(-41.31)"/><circle class="cls-10" cx="10639.04" cy="12230.88" r="1.29" transform="translate(-16169.78 -984.37) rotate(-44.99)"/><circle class="cls-10" cx="10638.84" cy="12240.54" r="1.29" transform="translate(-16216.17 54.39) rotate(-48.65)"/><circle class="cls-10" cx="10639.26" cy="12250.09" r="1.29" transform="translate(-16197.07 1089.93) rotate(-52.3)"/><circle class="cls-10" cx="10640.27" cy="12259.51" r="1.29" transform="matrix(0.56, -0.83, 0.83, 0.56, -16113.48, 2116.94)"/><circle class="cls-10" cx="10641.86" cy="12268.77" r="1.29" transform="translate(-15966.87 3130.72) rotate(-59.52)"/><circle class="cls-10" cx="10644.01" cy="12277.85" r="1.29" transform="translate(-15759 4127.19) rotate(-63.09)"/><circle class="cls-10" cx="10646.71" cy="12286.74" r="1.29" transform="matrix(0.4, -0.92, 0.92, 0.4, -15491.81, 5102.9)"/><circle class="cls-10" cx="10649.93" cy="12295.41" r="1.29" transform="matrix(0.34, -0.94, 0.94, 0.34, -15167.26, 6054.97)"/><circle class="cls-10" cx="10653.67" cy="12303.83" r="1.29" transform="translate(-14787.21 6980.93) rotate(-73.67)"/><circle class="cls-10" cx="10657.91" cy="12312" r="1.29" transform="translate(-14353.38 7878.71) rotate(-77.15)"/><circle class="cls-10" cx="10662.63" cy="12319.87" r="1.29" transform="translate(-13867.3 8746.45) rotate(-80.62)"/><circle class="cls-10" cx="10667.8" cy="12327.44" r="1.29" transform="translate(-13330.29 9582.43) rotate(-84.09)"/><circle class="cls-10" cx="10673.43" cy="12334.69" r="1.29" transform="translate(-12743.49 10384.94) rotate(-87.55)"/><circle class="cls-10" cx="10679.48" cy="12341.58" r="1.29" transform="translate(-10855.21 -11894.79) rotate(-1.02)"/><circle class="cls-10" cx="10685.95" cy="12348.1" r="1.29" transform="translate(-11572.24 -11211.27) rotate(-4.49)"/><circle class="cls-10" cx="10692.82" cy="12354.23" r="1.29" transform="translate(-12249.83 -10481.63) rotate(-7.98)"/><circle class="cls-10" cx="10700.06" cy="12359.94" r="1.29" transform="translate(-12885.56 -9706.92) rotate(-11.49)"/><circle class="cls-10" cx="10707.67" cy="12365.21" r="1.29" transform="translate(-13476.69 -8888.48) rotate(-15.02)"/><circle class="cls-10" cx="10715.63" cy="12370.03" r="1.29" transform="translate(-14020.2 -8028.01) rotate(-18.58)"/><circle class="cls-10" cx="10723.92" cy="12374.36" r="1.29" transform="matrix(0.93, -0.38, 0.38, 0.93, -14512.86, -7127.7)"/><circle class="cls-10" cx="10732.52" cy="12378.2" r="1.29" transform="translate(-14951.29 -6190.38) rotate(-25.77)"/><circle class="cls-10" cx="10741.43" cy="12381.51" r="1.29" transform="translate(-15332.11 -5219.59) rotate(-29.4)"/><circle class="cls-10" cx="10750.61" cy="12384.27" r="1.29" transform="matrix(0.84, -0.55, 0.55, 0.84, -15652.06, -4219.67)"/><circle class="cls-10" cx="10760.05" cy="12386.47" r="1.29" transform="translate(-15908.21 -3195.76) rotate(-36.72)"/><circle class="cls-10" cx="10769.75" cy="12388.08" r="1.29" transform="translate(-16098.13 -2153.79) rotate(-40.39)"/><circle class="cls-10" cx="10779.52" cy="12389.07" r="1.29" transform="translate(-16220.11 -1100.86) rotate(-44.07)"/><circle class="cls-10" cx="10789.2" cy="12389.42" r="1.29" transform="translate(-16273.46 -44.19) rotate(-47.74)"/><circle class="cls-10" cx="10798.78" cy="12389.15" r="1.29" transform="translate(-16258.42 1009.81) rotate(-51.39)"/><circle class="cls-10" cx="10808.23" cy="12388.29" r="1.29" transform="translate(-16175.97 2055.29) rotate(-55.02)"/><circle class="cls-10" cx="10817.54" cy="12386.84" r="1.29" transform="translate(-16027.65 3087.02) rotate(-58.62)"/><circle class="cls-10" cx="10826.67" cy="12384.83" r="1.29" transform="translate(-15815.39 4100.48) rotate(-62.2)"/><circle class="cls-10" cx="10835.61" cy="12382.27" r="1.29" transform="translate(-15541.36 5091.77) rotate(-65.76)"/><circle class="cls-10" cx="10844.33" cy="12379.17" r="1.29" transform="translate(-15207.77 6057.63) rotate(-69.29)"/><circle class="cls-10" cx="10852.82" cy="12375.56" r="1.29" transform="translate(-14816.84 6995.3) rotate(-72.79)"/><circle class="cls-10" cx="10861.05" cy="12371.45" r="1.29" transform="translate(-14370.62 7902.45) rotate(-76.28)"/><circle class="cls-10" cx="10869" cy="12366.85" r="1.29" transform="translate(-13871.03 8777.04) rotate(-79.76)"/><circle class="cls-10" cx="10876.65" cy="12361.78" r="1.29" transform="translate(-13319.76 9617.24) rotate(-83.22)"/><circle class="cls-10" cx="10883.97" cy="12356.27" r="1.29" transform="translate(-12718.33 10421.26) rotate(-86.69)"/><circle class="cls-10" cx="10890.96" cy="12350.32" r="1.29" transform="translate(-10670.13 -12057.73) rotate(-0.15)"/><circle class="cls-10" cx="10897.57" cy="12343.95" r="1.29" transform="matrix(1, -0.06, 0.06, 1, -11396.03, -11373.01)"/><circle class="cls-10" cx="10903.8" cy="12337.18" r="1.29" transform="translate(-12080.72 -10642.08) rotate(-7.11)"/><circle class="cls-10" cx="10909.62" cy="12330.03" r="1.29" transform="translate(-12721.83 -9866.31) rotate(-10.61)"/><circle class="cls-10" cx="10915" cy="12322.51" r="1.29" transform="translate(-13316.77 -9047.27) rotate(-14.14)"/><circle class="cls-10" cx="10919.94" cy="12314.64" r="1.29" transform="translate(-13862.7 -8186.88) rotate(-17.69)"/><circle class="cls-10" cx="10924.39" cy="12306.43" r="1.29" transform="translate(-14356.56 -7287.53) rotate(-21.26)"/><circle class="cls-10" cx="10928.36" cy="12297.91" r="1.29" transform="translate(-14795.19 -6352.2) rotate(-24.86)"/><circle class="cls-10" cx="10931.8" cy="12289.08" r="1.29" transform="translate(-15175.41 -5384.55) rotate(-28.49)"/><circle class="cls-10" cx="10934.7" cy="12279.96" r="1.29" transform="translate(-15494.2 -4388.99) rotate(-32.13)"/><circle class="cls-10" cx="10937.04" cy="12270.58" r="1.29" transform="translate(-15748.87 -3370.72) rotate(-35.8)"/><circle class="cls-10" cx="10938.8" cy="12260.95" r="1.29" transform="translate(-15937.21 -2335.7) rotate(-39.47)"/><circle class="cls-10" cx="10939.95" cy="12251.18" r="1.29" transform="translate(-16057.67 -1292.11) rotate(-43.15)"/><circle class="cls-10" cx="10940.45" cy="12241.49" r="1.29" transform="translate(-16110.1 -246.27) rotate(-46.81)"/><circle class="cls-10" cx="10940.35" cy="12231.89" r="1.29" transform="translate(-16095 795.71) rotate(-50.46)"/><circle class="cls-10" cx="10939.64" cy="12222.42" r="1.29" transform="translate(-16013.56 1827.99) rotate(-54.09)"/><circle class="cls-10" cx="10938.34" cy="12213.1" r="1.29" transform="translate(-15867.55 2845.36) rotate(-57.7)"/><circle class="cls-10" cx="10936.47" cy="12203.93" r="1.29" transform="translate(-15659.15 3843.34) rotate(-61.28)"/><circle class="cls-10" cx="10934.06" cy="12194.96" r="1.29" transform="translate(-15390.73 4818.15) rotate(-64.83)"/><circle class="cls-10" cx="10931.1" cy="12186.19" r="1.29" transform="translate(-15064.76 5766.64) rotate(-68.36)"/><circle class="cls-10" cx="10927.63" cy="12177.65" r="1.29" transform="translate(-14683.66 6686.24) rotate(-71.87)"/><circle class="cls-10" cx="10923.66" cy="12169.36" r="1.29" transform="translate(-14249.71 7574.83) rotate(-75.36)"/><circle class="cls-10" cx="10919.19" cy="12161.35" r="1.29" transform="translate(-13764.98 8430.63) rotate(-78.83)"/><circle class="cls-10" cx="10914.26" cy="12153.63" r="1.29" transform="matrix(0.13, -0.99, 0.99, 0.13, -13231.35, 9252.11)"/></g></g></svg>