<?xml version="1.0" encoding="utf-8"?>
<!-- Generator: Adobe Illustrator 18.1.1, SVG Export Plug-In . SVG Version: 6.00 Build 0)  -->
<svg version="1.1" xmlns="http://www.w3.org/2000/svg" xmlns:xlink="http://www.w3.org/1999/xlink" x="0px" y="0px"
	 viewBox="0 0 273.8 162.9" enable-background="new 0 0 273.8 162.9" xml:space="preserve">
<g id="backgrounds">
</g>
<g id="text_x2F_images">
	<g>
		<g>
			<path fill="#144687" stroke="#144687" stroke-width="0.3795" stroke-miterlimit="10" d="M24.6,14.1C21.1,3.6,18.1,1,14.4,0.7V0.2
				h27.7v0.5c-5.4,0.1-7.3,4-4,13.5l10.7,30.2l9-26.2c1.1-3.1,1.6-5.6,1.6-8.2c0-7.1-6.4-9.1-10.9-9.4V0.2h22.7v0.5
				c-4.9,0.3-8,3.5-12.5,16.6l-12,35.1h-9L24.6,14.1z"/>
			<path fill="#144687" stroke="#144687" stroke-width="0.3795" stroke-miterlimit="10" d="M74.8,51.9c4.6,0,5-4.7,5-8.7V9.3
				c0-4-0.4-8.6-5-8.6V0.2h23.3v0.5c-4.6,0-5,4.6-5,8.6v33.9c0,4,0.4,8.7,5,8.7v0.5H74.8V51.9z"/>
			<path fill="#144687" stroke="#144687" stroke-width="0.3795" stroke-miterlimit="10" d="M105.8,51.9c4.6,0,4.3-4.3,4.3-8.3V9
				c0-4,0.3-8.3-4.3-8.3c0.1-0.3,0-0.4,0-0.5h20.5c18.6,0,30.9,9.6,30.9,25.2c0,15.7-12.2,27-30.9,27h-20.5V51.9z M123.5,0.7v51.2
				h1.7c10.7,0,17.5-9.6,17.5-26.9c0-17.3-6.8-24.3-17.5-24.3H123.5z"/>
			<path fill="#144687" stroke="#144687" stroke-width="0.3795" stroke-miterlimit="10" d="M169.4,51.9c4.6,0,5.7-4.7,5.7-8.7V26.7
				L164.8,6.6c-1.1-2.2-3.8-5.4-8.6-5.9c0.1-0.3-0.1-0.4,0-0.5H182L182,0.7c-4,0.3-4.8,3-3.1,6.3l9.5,18.8l11.3-18.6
				c-0.8-2.9-2.7-6.2-7.4-6.5c0-0.1-0.1-0.5,0-0.6h17.7c-0.1,0.4,0.3,0.3,0,0.5c-3.8,0-8.2,4.1-9.4,6.4l-11.9,19.5l-0.1,16.6
				c0,4,0.4,8.7,5,8.7c-0.1,0.3,0.1,0.4,0,0.5h-24.1C169.4,52.3,169.5,52.1,169.4,51.9z"/>
			<path fill="#144687" stroke="#144687" stroke-width="0.3795" stroke-miterlimit="10" d="M199.7,51.8c4.9-0.3,8.5-3.5,13.3-16.5
				l13-35.1h9.4l12,38.4c3.3,10.6,6.6,13.1,10.3,13.3v0.5H230v-0.5c5.4-0.1,7.1-3.8,4-13.5l-1.7-5.3h-17.7l-0.4,1.3
				c-1.1,3.1-1.7,5.5-1.7,8.1c0,7.1,6.7,9.1,11.2,9.4v0.5h-24L199.7,51.8z M214.8,32.6h17.3L224,7.4L214.8,32.6z"/>
			<path fill="#144687" stroke="#144687" stroke-width="0.3795" stroke-miterlimit="10" d="M0.2,161.2c5.3-0.2,7.7-6.9,7.7-16.9V117
				c0-2.1-0.9-7-4.9-6.9l0.1-0.6h17.7l16.6,37l15.6-37H69c0,0.1-0.1,0.3,0,0.5c-4.6,0-4.3,4.3-4.3,8.3v34.6c0,4-0.3,8.3,4.3,8.3v0.5
				H45.6v-0.5c5.3-0.3,5.5-4.2,5.5-12.9v-32.8l-19.5,46.2h-0.9L8.5,115.1V144c0,9.2,3,17.2,9.1,17.2c-0.1,0.2,0.1,0.3,0,0.5H0.2
				V161.2z"/>
			<path fill="#144687" stroke="#144687" stroke-width="0.3795" stroke-miterlimit="10" d="M75.5,161.2c4.6,0,5-4.7,5-8.7v-33.9
				c0-4-0.4-8.6-5-8.6v-0.5h23.3v0.5c-4.6,0-5,4.6-5,8.6v33.9c0,4,0.4,8.7,5,8.7v0.5H75.5V161.2z"/>
			<path fill="#144687" stroke="#144687" stroke-width="0.3795" stroke-miterlimit="10" d="M104.2,135.6c0-16.1,12.4-27,30.8-27.1
				c10.6,0,18.3,6.4,18.3,12.8c0,5.8-3.9,8.9-8.2,8.9c-4.2,0-8.4-3.3-8.4-7.9c0-5.3,4.1-8.3,7.8-8.3c0.4,0,0.9,0.1,1.3,0.1
				c-1.9-3.2-5.9-4.9-10.6-4.9c-10,0-15.7,11.3-15.7,26.7c0,13.5,4.3,26.4,12.4,26.4c7.4,0,14.9-6.8,19-18.9h0.6v18.4h-0.6
				c-0.1-2.4-1.4-3.7-4-3.7c-1.1,0-2.3,0.5-3.7,1.2c-2.8,1.4-6.3,3.5-11.3,3.5C116.1,162.7,104.2,150.6,104.2,135.6z"/>
			<path fill="#144687" stroke="#144687" stroke-width="0.3795" stroke-miterlimit="10" d="M155.4,161.1c4.9-0.3,8.5-3.5,13.3-16.5
				l13-35.1h9.4l12,38.4c3.3,10.6,6.6,13.1,10.3,13.3v0.5h-27.7v-0.5c5.4-0.1,7.1-3.8,4-13.5l-1.7-5.3h-17.7l-0.4,1.3
				c-1.1,3.1-1.7,5.5-1.7,8.1c0,7.1,6.7,9.1,11.2,9.4v0.5h-24L155.4,161.1z M170.5,141.9h17.3l-8.1-25.2L170.5,141.9z"/>
			<path fill="#144687" stroke="#144687" stroke-width="0.3795" stroke-miterlimit="10" d="M247.7,161.2c4.1,0,6.2-1.6,6.2-8.4
				v-16.8h-20.8v16.8c0,6.8,2.1,8.4,6.2,8.4v0.5h-24v-0.5c4.6,0,4.3-4.3,4.3-8.3v-34.6c0-4,0.3-8.3-4.3-8.3c0.1-0.3,0-0.4,0-0.5h24
				v0.5c-4.1,0-6.2,1.6-6.2,8.4v17.1H254v-17.1c0-6.8-2.1-8.4-6.2-8.4v-0.5h24c0,0.1-0.1,0.3,0,0.5c-4.6,0-4.3,4.3-4.3,8.3v34.6
				c0,4-0.3,8.3,4.3,8.3v0.5h-24V161.2z"/>
		</g>
		<g>
			<g>
				<rect x="168.7" y="81.8" fill="#144687" width="105.1" height="1.1"/>
			</g>
			<g>
				<rect x="0.6" y="81.8" fill="#144687" width="107.2" height="1.1"/>
			</g>
		</g>
		<g>
			<path fill="#144687" stroke="#144687" stroke-width="0.3795" stroke-miterlimit="10" d="M122.3,85.6c0-4.9,4.9-8.3,13.3-8.8
				c-3.9-0.3-9.6-1.9-9.6-5.8c0-2.6,2.9-5.1,11.6-5.1c4.4,0,7.2,1.8,7.2,4c0,2.5-3.5,3.7-5.7,3.7c-1.8,0-2.8-1-2.8-2.5
				c0-1.4,1.2-2.5,2.5-2.5c1.4,0,2.6,1.1,2.6,2.5c0,0.8-0.4,1.7-1,2.1c1.7-0.1,2.7-1.4,2.7-3.2c0-2.2-2.3-3.9-5.4-3.9
				c-3.4,0-5.3,2.4-5.3,5.2c0,2.8,2.9,5.3,5.8,5.3h1.3c0.4,0,0.4,0.3-0.1,0.3h-1.1c-6.4,0-9.1,4.6-9.1,8.7c0,4.7,3.3,8.1,8,8.1
				c4.1,0,6.8-2.7,6.8-6c0-1.9-1.3-4.4-4.6-4.4c-2.6,0-4.7,1.6-4.5,4.3c0.2-1.7,1.7-2.6,3-2.6c2,0,2.9,1.5,2.9,2.9
				c0,1.6-1.5,2.7-2.9,2.7c-2.2,0-3.4-1.8-3.4-4.1c0-4.3,3.3-8.4,11-8.4h1.7c4.4,0,7.7-0.9,7.7-3.5c0-1.1-0.9-2.5-2.2-2.7
				c0.3,0.4,0.4,0.8,0.4,1.2c0,1.4-0.9,2.6-2.6,2.6c-1.4,0-2.6-1.1-2.6-2.4c0-1.4,1.1-2.6,2.8-2.6c1.8,0,4.5,1.4,4.5,4.9
				c0,4.3-3.7,7.8-10.4,7.8h-3.9c2.8,0.6,5.1,2.3,5.1,4.4c0,3.7-4.6,6.1-9,6.1C126.2,93.9,122.3,89.7,122.3,85.6z"/>
		</g>
	</g>
</g>
<g id="nav">
</g>
<g id="baseline_grid" display="none">
</g>
<g id="vertical_grid" display="none">
</g>
<g id="notes">
</g>
</svg>
