<svg id="Layer_1" data-name="Layer 1" xmlns="http://www.w3.org/2000/svg" viewBox="0 0 170 80.01"><defs><style>.cls-1{fill:#e5e5e5;}.cls-2{fill:#163b79;}.cls-3{fill:#fff;}.cls-4{fill:#8bd7f8;}</style></defs><title>plane</title><path class="cls-1" d="M7349.47,666.89c-2.57-6.92-11.37-6.49-11.37-6.49a29.77,29.77,0,0,0-8.89-8.3c-5.85-3.56-13.41-1.51-13.41-1.51l-130,36.21s-3.75,1.26-3.32,4.6c0,0,58.77-1.75,96.38-5.68S7349.31,667,7349.47,666.89Z" transform="translate(-7180.31 -650)"/><path class="cls-1" d="M7185.64,695.43s63,15.83,129.66-.55c33.54-8.24,36.3-17.61,34.65-26.29a10.49,10.49,0,0,0-.47-1.69c-0.16.07-33.07,14.9-70.59,18.82s-96.38,5.68-96.38,5.68A4.62,4.62,0,0,0,7185.64,695.43Z" transform="translate(-7180.31 -650)"/><path class="cls-2" d="M7189.17,685.85l-8.86-32s4.54-2.64,9.84,1.44,24,23.68,24,23.68Z" transform="translate(-7180.31 -650)"/><path class="cls-3" d="M7311.14,664.18l0.92,3.33,26-7.19a29.74,29.74,0,0,0-7.25-7.18l-15.89,4.4A5.4,5.4,0,0,0,7311.14,664.18Z" transform="translate(-7180.31 -650)"/><path class="cls-4" d="M7278.88,685.71c-37.61,3.93-96.38,5.68-96.38,5.68a4.62,4.62,0,0,0,3.15,4s63,15.83,129.66-.55c33.54-8.24,36.3-17.61,34.65-26.29a10.5,10.5,0,0,0-.47-1.69C7349.31,667,7316.4,681.79,7278.88,685.71Z" transform="translate(-7180.31 -650)"/><path class="cls-2" d="M7300.56,682.27l-34,4.47-15.74,39.48a2.42,2.42,0,0,0,2.63,3.7l12.07-3.34a3.84,3.84,0,0,0,1.7-1Z" transform="translate(-7180.31 -650)"/><path class="cls-2" d="M7191.31,691L7185,707.27a2.48,2.48,0,0,0,4.16,2.54l27.8-25.89Z" transform="translate(-7180.31 -650)"/><circle class="cls-3" cx="7302.76" cy="665.49" r="2.83" transform="matrix(0.96, -0.27, 0.27, 0.96, -7093.32, 1321.53)"/><circle class="cls-3" cx="7293.68" cy="668" r="2.83" transform="translate(-7094.32 1319.2) rotate(-15.47)"/><circle class="cls-3" cx="7284.4" cy="670.57" r="2.83" transform="translate(-7095.34 1316.82) rotate(-15.47)"/><circle class="cls-3" cx="7275.39" cy="673.06" r="2.83" transform="translate(-7096.33 1314.51) rotate(-15.47)"/><circle class="cls-3" cx="7266.5" cy="675.52" r="2.83" transform="translate(-7097.31 1312.22) rotate(-15.47)"/></svg>