<?xml version="1.0" encoding="utf-8"?>
<!-- Generator: Adobe Illustrator 18.1.1, SVG Export Plug-In . SVG Version: 6.00 Build 0)  -->
<svg version="1.1" id="Layer_1" xmlns="http://www.w3.org/2000/svg" xmlns:xlink="http://www.w3.org/1999/xlink" x="0px" y="0px"
	 viewBox="0 0 60.7 70" enable-background="new 0 0 60.7 70" xml:space="preserve">
<g>
	<g>
		<g>
			<g>
				<g>
					<g>
						<polygon fill="#F1623A" points="30.3,70 40.4,52.5 20.3,52.5 						"/>
						<polygon fill="#F1623A" points="0,17.5 10.1,35 20.3,17.5 						"/>
						<polygon fill="#F1623A" points="60.7,17.5 40.4,17.5 50.5,35 						"/>
					</g>
					<polygon fill="#5FB8F2" points="30.3,0 20.3,17.5 40.4,17.5 					"/>
					<polygon fill="#5FB8F2" points="50.5,35 40.4,52.5 60.7,52.5 					"/>
					<polygon fill="#5FB8F2" points="0,52.5 20.3,52.5 10.1,35 					"/>
					<polygon fill="#FFFFFF" points="40.4,17.5 20.3,17.5 10.1,35 20.3,52.5 40.4,52.5 50.5,35 					"/>
				</g>
			</g>
		</g>
	</g>
	<g>
		<polygon fill="#1B468D" points="18.3,39.7 23.8,36.6 23.8,30.3 18.3,27.1 		"/>
		<polygon fill="#1B468D" points="36.9,30.3 36.9,36.6 42.4,39.7 42.4,27.1 		"/>
		<polygon fill="#1B468D" points="30.3,21.5 26.3,26.8 34.3,26.8 		"/>
		<rect x="25" y="28" fill="#1B468D" width="10.5" height="0.9"/>
		<path fill="#1B468D" d="M25,39.8l3.9,2.9v3.1c0,0-0.2,3.2,3.2,3.2c3.4,0,3.4-3.3,3.4-3.3v-1.5h-2l0,1.2c0,0,0,1.3-0.9,1.3
			c-1,0-0.9-1.3-0.9-1.3v-2.8l3.9-2.9v-9.5H25V39.8z M32.6,34c0.5,0,0.9,0.4,0.9,0.9c0,0.5-0.4,0.9-0.9,0.9s-0.9-0.4-0.9-0.9
			C31.7,34.5,32.1,34,32.6,34z M28.2,34c0.5,0,0.9,0.4,0.9,0.9c0,0.5-0.4,0.9-0.9,0.9s-0.9-0.4-0.9-0.9C27.3,34.5,27.7,34,28.2,34z"
			/>
	</g>
</g>
</svg>
