<?xml version="1.0" encoding="utf-8"?>
<!-- Generator: Adobe Illustrator 18.1.1, SVG Export Plug-In . SVG Version: 6.00 Build 0)  -->
<svg version="1.1" id="Layer_1" xmlns="http://www.w3.org/2000/svg" xmlns:xlink="http://www.w3.org/1999/xlink" x="0px" y="0px"
	 viewBox="0 0 280 130" enable-background="new 0 0 280 130" xml:space="preserve">
<g>
	<g>
		<g>
			<path fill="#E4E4E4" d="M0,123.2c0,3.7,3,6.8,6.8,6.8h112c3.7,0,6.8-3,6.8-6.8V49.5H0V123.2z"/>
			<path fill="#F26342" d="M118.8,15.3H6.8c-3.7,0-6.8,3-6.8,6.8V45h125.5V22.1C125.5,18.4,122.5,15.3,118.8,15.3z"/>
		</g>
		<g>
			<path fill="#FFFFFF" d="M43.2,34.2l2.1-1.3c0.4,0.7,0.8,1.3,1.7,1.3c0.8,0,1.4-0.3,1.4-1.6v-8.8h2.6v8.8c0,2.7-1.6,3.9-3.9,3.9
				C45,36.6,43.8,35.5,43.2,34.2z"/>
			<path fill="#FFFFFF" d="M56.7,31.8v-8h2.6v7.9c0,1.8,0.8,2.5,2.5,2.5c1.7,0,2.5-0.7,2.5-2.5v-7.9h2.6v8c0,3.2-2.2,4.7-5.1,4.7
				C58.9,36.6,56.7,35,56.7,31.8z"/>
			<path fill="#FFFFFF" d="M72.8,23.8h2.6v10.3h5.7v2.3h-8.3V23.8z"/>
		</g>
		<g>
			<path fill="#1B468D" d="M34.1,74.6h-8.6v-8.8H44v47.8h-9.9V74.6z"/>
			<path fill="#1B468D" d="M56.1,89.8c0-17,10.4-24.5,21-24.5c10.6,0,21,7.5,21,24.5s-10.4,24.5-21,24.5
				C66.5,114.3,56.1,106.8,56.1,89.8z M87.8,89.8c0-10.9-4.6-15.8-10.8-15.8c-6.2,0-10.8,4.9-10.8,15.8c0,10.9,4.6,15.8,10.8,15.8
				C83.3,105.6,87.8,100.6,87.8,89.8z"/>
		</g>
		<rect x="0" y="41.7" fill="#C94628" width="125.5" height="3.3"/>
		<path fill="#1B468D" d="M22,25h-1.5c-1.6,0-2.9-1.3-2.9-2.9V2.9C17.7,1.3,19,0,20.6,0H22c1.6,0,2.9,1.3,2.9,2.9v19.2
			C24.9,23.7,23.6,25,22,25z"/>
		<path fill="#1B468D" d="M107.4,25h-1.5c-1.6,0-2.9-1.3-2.9-2.9V2.9c0-1.6,1.3-2.9,2.9-2.9h1.5c1.6,0,2.9,1.3,2.9,2.9v19.2
			C110.2,23.7,108.9,25,107.4,25z"/>
	</g>
	<g>
		<circle fill="#F2B450" cx="216.6" cy="65.2" r="62.8"/>
		<circle fill="#FFFFFF" cx="216.6" cy="65.2" r="51.9"/>
		<g>
			<rect x="205.7" y="17.2" fill="none" width="21.6" height="21.7"/>
			<text transform="matrix(1 0 0 1 209.0056 33.9314)" fill="#1B468D" font-family="'Neutraface2Text-Bold'" font-size="15.0644">12</text>
		</g>
		<path fill="#CACACA" d="M169.7,70.3c0-28.6,23.2-51.9,51.9-51.9c13.2,0,25.2,4.9,34.4,13c-9.5-11.1-23.6-18.1-39.4-18.1
			c-28.6,0-51.9,23.2-51.9,51.9c0,15.5,6.8,29.3,17.5,38.8C174.4,95,169.7,83.2,169.7,70.3z"/>
		
			<polyline fill="none" stroke="#F26342" stroke-width="2.9085" stroke-linecap="round" stroke-linejoin="round" stroke-miterlimit="10" points="
			196.5,53.9 216.6,66.7 216.6,23.8 		"/>
		<circle fill="#F26342" cx="216.5" cy="65.2" r="3.2"/>
		<g>
			<rect x="205.7" y="93.2" fill="none" width="21.6" height="21.7"/>
			<text transform="matrix(1 0 0 1 211.9656 109.9236)" fill="#1B468D" font-family="'Neutraface2Text-Bold'" font-size="15.0644">6</text>
		</g>
		<g>
			<rect x="164.7" y="52.8" fill="none" width="21.6" height="21.7"/>
			<text transform="matrix(1 0 0 1 171.0149 69.5076)" fill="#1B468D" font-family="'Neutraface2Text-Bold'" font-size="15.0644">9</text>
		</g>
		<g>
			<rect x="247.4" y="52.8" fill="none" width="21.6" height="21.7"/>
			<text transform="matrix(1 0 0 1 253.9744 69.5076)" fill="#1B468D" font-family="'Neutraface2Text-Bold'" font-size="15.0644">3</text>
		</g>
	</g>
</g>
</svg>
