<?xml version="1.0" encoding="utf-8"?>
<!-- Generator: Adobe Illustrator 18.1.1, SVG Export Plug-In . SVG Version: 6.00 Build 0)  -->
<svg version="1.1" id="Layer_1" xmlns="http://www.w3.org/2000/svg" xmlns:xlink="http://www.w3.org/1999/xlink" x="0px" y="0px"
	 viewBox="0 0 280 130" enable-background="new 0 0 280 130" xml:space="preserve">
<g>
	<g>
		<g>
			<path fill="#E4E4E4" d="M0.3,123.5c0,3.7,3,6.8,6.8,6.8h112c3.7,0,6.8-3,6.8-6.8V49.8H0.3V123.5z"/>
			<path fill="#F26342" d="M119.1,15.6H7.1c-3.7,0-6.8,3-6.8,6.8v22.9h125.5V22.4C125.9,18.6,122.8,15.6,119.1,15.6z"/>
		</g>
		<g>
			<path fill="#FFFFFF" d="M43.5,34.4l2.1-1.3c0.4,0.7,0.8,1.3,1.7,1.3c0.8,0,1.4-0.3,1.4-1.6v-8.8h2.6v8.8c0,2.7-1.6,3.9-3.9,3.9
				C45.3,36.8,44.1,35.7,43.5,34.4z"/>
			<path fill="#FFFFFF" d="M57,32.1v-8h2.6V32c0,1.8,0.8,2.5,2.5,2.5c1.7,0,2.5-0.7,2.5-2.5v-7.9h2.6v8c0,3.2-2.2,4.7-5.1,4.7
				C59.2,36.8,57,35.3,57,32.1z"/>
			<path fill="#FFFFFF" d="M73.1,24.1h2.6v10.3h5.7v2.3h-8.3V24.1z"/>
		</g>
		<g>
			<path fill="#1B468D" d="M34.4,74.9h-8.6v-8.8h18.5v47.8h-9.9V74.9z"/>
			<path fill="#1B468D" d="M56.4,90c0-17,10.4-24.5,21-24.5c10.6,0,21,7.5,21,24.5s-10.4,24.5-21,24.5C66.8,114.5,56.4,107,56.4,90z
				 M88.2,90c0-10.9-4.6-15.8-10.8-15.8c-6.2,0-10.8,4.9-10.8,15.8c0,10.9,4.6,15.8,10.8,15.8C83.6,105.8,88.2,100.9,88.2,90z"/>
		</g>
		<rect x="0.3" y="41.9" fill="#C94628" width="125.5" height="3.3"/>
		<path fill="#1B468D" d="M22.4,25.3h-1.5c-1.6,0-2.9-1.3-2.9-2.9V3.1c0-1.6,1.3-2.9,2.9-2.9h1.5c1.6,0,2.9,1.3,2.9,2.9v19.2
			C25.2,24,24,25.3,22.4,25.3z"/>
		<path fill="#1B468D" d="M107.7,25.3h-1.5c-1.6,0-2.9-1.3-2.9-2.9V3.1c0-1.6,1.3-2.9,2.9-2.9h1.5c1.6,0,2.9,1.3,2.9,2.9v19.2
			C110.6,24,109.3,25.3,107.7,25.3z"/>
	</g>
	<g>
		<circle fill="#F2B450" cx="216.9" cy="65.5" r="62.8"/>
		<circle fill="#FFFFFF" cx="216.9" cy="65.5" r="51.9"/>
		<g>
			<rect x="206" y="17.4" fill="none" width="21.6" height="21.7"/>
			<text transform="matrix(1 0 0 1 209.3345 34.1835)" fill="#1B468D" font-family="'Neutraface2Text-Bold'" font-size="15.0644">12</text>
		</g>
		<path fill="#CACACA" d="M170,70.6c0-28.6,23.2-51.9,51.9-51.9c13.2,0,25.2,4.9,34.4,13c-9.5-11.1-23.6-18.1-39.4-18.1
			c-28.6,0-51.9,23.2-51.9,51.9c0,15.5,6.8,29.3,17.5,38.8C174.8,95.2,170,83.5,170,70.6z"/>
		
			<polyline fill="none" stroke="#F26342" stroke-width="2.9085" stroke-linecap="round" stroke-linejoin="round" stroke-miterlimit="10" points="
			216.8,90 216.9,66.9 216.9,24 		"/>
		<circle fill="#F26342" cx="216.8" cy="65.5" r="3.2"/>
		<g>
			<rect x="206" y="93.4" fill="none" width="21.6" height="21.7"/>
			<text transform="matrix(1 0 0 1 212.2944 110.1757)" fill="#1B468D" font-family="'Neutraface2Text-Bold'" font-size="15.0644">6</text>
		</g>
		<g>
			<rect x="165" y="53" fill="none" width="21.6" height="21.7"/>
			<text transform="matrix(1 0 0 1 171.3438 69.7596)" fill="#1B468D" font-family="'Neutraface2Text-Bold'" font-size="15.0644">9</text>
		</g>
		<g>
			<rect x="247.8" y="53" fill="none" width="21.6" height="21.7"/>
			<text transform="matrix(1 0 0 1 254.3032 69.7596)" fill="#1B468D" font-family="'Neutraface2Text-Bold'" font-size="15.0644">3</text>
		</g>
	</g>
</g>
</svg>
