<?xml version="1.0" encoding="utf-8"?>
<!-- Generator: Adobe Illustrator 20.0.0, SVG Export Plug-In . SVG Version: 6.00 Build 0)  -->
<svg version="1.1" id="Layer_1" xmlns="http://www.w3.org/2000/svg" xmlns:xlink="http://www.w3.org/1999/xlink" x="0px" y="0px"
	 viewBox="0 0 280 130" enable-background="new 0 0 280 130" xml:space="preserve">
<g>
	<g>
		<circle fill="#F2B450" cx="216.6" cy="65.2" r="62.8"/>
		<circle fill="#FFFFFF" cx="216.6" cy="65.2" r="51.9"/>
		<g>
			<rect x="205.7" y="17.1" fill="none" width="21.6" height="21.7"/>
			<text transform="matrix(1 0 0 1 209.0209 33.8583)" fill="#1B468D" font-family="'Neutraface2Text-Bold'" font-size="15.0644px">12</text>
		</g>
		<path fill="#CACACA" d="M169.7,70.3c0-28.6,23.2-51.9,51.9-51.9c13.2,0,25.2,4.9,34.4,13c-9.5-11.1-23.6-18.1-39.4-18.1
			c-28.6,0-51.9,23.2-51.9,51.9c0,15.5,6.8,29.3,17.5,38.8C174.4,94.9,169.7,83.1,169.7,70.3z"/>
		<circle fill="#F26342" cx="216.5" cy="65.2" r="3.2"/>
		<g>
			<rect x="205.7" y="93.1" fill="none" width="21.6" height="21.7"/>
			
				<text transform="matrix(1 0 0 1 211.9808 109.8505)" fill="#1B468D" font-family="'Neutraface2Text-Bold'" font-size="15.0644px">6</text>
		</g>
		<g>
			<rect x="164.7" y="52.7" fill="none" width="21.6" height="21.7"/>
			<text transform="matrix(1 0 0 1 171.0301 69.4344)" fill="#1B468D" font-family="'Neutraface2Text-Bold'" font-size="15.0644px">9</text>
		</g>
		<g>
			<rect x="247.5" y="52.7" fill="none" width="21.6" height="21.7"/>
			<text transform="matrix(1 0 0 1 253.9896 69.4344)" fill="#1B468D" font-family="'Neutraface2Text-Bold'" font-size="15.0644px">3</text>
		</g>
		
			<polyline fill="none" stroke="#F26342" stroke-width="2.9085" stroke-linecap="round" stroke-linejoin="round" stroke-miterlimit="10" points="
			228.7,87.1 216.6,65.6 216.6,110.2 		"/>
	</g>
	<g>
		<g>
			<path fill="#E4E4E4" d="M0,123.2c0,3.7,3,6.8,6.8,6.8h112c3.7,0,6.8-3,6.8-6.8V49.5H0V123.2z"/>
			<path fill="#F26342" d="M118.8,15.3H6.8c-3.7,0-6.8,3-6.8,6.8V45h125.6V22.1C125.6,18.4,122.5,15.3,118.8,15.3z"/>
		</g>
		<rect x="0" y="41.7" fill="#C94628" width="125.6" height="3.3"/>
		<path fill="#1B468D" d="M21.3,25L21.3,25c-2,0-3.6-1.6-3.6-3.6V3.6c0-2,1.6-3.6,3.6-3.6h0c2,0,3.6,1.6,3.6,3.6v17.8
			C24.9,23.4,23.3,25,21.3,25z"/>
		<path fill="#1B468D" d="M106.6,25L106.6,25c-2,0-3.6-1.6-3.6-3.6V3.6c0-2,1.6-3.6,3.6-3.6h0c2,0,3.6,1.6,3.6,3.6v17.8
			C110.3,23.4,108.6,25,106.6,25z"/>
		<g>
			<path fill="#FFFFFF" d="M48.3,23.9h0.2l5.7,12.5h-2.7l-0.7-1.7H46l-0.7,1.7h-2.5L48.3,23.9z M49.9,32.6l-0.8-1.9
				c-0.3-0.8-0.7-2.1-0.7-2.2c0,0.1-0.4,1.4-0.7,2.2l-0.8,1.9H49.9z"/>
			<path fill="#FFFFFF" d="M57.1,31.9V24h2.6v7.8c0,1.8,0.8,2.5,2.5,2.5c1.7,0,2.4-0.7,2.4-2.5V24h2.6v7.9c0,3.1-2.2,4.7-5,4.7
				C59.3,36.6,57.1,35,57.1,31.9z"/>
			<path fill="#FFFFFF" d="M71.3,30.2c0-3.7,2.6-6.4,6.3-6.4c2,0,3.5,0.5,4.5,1.7l-1.7,1.7c-0.6-0.6-1.3-1.1-2.8-1.1
				c-2.2,0-3.7,1.7-3.7,4.1c0,2.3,1.5,4.1,4.1,4.1c0.8,0,1.8-0.1,2.4-0.5v-2h-3v-2.2h5.3v5.6c-0.7,0.6-2.5,1.4-4.8,1.4
				C74,36.6,71.3,33.9,71.3,30.2z"/>
		</g>
		<g>
			<path fill="#1B468D" d="M20.4,113.1l19.6-20.4c5-5.2,6.6-8.5,6.6-11.6c0-3.4-2-6.2-6.4-6.2c-4.3,0-7.1,3.1-8.5,7.8l-9.9-2
				c2-8.6,8.3-14.9,18.5-14.9c10.1,0,16.3,6.4,16.3,15.2c0,5.2-2.4,9.9-8,15.7l-5.9,6.2c-1.3,1.3-3.4,2.7-3.4,2.7s2.2-0.3,3.9-0.3
				h13v8.6H20.4V113.1z"/>
			<path fill="#1B468D" d="M89.5,75.1H66.7v-8.7h37.2v0.8l-22.4,46.7H71.1L89.5,75.1z"/>
		</g>
	</g>
</g>
</svg>
