<?xml version="1.0" encoding="utf-8"?>
<!-- Generator: Adobe Illustrator 18.1.1, SVG Export Plug-In . SVG Version: 6.00 Build 0)  -->
<svg version="1.1" id="Layer_1" xmlns="http://www.w3.org/2000/svg" xmlns:xlink="http://www.w3.org/1999/xlink" x="0px" y="0px"
	 viewBox="0 0 280 130" enable-background="new 0 0 280 130" xml:space="preserve">
<g>
	<g>
		<circle fill="#F2B450" cx="216.6" cy="65.2" r="62.8"/>
		<circle fill="#FFFFFF" cx="216.6" cy="65.2" r="51.9"/>
		<g>
			<rect x="205.7" y="17.1" fill="none" width="21.6" height="21.7"/>
			<text transform="matrix(1 0 0 1 209.0215 33.8583)" fill="#1B468D" font-family="'Neutraface2Text-Bold'" font-size="15.0644">12</text>
		</g>
		<path fill="#CACACA" d="M169.7,70.3c0-28.6,23.2-51.9,51.9-51.9c13.2,0,25.2,4.9,34.4,13c-9.5-11.1-23.6-18.1-39.4-18.1
			c-28.6,0-51.9,23.2-51.9,51.9c0,15.5,6.8,29.3,17.5,38.8C174.4,94.9,169.7,83.1,169.7,70.3z"/>
		
			<polyline fill="none" stroke="#F26342" stroke-width="2.9085" stroke-linecap="round" stroke-linejoin="round" stroke-miterlimit="10" points="
			216.5,89.7 216.6,66.6 216.6,23.7 		"/>
		<circle fill="#F26342" cx="216.5" cy="65.2" r="3.2"/>
		<g>
			<rect x="205.7" y="93.1" fill="none" width="21.6" height="21.7"/>
			<text transform="matrix(1 0 0 1 211.9814 109.8505)" fill="#1B468D" font-family="'Neutraface2Text-Bold'" font-size="15.0644">6</text>
		</g>
		<g>
			<rect x="164.7" y="52.7" fill="none" width="21.6" height="21.7"/>
			<text transform="matrix(1 0 0 1 171.0308 69.4344)" fill="#1B468D" font-family="'Neutraface2Text-Bold'" font-size="15.0644">9</text>
		</g>
		<g>
			<rect x="247.5" y="52.7" fill="none" width="21.6" height="21.7"/>
			<text transform="matrix(1 0 0 1 253.9902 69.4344)" fill="#1B468D" font-family="'Neutraface2Text-Bold'" font-size="15.0644">3</text>
		</g>
	</g>
	<g>
		<g>
			<path fill="#E4E4E4" d="M0,123.2c0,3.7,3,6.8,6.8,6.8h112c3.7,0,6.8-3,6.8-6.8V49.5H0V123.2z"/>
			<path fill="#F26342" d="M118.8,15.3H6.8c-3.7,0-6.8,3-6.8,6.8V45h125.6V22.1C125.6,18.4,122.5,15.3,118.8,15.3z"/>
		</g>
		<g>
			<path fill="#1B468D" d="M60.3,103.2c2-3,4.4-5.3,4.4-5.3c-1.2,0.6-3.4,0.8-4.5,0.8c-8.9,0-15.9-6.5-15.9-16.1
				c0-9.4,7.5-17.1,18.5-17.1c10.8,0,18.5,7.5,18.5,16.7c0,4.6-1.9,8.9-4.7,13.1L64,114H53.1L60.3,103.2z M71.1,82.6
				c0-4.4-3.2-8.2-8.4-8.2c-5.4,0-8.4,3.9-8.4,8.2c0,4.4,2.8,8.4,8.4,8.4C68,91.1,71.1,87.2,71.1,82.6z"/>
		</g>
		<g>
			<path fill="#FFFFFF" d="M43.2,34.2l2.1-1.3c0.4,0.7,0.8,1.3,1.7,1.3c0.9,0,1.4-0.3,1.4-1.6v-8.8h2.6v8.8c0,2.7-1.6,3.9-3.9,3.9
				C45,36.6,43.8,35.5,43.2,34.2z"/>
			<path fill="#FFFFFF" d="M56.7,31.9v-8h2.6v7.9c0,1.8,0.8,2.5,2.5,2.5c1.7,0,2.5-0.7,2.5-2.5v-7.9h2.6v8c0,3.2-2.2,4.7-5.1,4.7
				C58.9,36.6,56.7,35,56.7,31.9z"/>
			<path fill="#FFFFFF" d="M72.8,23.8h2.6v10.3h5.7v2.3h-8.3V23.8z"/>
		</g>
		<rect x="0" y="41.7" fill="#C94628" width="125.6" height="3.3"/>
		<path fill="#1B468D" d="M21.3,25L21.3,25c-2,0-3.6-1.6-3.6-3.6V3.6c0-2,1.6-3.6,3.6-3.6h0c2,0,3.6,1.6,3.6,3.6v17.8
			C24.9,23.4,23.3,25,21.3,25z"/>
		<path fill="#1B468D" d="M106.6,25L106.6,25c-2,0-3.6-1.6-3.6-3.6V3.6c0-2,1.6-3.6,3.6-3.6h0c2,0,3.6,1.6,3.6,3.6v17.8
			C110.3,23.4,108.6,25,106.6,25z"/>
	</g>
</g>
</svg>
