<?xml version="1.0" encoding="utf-8"?>
<!-- Generator: Adobe Illustrator 18.1.1, SVG Export Plug-In . SVG Version: 6.00 Build 0)  -->
<svg version="1.1" id="Layer_1" xmlns="http://www.w3.org/2000/svg" xmlns:xlink="http://www.w3.org/1999/xlink" x="0px" y="0px"
	 viewBox="0 0 276 130" enable-background="new 0 0 276 130" xml:space="preserve">
<g>
	<g>
		<path fill="#1B468D" d="M266,108.5c5.4-2.2,9.2-7.6,9.2-13.8V49.8c0-8.3-6.7-15-15-15h-10.1L248,25c-0.8-3.7-4.1-6.4-7.9-6.4
			h-22.5c-3.8,0-7.1,2.7-7.9,6.4l-2.1,9.9h-15.1L266,108.5z"/>
		<path fill="#1B468D" d="M162.1,35.1c-7,1.2-12.4,7.3-12.4,14.7v44.8c0,8.3,6.7,15,15,15h72L162.1,35.1z"/>
	</g>
	<g>
		<path fill="#1B468D" d="M44,18.2h25.6c7.6,0,13.8,6.2,13.8,13.8v28.3c0,5.3-3,9.9-7.4,12.3l16.3,16.3V32.6
			c0-13.5-11-24.5-24.5-24.5h-22c-3.2,0-6.3,0.6-9.1,1.8V4.1c0-2.3-1.8-4.1-4.1-4.1h-0.7c-2.3,0-4.1,1.8-4.1,4.1V16
			c-1.4,1.5-2.6,3.1-3.5,4.9l6.6,6.6C32.8,22.1,37.9,18.2,44,18.2z"/>
		<path fill="#1B468D" d="M46.7,74.2H44c-7.6,0-13.8-6.2-13.8-13.8v-2.7l-8.9-8.9v56.7c0,13.5,11,24.5,24.5,24.5h22
			c9.4,0,17.6-5.3,21.7-13.1L46.7,74.2z"/>
	</g>
	<path fill="#E4E4E4" d="M37.6,92.7h-4.3c-1.7,0-3.1-1.4-3.1-3.1V89c0-1.7,1.4-3.1,3.1-3.1h4.3c1.7,0,3.1,1.4,3.1,3.1v0.5
		C40.7,91.3,39.3,92.7,37.6,92.7z"/>
	<path fill="#E4E4E4" d="M51.8,92.7h-4.3c-1.7,0-3.1-1.4-3.1-3.1V89c0-1.7,1.4-3.1,3.1-3.1h4.3c1.7,0,3.1,1.4,3.1,3.1v0.5
		C54.9,91.3,53.5,92.7,51.8,92.7z"/>
	<path fill="#E4E4E4" d="M37.6,106.1h-4.3c-1.7,0-3.1-1.4-3.1-3.1v-0.5c0-1.7,1.4-3.1,3.1-3.1h4.3c1.7,0,3.1,1.4,3.1,3.1v0.5
		C40.7,104.7,39.3,106.1,37.6,106.1z"/>
	<path fill="#E4E4E4" d="M51.8,106.1h-4.3c-1.7,0-3.1-1.4-3.1-3.1v-0.5c0-1.7,1.4-3.1,3.1-3.1h4.3c1.7,0,3.1,1.4,3.1,3.1v0.5
		C54.9,104.7,53.5,106.1,51.8,106.1z"/>
	<path fill="#E4E4E4" d="M66.1,106.1h-4.3c-1.7,0-3.1-1.4-3.1-3.1v-0.5c0-1.7,1.4-3.1,3.1-3.1h4.3c1.7,0,3.1,1.4,3.1,3.1v0.5
		C69.2,104.7,67.8,106.1,66.1,106.1z"/>
	<path fill="#E4E4E4" d="M51.8,119.6h-4.3c-1.7,0-3.1-1.4-3.1-3.1V116c0-1.7,1.4-3.1,3.1-3.1h4.3c1.7,0,3.1,1.4,3.1,3.1v0.5
		C54.9,118.2,53.5,119.6,51.8,119.6z"/>
	<path fill="#E4E4E4" d="M66.1,119.6h-4.3c-1.7,0-3.1-1.4-3.1-3.1V116c0-1.7,1.4-3.1,3.1-3.1h4.3c1.7,0,3.1,1.4,3.1,3.1v0.5
		C69.2,118.2,67.8,119.6,66.1,119.6z"/>
	<g>
		<path fill="#0F3778" d="M198.8,72.2c0-0.2,0-0.3,0-0.5l-10.9-10.9h-38.2v34.1h60C203,89.6,198.8,81.4,198.8,72.2z"/>
		<path fill="#0F3778" d="M249.1,91.6l3.3,3.3h22.8V60.8h-21c1.5,3.5,2.3,7.3,2.3,11.4C256.6,79.7,253.7,86.5,249.1,91.6z"/>
	</g>
	<circle fill="#F26342" cx="182.4" cy="71.5" r="3.8"/>
	<g>
		
			<rect x="136.9" y="63.9" transform="matrix(0.7071 0.7071 -0.7071 0.7071 110.7599 -129.2253)" fill="#F26342" width="148.9" height="10.5"/>
	</g>
	<g>
		<path fill="#E4E4E4" d="M73.4,100.8c-0.3,0.5-0.5,1-0.5,1.7v0.5c0,1.7,1.4,3.1,3.1,3.1h2.7L73.4,100.8z"/>
		<path fill="#E4E4E4" d="M59.5,86.9c-0.5,0.6-0.8,1.3-0.8,2.1v0.5c0,1.7,1.4,3.1,3.1,3.1h3.5L59.5,86.9z"/>
	</g>
	<g>
		<path fill="#8BD7F8" d="M64.5,51c0.4-0.4,0.4-1,0-1.4s-1-0.4-1.4,0l-4.9,4.9c-0.1,0.1-0.1,0.1-0.1,0.2l1.4,1.4
			c0.1,0,0.1-0.1,0.2-0.1L64.5,51z"/>
		<path fill="#8BD7F8" d="M54,50.6l18.1-18.1c0.4-0.4,0.4-1,0-1.4s-1-0.4-1.4,0L52.6,49.2L54,50.6z"/>
		<path fill="#8BD7F8" d="M48.9,45.5L61,33.3c0.4-0.4,0.4-1,0-1.4s-1-0.4-1.4,0L47.5,44.1L48.9,45.5z"/>
	</g>
	<g>
		
			<rect x="-18.3" y="63.8" transform="matrix(0.7071 0.7071 -0.7071 0.7071 65.5422 -20.0921)" fill="#F26342" width="150.7" height="10.6"/>
	</g>
	<path fill="#8BD7F8" d="M239.7,82.2c2.2-2.7,3.6-6.2,3.6-10c0-8.6-7-15.6-15.6-15.6c-3.8,0-7.2,1.3-10,3.6L239.7,82.2z"/>
	<path fill="#FFFFFF" d="M222.6,65.1c0.9-1.6,2.2-3,4-3.7c0,0-3-0.3-5.8,1.9L222.6,65.1z"/>
	<g>
		<path fill="#E4E4E4" d="M210.8,53.3c4.5-4,10.4-6.4,16.8-6.4c14,0,25.4,11.4,25.4,25.4c0,6.5-2.4,12.4-6.4,16.8l5,5
			c5.3-5.8,8.5-13.5,8.5-21.9c0-17.9-14.6-32.5-32.5-32.5c-8.4,0-16.1,3.2-21.9,8.5L210.8,53.3z"/>
		<path fill="#E4E4E4" d="M224.4,97.4C213,95.9,204,86.9,202.5,75.5l-7.1-7.1c-0.1,1.3-0.2,2.5-0.2,3.8c0,17.9,14.6,32.5,32.5,32.5
			c1.3,0,2.6-0.1,3.8-0.2L224.4,97.4z"/>
	</g>
</g>
</svg>
