<svg xmlns="http://www.w3.org/2000/svg" viewBox="0 0 330.46 491.33"><defs><style>.cls-1{isolation:isolate;}.cls-2{fill:#e4e4e4;}.cls-3{fill:#e79a4d;}.cls-4{fill:#231f20;}.cls-5,.cls-6{fill:#d17730;opacity:0.3;}.cls-5{mix-blend-mode:screen;}.cls-10,.cls-11,.cls-13,.cls-17,.cls-6,.cls-9{mix-blend-mode:multiply;}.cls-7{fill:#54372a;}.cls-8{fill:#ffdb00;}.cls-10,.cls-9{fill:#9973b4;}.cls-10,.cls-16{opacity:0.5;}.cls-11,.cls-15,.cls-16,.cls-18{fill:#f2623a;}.cls-12{fill:#f9d6ba;}.cls-13{fill:#86d5f8;}.cls-14,.cls-17{fill:#b48257;}.cls-15{opacity:0.25;}.cls-19{fill:#a68169;}.cls-20{font-size:60px;stroke:#144687;stroke-miterlimit:10;font-family:Hera Big;font-weight:700;}.cls-20,.cls-21{fill:#144687;}.cls-21{font-size:24px;font-family:Tribute;}</style></defs><title>unsupportedBrowser</title><g class="cls-1"><g id="text_images" data-name="text/images"><rect class="cls-2" width="330.46" height="100" rx="30.32" ry="30.32"/><rect class="cls-2" y="112" width="294.06" height="160" rx="30.14" ry="30.14"/><path class="cls-3" d="M563.64,2510.08a36.14,36.14,0,0,0-5.49-19.2l-1.09-23.17c-4.48-38-36.52-57.28-58.78-57.28-22.44,0-54.3,19.32-58.78,57.28l-1.1,23.55A36.11,36.11,0,0,0,433.2,2508a25.07,25.07,0,0,0,2.05,14.32,36.37,36.37,0,0,0,10.67,15.42c1.57,6.28,5.11,17.19,13.41,25.76,20.57,21.26,28.68,24.3,38.91,24.3h0.08c10.23,0,18.33-3,38.91-24.3,8.19-8.46,11.74-19.2,13.34-25.51a36.33,36.33,0,0,0,11.78-18.31,25,25,0,0,0,1.27-8.76C563.63,2510.64,563.64,2510.36,563.64,2510.08Z" transform="translate(-422.92 -2097)"/><path class="cls-4" d="M506.53,2488.47l-1,4.53s20.68-9.91,28.82-7.69a42.57,42.57,0,0,1,10.7,4.94s-4-5.21-7.47-7.17C526.55,2476.9,506.53,2488.47,506.53,2488.47Z" transform="translate(-422.92 -2097)"/><path class="cls-4" d="M489.89,2488.47l1,4.53s-20.68-10.91-28.82-8.69c-5.55,1.52-10.7,5.94-10.7,5.94s4-6.21,7.47-8.17C469.87,2475.9,489.89,2488.47,489.89,2488.47Z" transform="translate(-422.92 -2097)"/><circle class="cls-5" cx="41" cy="423.84" r="12.83"/><circle class="cls-5" cx="109.73" cy="423.84" r="12.83"/><polygon class="cls-6" points="84.88 438.17 65.71 438.17 72.14 400.19 78.45 400.19 84.88 438.17"/><circle class="cls-6" cx="65.71" cy="433.05" r="5.12"/><circle class="cls-6" cx="84.87" cy="433.05" r="5.12"/><circle class="cls-7" cx="53.28" cy="400.96" r="5.5"/><circle class="cls-7" cx="107.3" cy="400.96" r="5.5"/><circle class="cls-8" cx="16.57" cy="430.97" r="4.48"/><circle class="cls-8" cx="133.28" cy="430.97" r="4.48"/><polygon class="cls-9" points="81.69 451.88 75.34 453.51 68.98 451.88 52.43 457.89 75.34 459.35 98.24 457.89 81.69 451.88"/><path class="cls-10" d="M498.26,2563.46c11.25,0,22.86-8.56,22.86-8.56l-22.88,1.45-22.88-1.45s11.42,8.56,22.86,8.56h0Z" transform="translate(-422.92 -2097)"/><circle class="cls-11" cx="75.34" cy="384.08" r="2.36"/><circle class="cls-8" cx="61.32" cy="429.65" r="1.46"/><path class="cls-3" d="M451.39,2492.46v14.93h39.22l-1-14.93H451.39Zm20.81,10.7c-10.19,0-14.05-5.2-14.05-5.2s13.35-9.54,27.55,0C485.7,2498,482.39,2503.16,472.2,2503.16Z" transform="translate(-422.92 -2097)"/><path class="cls-3" d="M507.65,2492.46v14.93h39.22v-14.93H507.65Zm18.9,10.7c-10.19,0-14.05-5.2-14.05-5.2s13.35-9.54,27.55,0C540.06,2498,536.74,2503.16,526.56,2503.16Z" transform="translate(-422.92 -2097)"/><path class="cls-12" d="M749.3,2506a34.27,34.27,0,0,0-7.23-21.1v-17.65l-0.1-.1a67.46,67.46,0,0,0-67.4-66.51h0a67.46,67.46,0,0,0-67.45,66.59l0,0v16.29a34.39,34.39,0,0,0,1.08,46.13c1.49,7,2,15.75,8.83,24.45,13.05,16.65,42.76,34.2,42.76,34.2h29.7s29.7-17.55,42.76-34.2c7.36-9.39,7.82-18.85,9.15-26.06A34.29,34.29,0,0,0,749.3,2506Z" transform="translate(-422.92 -2097)"/><circle class="cls-13" cx="223.37" cy="396.15" r="5.64"/><circle class="cls-13" cx="279.91" cy="396.15" r="5.64"/><polygon class="cls-14" points="239.23 370.89 239.23 376.97 212.91 381.97 202.1 390.51 210.88 375.89 239.23 370.89"/><polygon class="cls-14" points="264.04 370.89 264.04 376.97 290.37 381.97 301.17 390.51 292.39 375.89 264.04 370.89"/><path class="cls-14" d="M607,2515.51h6.08v-46.66s31.81-47.1,31.81-64.06h-9.28c-12.07,0-28.61,16.54-28.61,28.61v82.11Z" transform="translate(-422.92 -2097)"/><path class="cls-14" d="M742.32,2515.51h-6.08v-46.66s-31.81-47.1-31.81-64.06h9.28c12.07,0,28.61,16.54,28.61,28.61v82.11Z" transform="translate(-422.92 -2097)"/><path class="cls-14" d="M713.88,2404.79s-9.71-12.9-33.93-12.9c-24.64,0-25.48,10.8-50.88,4.05,0,0,8.95,43,43.76,43S713.88,2404.79,713.88,2404.79Z" transform="translate(-422.92 -2097)"/><circle class="cls-15" cx="216.9" cy="423.08" r="13.21"/><circle class="cls-15" cx="285.54" cy="423.08" r="13.21"/><path class="cls-15" d="M674.56,2515a13.21,13.21,0,0,0-13.21,13.21h26.42A13.21,13.21,0,0,0,674.56,2515Z" transform="translate(-422.92 -2097)"/><polygon class="cls-16" points="251.64 450.15 251.64 450.15 224.75 454.15 241.24 458.25 262.04 458.25 278.52 454.15 251.64 450.15"/><polygon class="cls-17" points="245.29 458.25 251.64 463.43 257.99 458.25 245.29 458.25"/><polygon class="cls-18" points="258.64 446.44 251.57 447.47 244.63 446.44 224.75 454.15 251.64 451.88 278.52 454.15 258.64 446.44"/><rect class="cls-15" x="245.52" y="392.83" width="12.23" height="32.68"/><polygon class="cls-12" points="230.11 399.14 216.9 399.14 223.51 405.44 230.11 399.14"/><polygon class="cls-12" points="286.51 399.14 273.3 399.14 279.91 405.44 286.51 399.14"/><circle class="cls-19" cx="212.05" cy="402.52" r="1.46"/><text class="cls-20" transform="translate(43.71 72.27)">OOPS!</text><text class="cls-21" transform="translate(34.63 152)">Micah didn’t build this <tspan x="1.69" y="30">site to support Internet </tspan><tspan x="22.88" y="60">Explorer 7, 8, or 9. </tspan><tspan x="32.62" y="90">He is very sorry.</tspan></text><path class="cls-2" d="M739.12,2181.94s32,70.2,0,207.56c0,0,14.25-134.07-22.15-193.11Z" transform="translate(-422.92 -2097)"/><path class="cls-2" d="M441.09,2343.44s-14.95,35.56,2.34,63c0,0-1.19-34.59,17.26-50Z" transform="translate(-422.92 -2097)"/></g></g></svg>