<?xml version="1.0" encoding="utf-8"?>
<!-- Generator: Adobe Illustrator 18.1.1, SVG Export Plug-In . SVG Version: 6.00 Build 0)  -->
<svg version="1.1" id="Layer_1" xmlns="http://www.w3.org/2000/svg" xmlns:xlink="http://www.w3.org/1999/xlink" x="0px" y="0px"
	 viewBox="0 0 241 130" enable-background="new 0 0 241 130" xml:space="preserve">
<g>
	<rect x="144.1" y="37.4" fill="#E4E4E4" width="85" height="26.8"/>
	<rect x="144.1" y="37.4" fill="#B1B1B1" width="88.2" height="13.4"/>
	<polygon fill="#E4E4E4" points="62.6,67.1 3.5,87.8 3.5,130 62.6,130 	"/>
	<line fill="none" stroke="#808080" stroke-width="2.8747" stroke-miterlimit="10" x1="66.3" y1="65.8" x2="0" y2="89.1"/>
	<polygon fill="#E4E4E4" points="144.3,37.4 103.4,0 62.4,37.4 62.4,130 144.3,130 	"/>
	<rect x="144.1" y="64.2" fill="#4D4D4D" width="91" height="65.8"/>
	<rect x="144.1" y="64.2" fill="#B1B1B1" width="94.9" height="23.3"/>
	<polyline fill="none" stroke="#808080" stroke-width="2.6977" stroke-miterlimit="10" points="59.4,40.8 103.4,0 147.8,41.4 	"/>
	<path fill="#E4E4E4" d="M236.2,87.5V130h-3.9V95c-3.3-0.9-5.8-3.9-5.8-7.5h1c0,3.1,2,5.6,4.8,6.5v-6.5H236.2z M157.6,94v-6.5h-3.9
		V94c-2.8-0.8-4.8-3.4-4.8-6.5h-1c0,3.6,2.5,6.6,5.8,7.5v35h3.9V95c3.3-0.9,5.8-3.9,5.8-7.5h-1C162.4,90.6,160.4,93.2,157.6,94z
		 M183.8,94v-6.5h-3.9V94c-2.8-0.8-4.8-3.4-4.8-6.5h-1c0,3.6,2.5,6.6,5.8,7.5v35h3.9V95c3.3-0.9,5.8-3.9,5.8-7.5h-1
		C188.6,90.6,186.6,93.2,183.8,94z M210,94v-6.5h-3.9V94c-2.8-0.8-4.8-3.4-4.8-6.5h-1c0,3.6,2.5,6.6,5.8,7.5v35h3.9V95
		c3.3-0.9,5.8-3.9,5.8-7.5h-1C214.8,90.6,212.8,93.2,210,94z"/>
	<polygon fill="#E4E4E4" points="235.1,108.3 144.1,108.3 144.1,108.8 143.4,108.8 143.4,130 145.3,130 145.3,109.2 148.9,109.2 
		148.9,130 150.8,130 150.8,109.2 156.4,109.2 156.4,130 158.3,130 158.3,109.2 162.1,109.2 162.1,130 164,130 164,109.2 
		167.8,109.2 167.8,130 169.8,130 169.8,109.2 173.6,109.2 173.6,130 175.5,130 175.5,109.2 179.3,109.2 179.3,130 181.3,130 
		181.3,109.2 185.1,109.2 185.1,130 187,130 187,109.2 190.8,109.2 190.8,130 192.8,130 192.8,109.2 196.6,109.2 196.6,130 
		198.5,130 198.5,109.2 202.3,109.2 202.3,130 204.3,130 204.3,109.2 208.1,109.2 208.1,130 210,130 210,109.2 213.8,109.2 
		213.8,130 215.8,130 215.8,109.2 219.6,109.2 219.6,130 221.5,130 221.5,109.2 225.3,109.2 225.3,130 227.3,130 227.3,109.2 
		231.1,109.2 231.1,130 233,130 233,109.2 235.1,109.2 	"/>
	<rect x="143.4" y="122" fill="#E4E4E4" width="92.7" height="8"/>
	<circle fill="#B1B1B1" stroke="#FFFFFF" stroke-width="1.9165" stroke-miterlimit="10" cx="39.4" cy="98.5" r="5.3"/>
	<g>
		<rect x="81.1" y="43.9" fill="#4D4D4D" width="12.5" height="20.3"/>
		<rect x="75.4" y="43.9" fill="#FFFFFF" width="5.7" height="20.3"/>
		<rect x="93.6" y="43.9" fill="#FFFFFF" width="5.7" height="20.3"/>
		<rect x="113.7" y="43.9" fill="#4D4D4D" width="12.5" height="20.3"/>
		<rect x="108" y="43.9" fill="#FFFFFF" width="5.7" height="20.3"/>
		<rect x="126.2" y="43.9" fill="#FFFFFF" width="5.7" height="20.3"/>
		<rect x="81.1" y="87" fill="#4D4D4D" width="12.5" height="20.3"/>
		<rect x="75.4" y="87" fill="#FFFFFF" width="5.7" height="20.3"/>
		<rect x="93.6" y="87" fill="#FFFFFF" width="5.7" height="20.3"/>
		<rect x="113.7" y="87" fill="#4D4D4D" width="12.5" height="20.3"/>
		<rect x="108" y="87" fill="#FFFFFF" width="5.7" height="20.3"/>
		<rect x="126.2" y="87" fill="#FFFFFF" width="5.7" height="20.3"/>
		<polygon fill="#B1B1B1" points="93.6,43.9 81.1,64.2 81.1,43.9 		"/>
		<polygon fill="#B1B1B1" points="126.2,43.9 113.7,64.2 113.7,43.9 		"/>
		<polygon fill="#B1B1B1" points="93.6,87 81.1,107.2 81.1,87 		"/>
		<polygon fill="#B1B1B1" points="126.2,87 113.7,107.2 113.7,87 		"/>
	</g>
	<rect x="232.2" y="36.9" fill="#808080" width="1.2" height="13.9"/>
	<rect x="238.9" y="63.7" fill="#808080" width="1.2" height="23.8"/>
	<g>
		<rect x="158.7" y="50.8" fill="#4D4D4D" width="9.8" height="13.5"/>
		<rect x="153" y="50.8" fill="#FFFFFF" width="5.7" height="13.4"/>
		<rect x="168.5" y="50.8" fill="#FFFFFF" width="5.7" height="13.4"/>
		<polygon fill="#B1B1B1" points="168.5,50.8 158.7,64.2 158.7,50.8 		"/>
	</g>
	<g>
		<rect x="204.3" y="50.8" fill="#4D4D4D" width="9.8" height="13.5"/>
		<rect x="198.5" y="50.8" fill="#FFFFFF" width="5.7" height="13.4"/>
		<rect x="214" y="50.8" fill="#FFFFFF" width="5.7" height="13.4"/>
		<polygon fill="#B1B1B1" points="214,50.8 204.3,64.2 204.3,50.8 		"/>
	</g>
</g>
</svg>
