<?xml version="1.0" encoding="utf-8"?>
<!-- Generator: Adobe Illustrator 18.1.1, SVG Export Plug-In . SVG Version: 6.00 Build 0)  -->
<svg version="1.1" id="Layer_1" xmlns="http://www.w3.org/2000/svg" xmlns:xlink="http://www.w3.org/1999/xlink" x="0px" y="0px"
	 viewBox="0 0 301 130" enable-background="new 0 0 301 130" xml:space="preserve">
<g>
	<path fill="#8BD7F8" d="M300.5,111.6c-7,9.8-13.9,1.5-14.9,0.2v-0.2c0,0,0,0.1-0.1,0.1c0-0.1-0.1-0.1-0.1-0.1
		c-2.6,3.8-5.2,5-7.5,4.9c-4.3-0.2-7.4-4.9-7.4-4.9c0,0,0,0.1-0.1,0.1c0-0.1-0.1-0.1-0.1-0.1v0h0c0,0,0,0,0,0
		c-0.2,0.2-0.3,0.5-0.5,0.7c-2.4,3-4.7,4.1-6.8,4c-4.3-0.2-7.6-4.7-7.6-4.7c0,0,0,0.1-0.1,0.1c0,0-0.1-0.1-0.1-0.1l0,0c0,0,0,0,0,0
		c-5.5,7.7-11,4.2-13.5,1.7c-0.9-0.9-1.4-1.7-1.4-1.7c0,0,0,0.1-0.1,0.1c0-0.1-0.1-0.1-0.1-0.1c-2.5,3.6-5.1,4.7-7.3,4.7
		c-4.3-0.2-7.6-4.7-7.6-4.7l0,0h0c0,0,0,0,0,0c0,0,0,0.1-0.1,0.1c0,0-0.1-0.1-0.1-0.1l0,0h0c-2.5,3.6-5.1,4.7-7.3,4.7
		c-4.3-0.2-7.6-4.7-7.6-4.7c0,0,0,0.1-0.1,0.1c0-0.1-0.1-0.1-0.1-0.1c-1,1.4-1.9,2.4-2.9,3.2c-6.4,4.8-12-3.1-12.1-3.2l0,0
		c0,0,0,0.1-0.1,0.1c0-0.1-0.1-0.1-0.1-0.1c-2.5,3.6-5.1,4.7-7.3,4.7c-4.3-0.2-7.6-4.7-7.6-4.7c0,0,0,0.1-0.1,0.1
		c0-0.1-0.1-0.1-0.1-0.1v0.2c-7.8,10.9-14.9-0.2-14.9-0.2c-7.5,10.6-15,0-15,0c-7.8,11.1-15,0-15,0c-7,9.8-13.9,1.5-14.9,0.2v-0.2
		c0,0,0,0.1-0.1,0.1c0-0.1-0.1-0.1-0.1-0.1c-2.6,3.8-5.2,5-7.5,4.9c-4.3-0.2-7.4-4.9-7.4-4.9c0,0,0,0.1-0.1,0.1
		c0-0.1-0.1-0.1-0.1-0.1v0h0c0,0,0,0,0,0c-0.2,0.2-0.3,0.5-0.5,0.7c-2.4,3-4.7,4.1-6.8,4c-4.3-0.2-7.6-4.7-7.6-4.7
		c0,0,0,0.1-0.1,0.1c0,0-0.1-0.1-0.1-0.1l0,0c0,0,0,0,0,0c-5.5,7.7-11,4.2-13.5,1.7c-0.9-0.9-1.4-1.7-1.4-1.7c0,0,0,0.1-0.1,0.1
		c0-0.1-0.1-0.1-0.1-0.1c-2.5,3.6-5.1,4.7-7.3,4.7c-4.3-0.2-7.6-4.7-7.6-4.7l0,0h0c0,0,0,0,0,0c0,0,0,0.1-0.1,0.1
		c0,0-0.1-0.1-0.1-0.1l0,0h0c-2.5,3.6-5.1,4.7-7.3,4.7c-4.3-0.2-7.6-4.7-7.6-4.7c0,0,0,0.1-0.1,0.1c0-0.1-0.1-0.1-0.1-0.1
		c-1,1.4-1.9,2.4-2.9,3.2c-6.4,4.8-12-3.1-12.1-3.2l0,0c0,0,0,0.1-0.1,0.1c0-0.1-0.1-0.1-0.1-0.1c-2.5,3.6-5.1,4.7-7.3,4.7
		c-4.3-0.2-7.6-4.7-7.6-4.7c0,0,0,0.1-0.1,0.1c0-0.1-0.1-0.1-0.1-0.1v0.2C7.2,122.6,0,111.6,0,111.6v18.2h300.5V111.6z"/>
	<polygon fill="#1B468D" points="167.5,6.8 167.5,0 133.7,0 133.7,6.8 32.2,6.8 32.2,130 269.3,130 269.3,6.8 	"/>
	<g>
		<rect x="103.9" y="115" fill="#0F3778" width="45.2" height="11.5"/>
		<rect x="151.8" y="115" fill="#0F3778" width="45.2" height="11.5"/>
	</g>
	<g>
		<g>
			<rect x="99.2" y="18.5" fill="#8BD7F8" width="8.3" height="5.9"/>
			<rect x="111" y="18.5" fill="#8BD7F8" width="8.3" height="5.9"/>
		</g>
		<g>
			<rect x="99.2" y="28.3" fill="#8BD7F8" width="8.3" height="5.9"/>
			<rect x="111" y="28.3" fill="#8BD7F8" width="8.3" height="5.9"/>
		</g>
		<g>
			<rect x="99.2" y="38.1" fill="#8BD7F8" width="8.3" height="5.9"/>
			<rect x="111" y="38.1" fill="#8BD7F8" width="8.3" height="5.9"/>
		</g>
		<g>
			<rect x="99.2" y="47.9" fill="#8BD7F8" width="8.3" height="5.9"/>
			<rect x="111" y="47.9" fill="#8BD7F8" width="8.3" height="5.9"/>
		</g>
		<g>
			<rect x="99.2" y="57.7" fill="#8BD7F8" width="8.3" height="5.9"/>
			<rect x="111" y="57.7" fill="#8BD7F8" width="8.3" height="5.9"/>
		</g>
		<g>
			<rect x="99.2" y="67.5" fill="#8BD7F8" width="8.3" height="5.9"/>
			<rect x="111" y="67.5" fill="#8BD7F8" width="8.3" height="5.9"/>
		</g>
		<g>
			<rect x="99.2" y="77.3" fill="#8BD7F8" width="8.3" height="5.9"/>
			<rect x="111" y="77.3" fill="#8BD7F8" width="8.3" height="5.9"/>
		</g>
		<g>
			<rect x="99.2" y="86.8" fill="#8BD7F8" width="8.3" height="5.9"/>
			<rect x="111" y="86.8" fill="#8BD7F8" width="8.3" height="5.9"/>
		</g>
		<g>
			<rect x="99.2" y="96.6" fill="#8BD7F8" width="8.3" height="5.9"/>
			<rect x="111" y="96.6" fill="#8BD7F8" width="8.3" height="5.9"/>
		</g>
		<polygon fill="#FFFFFF" points="99.2,18.5 107.6,24.3 107.6,18.5 		"/>
		<polygon fill="#FFFFFF" points="111,18.5 119.3,24.3 119.3,18.5 		"/>
		<polygon fill="#FFFFFF" points="99.2,28.3 107.6,34.1 107.6,28.3 		"/>
		<polygon fill="#FFFFFF" points="111,28.3 119.3,34.1 119.3,28.3 		"/>
		<polygon fill="#FFFFFF" points="99.2,38.1 107.6,44 107.6,38.1 		"/>
		<polygon fill="#FFFFFF" points="111,38.1 119.3,44 119.3,38.1 		"/>
		<polygon fill="#FFFFFF" points="99.2,47.9 107.6,53.8 107.6,47.9 		"/>
		<polygon fill="#FFFFFF" points="111,47.9 119.3,53.8 119.3,47.9 		"/>
		<polygon fill="#FFFFFF" points="99.2,57.7 107.6,63.6 107.6,57.7 		"/>
		<polygon fill="#FFFFFF" points="111,57.7 119.3,63.6 119.3,57.7 		"/>
		<polygon fill="#FFFFFF" points="99.2,67.5 107.6,73.4 107.6,67.5 		"/>
		<polygon fill="#FFFFFF" points="111,67.5 119.3,73.4 119.3,67.5 		"/>
		<polygon fill="#FFFFFF" points="99.2,77.3 107.6,83.2 107.6,77.3 		"/>
		<polygon fill="#FFFFFF" points="111,77.3 119.3,83.2 119.3,77.3 		"/>
		<polygon fill="#FFFFFF" points="99.2,86.8 107.6,92.7 107.6,86.8 		"/>
		<polygon fill="#FFFFFF" points="111,86.8 119.3,92.7 119.3,86.8 		"/>
		<polygon fill="#FFFFFF" points="99.2,96.6 107.6,102.5 107.6,96.6 		"/>
		<polygon fill="#FFFFFF" points="111,96.6 119.3,102.5 119.3,96.6 		"/>
	</g>
	<g>
		<g>
			<rect x="127.2" y="18.5" fill="#8BD7F8" width="8.3" height="5.9"/>
			<rect x="139" y="18.5" fill="#8BD7F8" width="8.3" height="5.9"/>
		</g>
		<g>
			<rect x="127.2" y="28.3" fill="#8BD7F8" width="8.3" height="5.9"/>
			<rect x="139" y="28.3" fill="#8BD7F8" width="8.3" height="5.9"/>
		</g>
		<g>
			<rect x="127.2" y="38.1" fill="#8BD7F8" width="8.3" height="5.9"/>
			<rect x="139" y="38.1" fill="#8BD7F8" width="8.3" height="5.9"/>
		</g>
		<g>
			<rect x="127.2" y="47.9" fill="#8BD7F8" width="8.3" height="5.9"/>
			<rect x="139" y="47.9" fill="#8BD7F8" width="8.3" height="5.9"/>
		</g>
		<g>
			<rect x="127.2" y="57.7" fill="#8BD7F8" width="8.3" height="5.9"/>
			<rect x="139" y="57.7" fill="#8BD7F8" width="8.3" height="5.9"/>
		</g>
		<g>
			<rect x="127.2" y="67.5" fill="#8BD7F8" width="8.3" height="5.9"/>
			<rect x="139" y="67.5" fill="#8BD7F8" width="8.3" height="5.9"/>
		</g>
		<g>
			<rect x="127.2" y="77.3" fill="#8BD7F8" width="8.3" height="5.9"/>
			<rect x="139" y="77.3" fill="#8BD7F8" width="8.3" height="5.9"/>
		</g>
		<g>
			<rect x="127.2" y="86.8" fill="#8BD7F8" width="8.3" height="5.9"/>
			<rect x="139" y="86.8" fill="#8BD7F8" width="8.3" height="5.9"/>
		</g>
		<g>
			<rect x="127.2" y="96.6" fill="#8BD7F8" width="8.3" height="5.9"/>
			<rect x="139" y="96.6" fill="#8BD7F8" width="8.3" height="5.9"/>
		</g>
		<polygon fill="#FFFFFF" points="127.2,18.5 135.6,24.3 135.6,18.5 		"/>
		<polygon fill="#FFFFFF" points="139,18.5 147.3,24.3 147.3,18.5 		"/>
		<polygon fill="#FFFFFF" points="127.2,28.3 135.6,34.1 135.6,28.3 		"/>
		<polygon fill="#FFFFFF" points="139,28.3 147.3,34.1 147.3,28.3 		"/>
		<polygon fill="#FFFFFF" points="127.2,38.1 135.6,44 135.6,38.1 		"/>
		<polygon fill="#FFFFFF" points="139,38.1 147.3,44 147.3,38.1 		"/>
		<polygon fill="#FFFFFF" points="127.2,47.9 135.6,53.8 135.6,47.9 		"/>
		<polygon fill="#FFFFFF" points="139,47.9 147.3,53.8 147.3,47.9 		"/>
		<polygon fill="#FFFFFF" points="127.2,57.7 135.6,63.6 135.6,57.7 		"/>
		<polygon fill="#FFFFFF" points="139,57.7 147.3,63.6 147.3,57.7 		"/>
		<polygon fill="#FFFFFF" points="127.2,67.5 135.6,73.4 135.6,67.5 		"/>
		<polygon fill="#FFFFFF" points="139,67.5 147.3,73.4 147.3,67.5 		"/>
		<polygon fill="#FFFFFF" points="127.2,77.3 135.6,83.2 135.6,77.3 		"/>
		<polygon fill="#FFFFFF" points="139,77.3 147.3,83.2 147.3,77.3 		"/>
		<polygon fill="#FFFFFF" points="127.2,86.8 135.6,92.7 135.6,86.8 		"/>
		<polygon fill="#FFFFFF" points="139,86.8 147.3,92.7 147.3,86.8 		"/>
		<polygon fill="#FFFFFF" points="127.2,96.6 135.6,102.5 135.6,96.6 		"/>
		<polygon fill="#FFFFFF" points="139,96.6 147.3,102.5 147.3,96.6 		"/>
	</g>
	<g>
		<g>
			<rect x="71.2" y="18.5" fill="#8BD7F8" width="8.3" height="5.9"/>
			<rect x="83" y="18.5" fill="#8BD7F8" width="8.3" height="5.9"/>
		</g>
		<g>
			<rect x="71.2" y="28.3" fill="#8BD7F8" width="8.3" height="5.9"/>
			<rect x="83" y="28.3" fill="#8BD7F8" width="8.3" height="5.9"/>
		</g>
		<g>
			<rect x="71.2" y="38.1" fill="#8BD7F8" width="8.3" height="5.9"/>
			<rect x="83" y="38.1" fill="#8BD7F8" width="8.3" height="5.9"/>
		</g>
		<g>
			<rect x="71.2" y="47.9" fill="#8BD7F8" width="8.3" height="5.9"/>
			<rect x="83" y="47.9" fill="#8BD7F8" width="8.3" height="5.9"/>
		</g>
		<g>
			<rect x="71.2" y="57.7" fill="#8BD7F8" width="8.3" height="5.9"/>
			<rect x="83" y="57.7" fill="#8BD7F8" width="8.3" height="5.9"/>
		</g>
		<g>
			<rect x="71.2" y="67.5" fill="#8BD7F8" width="8.3" height="5.9"/>
			<rect x="83" y="67.5" fill="#8BD7F8" width="8.3" height="5.9"/>
		</g>
		<g>
			<rect x="71.2" y="77.3" fill="#8BD7F8" width="8.3" height="5.9"/>
			<rect x="83" y="77.3" fill="#8BD7F8" width="8.3" height="5.9"/>
		</g>
		<g>
			<rect x="71.2" y="86.8" fill="#8BD7F8" width="8.3" height="5.9"/>
			<rect x="83" y="86.8" fill="#8BD7F8" width="8.3" height="5.9"/>
		</g>
		<g>
			<rect x="71.2" y="96.6" fill="#8BD7F8" width="8.3" height="5.9"/>
			<rect x="83" y="96.6" fill="#8BD7F8" width="8.3" height="5.9"/>
		</g>
		<polygon fill="#FFFFFF" points="71.2,18.5 79.6,24.3 79.6,18.5 		"/>
		<polygon fill="#FFFFFF" points="83,18.5 91.3,24.3 91.3,18.5 		"/>
		<polygon fill="#FFFFFF" points="71.2,28.3 79.6,34.1 79.6,28.3 		"/>
		<polygon fill="#FFFFFF" points="83,28.3 91.3,34.1 91.3,28.3 		"/>
		<polygon fill="#FFFFFF" points="71.2,38.1 79.6,44 79.6,38.1 		"/>
		<polygon fill="#FFFFFF" points="83,38.1 91.3,44 91.3,38.1 		"/>
		<polygon fill="#FFFFFF" points="71.2,47.9 79.6,53.8 79.6,47.9 		"/>
		<polygon fill="#FFFFFF" points="83,47.9 91.3,53.8 91.3,47.9 		"/>
		<polygon fill="#FFFFFF" points="71.2,57.7 79.6,63.6 79.6,57.7 		"/>
		<polygon fill="#FFFFFF" points="83,57.7 91.3,63.6 91.3,57.7 		"/>
		<polygon fill="#FFFFFF" points="71.2,67.5 79.6,73.4 79.6,67.5 		"/>
		<polygon fill="#FFFFFF" points="83,67.5 91.3,73.4 91.3,67.5 		"/>
		<polygon fill="#FFFFFF" points="71.2,77.3 79.6,83.2 79.6,77.3 		"/>
		<polygon fill="#FFFFFF" points="83,77.3 91.3,83.2 91.3,77.3 		"/>
		<polygon fill="#FFFFFF" points="71.2,86.8 79.6,92.7 79.6,86.8 		"/>
		<polygon fill="#FFFFFF" points="83,86.8 91.3,92.7 91.3,86.8 		"/>
		<polygon fill="#FFFFFF" points="71.2,96.6 79.6,102.5 79.6,96.6 		"/>
		<polygon fill="#FFFFFF" points="83,96.6 91.3,102.5 91.3,96.6 		"/>
	</g>
	<g>
		<g>
			<rect x="43.6" y="18.5" fill="#8BD7F8" width="8.3" height="5.9"/>
			<rect x="55.4" y="18.5" fill="#8BD7F8" width="8.3" height="5.9"/>
		</g>
		<g>
			<rect x="43.6" y="28.3" fill="#8BD7F8" width="8.3" height="5.9"/>
			<rect x="55.4" y="28.3" fill="#8BD7F8" width="8.3" height="5.9"/>
		</g>
		<g>
			<rect x="43.6" y="38.1" fill="#8BD7F8" width="8.3" height="5.9"/>
			<rect x="55.4" y="38.1" fill="#8BD7F8" width="8.3" height="5.9"/>
		</g>
		<g>
			<rect x="43.6" y="47.9" fill="#8BD7F8" width="8.3" height="5.9"/>
			<rect x="55.4" y="47.9" fill="#8BD7F8" width="8.3" height="5.9"/>
		</g>
		<g>
			<rect x="43.6" y="57.7" fill="#8BD7F8" width="8.3" height="5.9"/>
			<rect x="55.4" y="57.7" fill="#8BD7F8" width="8.3" height="5.9"/>
		</g>
		<g>
			<rect x="43.6" y="67.5" fill="#8BD7F8" width="8.3" height="5.9"/>
			<rect x="55.4" y="67.5" fill="#8BD7F8" width="8.3" height="5.9"/>
		</g>
		<g>
			<rect x="43.6" y="77.3" fill="#8BD7F8" width="8.3" height="5.9"/>
			<rect x="55.4" y="77.3" fill="#8BD7F8" width="8.3" height="5.9"/>
		</g>
		<g>
			<rect x="43.6" y="86.8" fill="#8BD7F8" width="8.3" height="5.9"/>
			<rect x="55.4" y="86.8" fill="#8BD7F8" width="8.3" height="5.9"/>
		</g>
		<g>
			<rect x="43.6" y="96.6" fill="#8BD7F8" width="8.3" height="5.9"/>
			<rect x="55.4" y="96.6" fill="#8BD7F8" width="8.3" height="5.9"/>
		</g>
		<polygon fill="#FFFFFF" points="43.6,18.5 51.9,24.3 51.9,18.5 		"/>
		<polygon fill="#FFFFFF" points="55.4,18.5 63.7,24.3 63.7,18.5 		"/>
		<polygon fill="#FFFFFF" points="43.6,28.3 51.9,34.1 51.9,28.3 		"/>
		<polygon fill="#FFFFFF" points="55.4,28.3 63.7,34.1 63.7,28.3 		"/>
		<polygon fill="#FFFFFF" points="43.6,38.1 51.9,44 51.9,38.1 		"/>
		<polygon fill="#FFFFFF" points="55.4,38.1 63.7,44 63.7,38.1 		"/>
		<polygon fill="#FFFFFF" points="43.6,47.9 51.9,53.8 51.9,47.9 		"/>
		<polygon fill="#FFFFFF" points="55.4,47.9 63.7,53.8 63.7,47.9 		"/>
		<polygon fill="#FFFFFF" points="43.6,57.7 51.9,63.6 51.9,57.7 		"/>
		<polygon fill="#FFFFFF" points="55.4,57.7 63.7,63.6 63.7,57.7 		"/>
		<polygon fill="#FFFFFF" points="43.6,67.5 51.9,73.4 51.9,67.5 		"/>
		<polygon fill="#FFFFFF" points="55.4,67.5 63.7,73.4 63.7,67.5 		"/>
		<polygon fill="#FFFFFF" points="43.6,77.3 51.9,83.2 51.9,77.3 		"/>
		<polygon fill="#FFFFFF" points="55.4,77.3 63.7,83.2 63.7,77.3 		"/>
		<polygon fill="#FFFFFF" points="43.6,86.8 51.9,92.7 51.9,86.8 		"/>
		<polygon fill="#FFFFFF" points="55.4,86.8 63.7,92.7 63.7,86.8 		"/>
		<polygon fill="#FFFFFF" points="43.6,96.6 51.9,102.5 51.9,96.6 		"/>
		<polygon fill="#FFFFFF" points="55.4,96.6 63.7,102.5 63.7,96.6 		"/>
	</g>
	<g>
		<g>
			<rect x="154.7" y="18.5" fill="#8BD7F8" width="8.3" height="5.9"/>
			<rect x="166.4" y="18.5" fill="#8BD7F8" width="8.3" height="5.9"/>
		</g>
		<g>
			<rect x="154.7" y="28.3" fill="#8BD7F8" width="8.3" height="5.9"/>
			<rect x="166.4" y="28.3" fill="#8BD7F8" width="8.3" height="5.9"/>
		</g>
		<g>
			<rect x="154.7" y="38.1" fill="#8BD7F8" width="8.3" height="5.9"/>
			<rect x="166.4" y="38.1" fill="#8BD7F8" width="8.3" height="5.9"/>
		</g>
		<g>
			<rect x="154.7" y="47.9" fill="#8BD7F8" width="8.3" height="5.9"/>
			<rect x="166.4" y="47.9" fill="#8BD7F8" width="8.3" height="5.9"/>
		</g>
		<g>
			<rect x="154.7" y="57.7" fill="#8BD7F8" width="8.3" height="5.9"/>
			<rect x="166.4" y="57.7" fill="#8BD7F8" width="8.3" height="5.9"/>
		</g>
		<g>
			<rect x="154.7" y="67.5" fill="#8BD7F8" width="8.3" height="5.9"/>
			<rect x="166.4" y="67.5" fill="#8BD7F8" width="8.3" height="5.9"/>
		</g>
		<g>
			<rect x="154.7" y="77.3" fill="#8BD7F8" width="8.3" height="5.9"/>
			<rect x="166.4" y="77.3" fill="#8BD7F8" width="8.3" height="5.9"/>
		</g>
		<g>
			<rect x="154.7" y="86.8" fill="#8BD7F8" width="8.3" height="5.9"/>
			<rect x="166.4" y="86.8" fill="#8BD7F8" width="8.3" height="5.9"/>
		</g>
		<g>
			<rect x="154.7" y="96.6" fill="#8BD7F8" width="8.3" height="5.9"/>
			<rect x="166.4" y="96.6" fill="#8BD7F8" width="8.3" height="5.9"/>
		</g>
		<polygon fill="#FFFFFF" points="154.7,18.5 163,24.3 163,18.5 		"/>
		<polygon fill="#FFFFFF" points="166.4,18.5 174.8,24.3 174.8,18.5 		"/>
		<polygon fill="#FFFFFF" points="154.7,28.3 163,34.1 163,28.3 		"/>
		<polygon fill="#FFFFFF" points="166.4,28.3 174.8,34.1 174.8,28.3 		"/>
		<polygon fill="#FFFFFF" points="154.7,38.1 163,44 163,38.1 		"/>
		<polygon fill="#FFFFFF" points="166.4,38.1 174.8,44 174.8,38.1 		"/>
		<polygon fill="#FFFFFF" points="154.7,47.9 163,53.8 163,47.9 		"/>
		<polygon fill="#FFFFFF" points="166.4,47.9 174.8,53.8 174.8,47.9 		"/>
		<polygon fill="#FFFFFF" points="154.7,57.7 163,63.6 163,57.7 		"/>
		<polygon fill="#FFFFFF" points="166.4,57.7 174.8,63.6 174.8,57.7 		"/>
		<polygon fill="#FFFFFF" points="154.7,67.5 163,73.4 163,67.5 		"/>
		<polygon fill="#FFFFFF" points="166.4,67.5 174.8,73.4 174.8,67.5 		"/>
		<polygon fill="#FFFFFF" points="154.7,77.3 163,83.2 163,77.3 		"/>
		<polygon fill="#FFFFFF" points="166.4,77.3 174.8,83.2 174.8,77.3 		"/>
		<polygon fill="#FFFFFF" points="154.7,86.8 163,92.7 163,86.8 		"/>
		<polygon fill="#FFFFFF" points="166.4,86.8 174.8,92.7 174.8,86.8 		"/>
		<polygon fill="#FFFFFF" points="154.7,96.6 163,102.5 163,96.6 		"/>
		<polygon fill="#FFFFFF" points="166.4,96.6 174.8,102.5 174.8,96.6 		"/>
	</g>
	<g>
		<g>
			<rect x="182.7" y="18.5" fill="#8BD7F8" width="8.3" height="5.9"/>
			<rect x="194.5" y="18.5" fill="#8BD7F8" width="8.3" height="5.9"/>
		</g>
		<g>
			<rect x="182.7" y="28.3" fill="#8BD7F8" width="8.3" height="5.9"/>
			<rect x="194.5" y="28.3" fill="#8BD7F8" width="8.3" height="5.9"/>
		</g>
		<g>
			<rect x="182.7" y="38.1" fill="#8BD7F8" width="8.3" height="5.9"/>
			<rect x="194.5" y="38.1" fill="#8BD7F8" width="8.3" height="5.9"/>
		</g>
		<g>
			<rect x="182.7" y="47.9" fill="#8BD7F8" width="8.3" height="5.9"/>
			<rect x="194.5" y="47.9" fill="#8BD7F8" width="8.3" height="5.9"/>
		</g>
		<g>
			<rect x="182.7" y="57.7" fill="#8BD7F8" width="8.3" height="5.9"/>
			<rect x="194.5" y="57.7" fill="#8BD7F8" width="8.3" height="5.9"/>
		</g>
		<g>
			<rect x="182.7" y="67.5" fill="#8BD7F8" width="8.3" height="5.9"/>
			<rect x="194.5" y="67.5" fill="#8BD7F8" width="8.3" height="5.9"/>
		</g>
		<g>
			<rect x="182.7" y="77.3" fill="#8BD7F8" width="8.3" height="5.9"/>
			<rect x="194.5" y="77.3" fill="#8BD7F8" width="8.3" height="5.9"/>
		</g>
		<g>
			<rect x="182.7" y="86.8" fill="#8BD7F8" width="8.3" height="5.9"/>
			<rect x="194.5" y="86.8" fill="#8BD7F8" width="8.3" height="5.9"/>
		</g>
		<g>
			<rect x="182.7" y="96.6" fill="#8BD7F8" width="8.3" height="5.9"/>
			<rect x="194.5" y="96.6" fill="#8BD7F8" width="8.3" height="5.9"/>
		</g>
		<g>
			<polygon fill="#FFFFFF" points="182.7,18.5 191,24.3 191,18.5 			"/>
			<polygon fill="#FFFFFF" points="194.5,18.5 202.8,24.3 202.8,18.5 			"/>
			<polygon fill="#FFFFFF" points="182.7,28.3 191,34.1 191,28.3 			"/>
			<polygon fill="#FFFFFF" points="194.5,28.3 202.8,34.1 202.8,28.3 			"/>
			<polygon fill="#FFFFFF" points="182.7,38.1 191,44 191,38.1 			"/>
			<polygon fill="#FFFFFF" points="194.5,38.1 202.8,44 202.8,38.1 			"/>
			<polygon fill="#FFFFFF" points="182.7,47.9 191,53.8 191,47.9 			"/>
			<polygon fill="#FFFFFF" points="194.5,47.9 202.8,53.8 202.8,47.9 			"/>
			<polygon fill="#FFFFFF" points="182.7,57.7 191,63.6 191,57.7 			"/>
			<polygon fill="#FFFFFF" points="194.5,57.7 202.8,63.6 202.8,57.7 			"/>
			<polygon fill="#FFFFFF" points="182.7,67.5 191,73.4 191,67.5 			"/>
			<polygon fill="#FFFFFF" points="194.5,67.5 202.8,73.4 202.8,67.5 			"/>
			<polygon fill="#FFFFFF" points="182.7,77.3 191,83.2 191,77.3 			"/>
			<polygon fill="#FFFFFF" points="194.5,77.3 202.8,83.2 202.8,77.3 			"/>
			<polygon fill="#FFFFFF" points="182.7,86.8 191,92.7 191,86.8 			"/>
			<polygon fill="#FFFFFF" points="194.5,86.8 202.8,92.7 202.8,86.8 			"/>
			<polygon fill="#FFFFFF" points="182.7,96.6 191,102.5 191,96.6 			"/>
			<polygon fill="#FFFFFF" points="194.5,96.6 202.8,102.5 202.8,96.6 			"/>
		</g>
	</g>
	<g>
		<g>
			<rect x="210.7" y="18.5" fill="#8BD7F8" width="8.3" height="5.9"/>
			<rect x="222.5" y="18.5" fill="#8BD7F8" width="8.3" height="5.9"/>
		</g>
		<g>
			<rect x="210.7" y="28.3" fill="#8BD7F8" width="8.3" height="5.9"/>
			<rect x="222.5" y="28.3" fill="#8BD7F8" width="8.3" height="5.9"/>
		</g>
		<g>
			<rect x="210.7" y="38.1" fill="#8BD7F8" width="8.3" height="5.9"/>
			<rect x="222.5" y="38.1" fill="#8BD7F8" width="8.3" height="5.9"/>
		</g>
		<g>
			<rect x="210.7" y="47.9" fill="#8BD7F8" width="8.3" height="5.9"/>
			<rect x="222.5" y="47.9" fill="#8BD7F8" width="8.3" height="5.9"/>
		</g>
		<g>
			<rect x="210.7" y="57.7" fill="#8BD7F8" width="8.3" height="5.9"/>
			<rect x="222.5" y="57.7" fill="#8BD7F8" width="8.3" height="5.9"/>
		</g>
		<g>
			<rect x="210.7" y="67.5" fill="#8BD7F8" width="8.3" height="5.9"/>
			<rect x="222.5" y="67.5" fill="#8BD7F8" width="8.3" height="5.9"/>
		</g>
		<g>
			<rect x="210.7" y="77.3" fill="#8BD7F8" width="8.3" height="5.9"/>
			<rect x="222.5" y="77.3" fill="#8BD7F8" width="8.3" height="5.9"/>
		</g>
		<g>
			<rect x="210.7" y="86.8" fill="#8BD7F8" width="8.3" height="5.9"/>
			<rect x="222.5" y="86.8" fill="#8BD7F8" width="8.3" height="5.9"/>
		</g>
		<g>
			<rect x="210.7" y="96.6" fill="#8BD7F8" width="8.3" height="5.9"/>
			<rect x="222.5" y="96.6" fill="#8BD7F8" width="8.3" height="5.9"/>
		</g>
		<g>
			<polygon fill="#FFFFFF" points="210.7,18.5 219,24.3 219,18.5 			"/>
			<polygon fill="#FFFFFF" points="222.5,18.5 230.8,24.3 230.8,18.5 			"/>
			<polygon fill="#FFFFFF" points="210.7,28.3 219,34.1 219,28.3 			"/>
			<polygon fill="#FFFFFF" points="222.5,28.3 230.8,34.1 230.8,28.3 			"/>
			<polygon fill="#FFFFFF" points="210.7,38.1 219,44 219,38.1 			"/>
			<polygon fill="#FFFFFF" points="222.5,38.1 230.8,44 230.8,38.1 			"/>
			<polygon fill="#FFFFFF" points="210.7,47.9 219,53.8 219,47.9 			"/>
			<polygon fill="#FFFFFF" points="222.5,47.9 230.8,53.8 230.8,47.9 			"/>
			<polygon fill="#FFFFFF" points="210.7,57.7 219,63.6 219,57.7 			"/>
			<polygon fill="#FFFFFF" points="222.5,57.7 230.8,63.6 230.8,57.7 			"/>
			<polygon fill="#FFFFFF" points="210.7,67.5 219,73.4 219,67.5 			"/>
			<polygon fill="#FFFFFF" points="222.5,67.5 230.8,73.4 230.8,67.5 			"/>
			<polygon fill="#FFFFFF" points="210.7,77.3 219,83.2 219,77.3 			"/>
			<polygon fill="#FFFFFF" points="222.5,77.3 230.8,83.2 230.8,77.3 			"/>
			<polygon fill="#FFFFFF" points="210.7,86.8 219,92.7 219,86.8 			"/>
			<polygon fill="#FFFFFF" points="222.5,86.8 230.8,92.7 230.8,86.8 			"/>
			<polygon fill="#FFFFFF" points="210.7,96.6 219,102.5 219,96.6 			"/>
			<polygon fill="#FFFFFF" points="222.5,96.6 230.8,102.5 230.8,96.6 			"/>
		</g>
	</g>
	<g>
		<g>
			<rect x="238.4" y="18.5" fill="#8BD7F8" width="8.3" height="5.9"/>
			<rect x="250.2" y="18.5" fill="#8BD7F8" width="8.3" height="5.9"/>
		</g>
		<g>
			<rect x="238.4" y="28.3" fill="#8BD7F8" width="8.3" height="5.9"/>
			<rect x="250.2" y="28.3" fill="#8BD7F8" width="8.3" height="5.9"/>
		</g>
		<g>
			<rect x="238.4" y="38.1" fill="#8BD7F8" width="8.3" height="5.9"/>
			<rect x="250.2" y="38.1" fill="#8BD7F8" width="8.3" height="5.9"/>
		</g>
		<g>
			<rect x="238.4" y="47.9" fill="#8BD7F8" width="8.3" height="5.9"/>
			<rect x="250.2" y="47.9" fill="#8BD7F8" width="8.3" height="5.9"/>
		</g>
		<g>
			<rect x="238.4" y="57.7" fill="#8BD7F8" width="8.3" height="5.9"/>
			<rect x="250.2" y="57.7" fill="#8BD7F8" width="8.3" height="5.9"/>
		</g>
		<g>
			<rect x="238.4" y="67.5" fill="#8BD7F8" width="8.3" height="5.9"/>
			<rect x="250.2" y="67.5" fill="#8BD7F8" width="8.3" height="5.9"/>
		</g>
		<g>
			<rect x="238.4" y="77.3" fill="#8BD7F8" width="8.3" height="5.9"/>
			<rect x="250.2" y="77.3" fill="#8BD7F8" width="8.3" height="5.9"/>
		</g>
		<g>
			<rect x="238.4" y="86.8" fill="#8BD7F8" width="8.3" height="5.9"/>
			<rect x="250.2" y="86.8" fill="#8BD7F8" width="8.3" height="5.9"/>
		</g>
		<g>
			<rect x="238.4" y="96.6" fill="#8BD7F8" width="8.3" height="5.9"/>
			<rect x="250.2" y="96.6" fill="#8BD7F8" width="8.3" height="5.9"/>
		</g>
		<g>
			<polygon fill="#FFFFFF" points="238.4,18.5 246.8,24.3 246.8,18.5 			"/>
			<polygon fill="#FFFFFF" points="250.2,18.5 258.5,24.3 258.5,18.5 			"/>
			<polygon fill="#FFFFFF" points="238.4,28.3 246.8,34.1 246.8,28.3 			"/>
			<polygon fill="#FFFFFF" points="250.2,28.3 258.5,34.1 258.5,28.3 			"/>
			<polygon fill="#FFFFFF" points="238.4,38.1 246.8,44 246.8,38.1 			"/>
			<polygon fill="#FFFFFF" points="250.2,38.1 258.5,44 258.5,38.1 			"/>
			<polygon fill="#FFFFFF" points="238.4,47.9 246.8,53.8 246.8,47.9 			"/>
			<polygon fill="#FFFFFF" points="250.2,47.9 258.5,53.8 258.5,47.9 			"/>
			<polygon fill="#FFFFFF" points="238.4,57.7 246.8,63.6 246.8,57.7 			"/>
			<polygon fill="#FFFFFF" points="250.2,57.7 258.5,63.6 258.5,57.7 			"/>
			<polygon fill="#FFFFFF" points="238.4,67.5 246.8,73.4 246.8,67.5 			"/>
			<polygon fill="#FFFFFF" points="250.2,67.5 258.5,73.4 258.5,67.5 			"/>
			<polygon fill="#FFFFFF" points="238.4,77.3 246.8,83.2 246.8,77.3 			"/>
			<polygon fill="#FFFFFF" points="250.2,77.3 258.5,83.2 258.5,77.3 			"/>
			<polygon fill="#FFFFFF" points="238.4,86.8 246.8,92.7 246.8,86.8 			"/>
			<polygon fill="#FFFFFF" points="250.2,86.8 258.5,92.7 258.5,86.8 			"/>
			<polygon fill="#FFFFFF" points="238.4,96.6 246.8,102.5 246.8,96.6 			"/>
			<polygon fill="#FFFFFF" points="250.2,96.6 258.5,102.5 258.5,96.6 			"/>
		</g>
	</g>
	<rect x="151.8" y="124.1" fill="#FFFFFF" width="49.2" height="2.9"/>
	<rect x="99.7" y="124.1" fill="#FFFFFF" width="49.2" height="2.9"/>
</g>
</svg>
