<svg xmlns="http://www.w3.org/2000/svg" viewBox="0 0 199.63 270.86"><defs><style>.cls-1{isolation:isolate;}.cls-2{fill:#e79a4d;}.cls-3{fill:#231f20;}.cls-4,.cls-5{fill:#d17730;opacity:0.3;}.cls-4{mix-blend-mode:screen;}.cls-10,.cls-5,.cls-8,.cls-9{mix-blend-mode:multiply;}.cls-6{fill:#54372a;}.cls-7{fill:#ffdb00;}.cls-8,.cls-9{fill:#9973b4;}.cls-9{opacity:0.5;}.cls-10{fill:#f2623a;}</style></defs><title>vidya-smile</title><g class="cls-1"><g id="text_images" data-name="text/images"><path class="cls-2" d="M5392.08,9894.35a55.18,55.18,0,0,0-8.39-29.32l-1.66-35.39c-6.84-58-55.77-87.47-89.77-87.47-34.26,0-82.93,29.5-89.77,87.47l-1.69,36a55.14,55.14,0,0,0-7.92,25.55A38.28,38.28,0,0,0,5196,9913a55.54,55.54,0,0,0,16.29,23.55c2.39,9.59,7.8,26.25,20.47,39.34,31.42,32.47,43.8,37.11,59.42,37.11h0.13c15.62,0,28-4.65,59.42-37.11,12.51-12.92,17.94-29.31,20.38-39a55.47,55.47,0,0,0,18-28,38.19,38.19,0,0,0,1.94-13.37C5392.05,9895.2,5392.08,9894.78,5392.08,9894.35Z" transform="translate(-5192.45 -9742.17)"/><path class="cls-3" d="M5311,9858.29l-1.56,6.91s25.48-13.61,37.9-10.22c8.48,2.32,16.34,9.08,16.34,9.08s-6.1-9.49-11.41-12.48C5335.43,9842.16,5311,9858.29,5311,9858.29Z" transform="translate(-5192.45 -9742.17)"/><path class="cls-3" d="M5273.34,9858.29l1.56,6.91s-25.48-13.61-37.9-10.22c-8.48,2.32-16.34,9.08-16.34,9.08s6.1-9.49,11.41-12.48C5248.88,9842.16,5273.34,9858.29,5273.34,9858.29Z" transform="translate(-5192.45 -9742.17)"/><circle class="cls-4" cx="47.34" cy="168.61" r="19.59"/><circle class="cls-4" cx="152.3" cy="168.61" r="19.59"/><polygon class="cls-5" points="114.34 190.49 85.08 190.49 94.89 132.49 104.53 132.49 114.34 190.49"/><circle class="cls-5" cx="85.08" cy="182.67" r="7.82"/><circle class="cls-5" cx="114.34" cy="182.67" r="7.82"/><circle class="cls-6" cx="58.46" cy="133.67" r="8.4"/><circle class="cls-6" cx="140.95" cy="133.67" r="8.4"/><circle class="cls-7" cx="10.04" cy="179.49" r="6.84"/><circle class="cls-7" cx="188.26" cy="179.49" r="6.84"/><polygon class="cls-8" points="109.48 211.44 99.78 213.91 90.08 211.44 64.8 214.5 99.78 222.84 134.75 214.5 109.48 211.44"/><path class="cls-9" d="M5292.23,9975.86c17.18,0,34.91-19.19,34.91-19.19l-34.94,8.33-34.94-8.33s17.44,19.19,34.91,19.19h0.07Z" transform="translate(-5192.45 -9742.17)"/><circle class="cls-10" cx="99.78" cy="107.88" r="3.6"/><polygon class="cls-2" points="131.13 127.39 151.3 127.39 141.21 117.77 131.13 127.39"/><polygon class="cls-2" points="48.58 127.39 68.76 127.39 58.67 117.77 48.58 127.39"/><circle class="cls-7" cx="78.38" cy="177.49" r="2.23"/></g></g></svg>