<svg xmlns="http://www.w3.org/2000/svg" viewBox="0 0 304.19 304.17"><defs><style>.cls-1{isolation:isolate;}.cls-2{fill:#e6994d;}.cls-3{fill:#231f20;}.cls-4,.cls-5{fill:#d07730;opacity:0.3;}.cls-4{mix-blend-mode:screen;}.cls-10,.cls-5,.cls-8,.cls-9{mix-blend-mode:multiply;}.cls-6{fill:#54372a;}.cls-7{fill:#ffda00;}.cls-8,.cls-9{fill:#9873b3;}.cls-9{opacity:0.5;}.cls-10{fill:#f1623a;}.cls-11{fill:#f06342;}</style></defs><title>vidya_home</title><g class="cls-1"><g id="text_images" data-name="text/images"><path class="cls-2" d="M10490,12248a40.1,40.1,0,0,0-6.1-21.31l-1.21-25.72c-5-42.13-40.53-63.57-65.24-63.57-24.9,0-60.27,21.44-65.24,63.57l-1.23,26.13a40.07,40.07,0,0,0-5.76,18.57,27.82,27.82,0,0,0,2.28,15.9,40.36,40.36,0,0,0,11.84,17.11c1.74,7,5.67,21.29,14.88,30.8,22.83,23.59,31.83,27,43.18,27h0.09c11.35,0,20.35-3.38,43.18-27,9.09-9.39,13-23.52,14.81-30.53a40.31,40.31,0,0,0,13.07-20.31,27.76,27.76,0,0,0,1.41-9.72C10490,12248.57,10490,12248.26,10490,12248Z" transform="translate(-10264.58 -12086.05)"/><path class="cls-3" d="M10431,12219.53l-1.13,5s18.51-7.68,27.54-5.21c6.16,1.68,11.87,6.6,11.87,6.6s-4.43-6.9-8.3-9.07C10448.83,12210,10431,12219.53,10431,12219.53Z" transform="translate(-10264.58 -12086.05)"/><path class="cls-3" d="M10403.71,12219.53l1.13,5s-18.51-7.68-27.54-5.21c-6.16,1.68-11.87,6.6-11.87,6.6s4.43-6.9,8.3-9.07C10385.93,12210,10403.71,12219.53,10403.71,12219.53Z" transform="translate(-10264.58 -12086.05)"/><circle class="cls-4" cx="114.75" cy="173.84" r="14.23"/><circle class="cls-4" cx="191.02" cy="173.84" r="14.23"/><polygon class="cls-5" points="163.43 189.74 142.17 189.74 149.3 147.59 156.31 147.59 163.43 189.74"/><circle class="cls-5" cx="142.17" cy="184.05" r="5.68"/><circle class="cls-5" cx="163.43" cy="184.05" r="5.68"/><circle class="cls-6" cx="122.82" cy="148.45" r="6.1"/><circle class="cls-6" cx="182.77" cy="148.45" r="6.1"/><circle class="cls-7" cx="87.64" cy="181.75" r="4.97"/><circle class="cls-7" cx="217.15" cy="181.75" r="4.97"/><path class="cls-8" d="M10424.48,12291l-7,1.8-7-1.8-20.58,1.12s22.73,7.16,27.63,7.16,27.63-7.16,27.63-7.16Z" transform="translate(-10264.58 -12086.05)"/><path class="cls-9" d="M10417.43,12307.18c12.49,0,27.58-15.05,27.58-15.05s-22.64,7.16-27.61,7.16-27.61-7.16-27.61-7.16,14.89,15.05,27.58,15.05h0Z" transform="translate(-10264.58 -12086.05)"/><circle class="cls-10" cx="152.85" cy="129.71" r="2.62"/><polygon class="cls-2" points="175.63 143.88 190.29 143.88 182.96 136.89 175.63 143.88"/><polygon class="cls-2" points="115.65 143.88 130.31 143.88 122.98 136.89 115.65 143.88"/><circle class="cls-7" cx="137.3" cy="180.29" r="1.62"/><circle class="cls-11" cx="10541.29" cy="12153.15" r="1.29" transform="translate(-13180.83 8882.57) rotate(-82.29)"/><circle class="cls-11" cx="10535.88" cy="12145.72" r="1.29" transform="translate(-12620.49 9668.27) rotate(-85.76)"/><circle class="cls-11" cx="10530.04" cy="12138.64" r="1.29" transform="translate(-12014.15 10417.89) rotate(-89.23)"/><circle class="cls-11" cx="10523.77" cy="12131.91" r="1.29" transform="translate(-10824.85 -11576.41) rotate(-2.7)"/><circle class="cls-11" cx="10517.1" cy="12125.57" r="1.29" transform="translate(-11510.57 -10881.5) rotate(-6.19)"/><circle class="cls-11" cx="10510.04" cy="12119.64" r="1.29" transform="translate(-12155.04 -10143.55) rotate(-9.69)"/><circle class="cls-11" cx="10502.6" cy="12114.13" r="1.29" transform="translate(-12756.06 -9363.97) rotate(-13.22)"/><circle class="cls-11" cx="10494.81" cy="12109.07" r="1.29" transform="translate(-13311.18 -8544.42) rotate(-16.76)"/><circle class="cls-11" cx="10486.67" cy="12104.48" r="1.29" transform="translate(-13817.7 -7686.95) rotate(-20.34)"/><circle class="cls-11" cx="10478.22" cy="12100.38" r="1.29" transform="translate(-14272.8 -6794.14) rotate(-23.94)"/><circle class="cls-11" cx="10469.45" cy="12096.8" r="1.29" transform="translate(-14673.59 -5869.16) rotate(-27.56)"/><circle class="cls-11" cx="10460.4" cy="12093.75" r="1.29" transform="translate(-15017.25 -4915.86) rotate(-31.21)"/><circle class="cls-11" cx="10451.07" cy="12091.26" r="1.29" transform="translate(-15301.19 -3938.82) rotate(-34.87)"/><circle class="cls-11" cx="10441.48" cy="12089.35" r="1.29" transform="translate(-15523.23 -2943.36) rotate(-38.55)"/><circle class="cls-11" cx="10431.7" cy="12088.05" r="1.29" transform="translate(-15681.68 -1936.27) rotate(-42.23)"/><circle class="cls-11" cx="10421.97" cy="12087.38" r="1.29" transform="translate(-15775.77 -924.22) rotate(-45.91)"/><circle class="cls-11" cx="10412.34" cy="12087.34" r="1.29" transform="translate(-15805.71 87.35) rotate(-49.57)"/><circle class="cls-11" cx="10402.82" cy="12087.91" r="1.29" transform="translate(-15772.32 1092.87) rotate(-53.21)"/><circle class="cls-11" cx="10393.44" cy="12089.06" r="1.29" transform="translate(-15676.98 2087.36) rotate(-56.83)"/><circle class="cls-11" cx="10384.22" cy="12090.79" r="1.29" transform="translate(-15521.49 3066.52) rotate(-60.42)"/><circle class="cls-11" cx="10375.18" cy="12093.08" r="1.29" transform="translate(-15307.87 4026.71) rotate(-63.98)"/><circle class="cls-11" cx="10366.35" cy="12095.92" r="1.29" transform="translate(-15038.25 4964.9) rotate(-67.53)"/><circle class="cls-11" cx="10357.74" cy="12099.27" r="1.29" transform="translate(-14714.7 5878.59) rotate(-71.04)"/><circle class="cls-11" cx="10349.38" cy="12103.14" r="1.29" transform="translate(-14339.18 6765.74) rotate(-74.54)"/><circle class="cls-11" cx="10341.28" cy="12107.5" r="1.29" transform="translate(-13913.47 7624.65) rotate(-78.02)"/><circle class="cls-11" cx="10333.48" cy="12112.33" r="1.29" transform="translate(-13439.08 8453.84) rotate(-81.49)"/><circle class="cls-11" cx="10325.99" cy="12117.62" r="1.29" transform="translate(-12917.34 9251.92) rotate(-84.95)"/><circle class="cls-11" cx="10318.83" cy="12123.35" r="1.29" transform="translate(-12349.34 10017.53) rotate(-88.42)"/><circle class="cls-11" cx="10312.03" cy="12129.51" r="1.29" transform="translate(-10658.27 -11740.03) rotate(-1.89)"/><circle class="cls-11" cx="10305.61" cy="12136.08" r="1.29" transform="translate(-11354.18 -11069.3) rotate(-5.37)"/><circle class="cls-11" cx="10299.58" cy="12143.05" r="1.29" transform="translate(-12011.79 -10355.01) rotate(-8.86)"/><circle class="cls-11" cx="10293.98" cy="12150.38" r="1.29" transform="translate(-12628.94 -9598.19) rotate(-12.37)"/><circle class="cls-11" cx="10288.82" cy="12158.08" r="1.29" transform="translate(-13203.15 -8800.11) rotate(-15.91)"/><circle class="cls-11" cx="10284.12" cy="12166.13" r="1.29" transform="translate(-13731.7 -7962.38) rotate(-19.47)"/><circle class="cls-11" cx="10279.91" cy="12174.49" r="1.29" transform="translate(-14211.63 -7087.1) rotate(-23.06)"/><circle class="cls-11" cx="10276.2" cy="12183.17" r="1.29" transform="translate(-14639.86 -6176.96) rotate(-26.67)"/><circle class="cls-11" cx="10273.03" cy="12192.15" r="1.29" transform="translate(-15013.3 -5235.32) rotate(-30.31)"/><circle class="cls-11" cx="10270.4" cy="12201.4" r="1.29" transform="translate(-15328.99 -4266.3) rotate(-33.97)"/><circle class="cls-11" cx="10268.35" cy="12210.91" r="1.29" transform="translate(-15584.3 -3274.76) rotate(-37.64)"/><circle class="cls-11" cx="10266.89" cy="12220.65" r="1.29" transform="translate(-15777.07 -2266.33) rotate(-41.31)"/><circle class="cls-11" cx="10266.07" cy="12230.4" r="1.29" transform="translate(-15905.65 -1247.71) rotate(-44.99)"/><circle class="cls-11" cx="10265.87" cy="12240.06" r="1.29" transform="translate(-15969.41 -225.29) rotate(-48.65)"/><circle class="cls-11" cx="10266.28" cy="12249.61" r="1.29" transform="translate(-15968.6 795.13) rotate(-52.3)"/><circle class="cls-11" cx="10267.29" cy="12259.03" r="1.29" transform="matrix(0.56, -0.83, 0.83, 0.56, -15904.1, 1808.29)"/><circle class="cls-11" cx="10268.88" cy="12268.29" r="1.29" transform="translate(-15777.28 2809.52) rotate(-59.52)"/><circle class="cls-11" cx="10271.04" cy="12277.37" r="1.29" transform="translate(-15589.79 3794.8) rotate(-63.09)"/><circle class="cls-11" cx="10273.73" cy="12286.26" r="1.29" transform="translate(-15343.5 4760.69) rotate(-66.64)"/><circle class="cls-11" cx="10276.96" cy="12294.93" r="1.29" transform="translate(-15040.25 5704.28) rotate(-70.16)"/><circle class="cls-11" cx="10280.7" cy="12303.35" r="1.29" transform="translate(-14681.86 6623.14) rotate(-73.67)"/><circle class="cls-11" cx="10284.94" cy="12311.51" r="1.29" transform="translate(-14269.97 7515.18) rotate(-77.15)"/><circle class="cls-11" cx="10289.65" cy="12319.39" r="1.29" transform="matrix(0.16, -0.99, 0.99, 0.16, -13806.06, 8378.53)"/><circle class="cls-11" cx="10294.83" cy="12326.96" r="1.29" transform="translate(-13291.4 9211.48) rotate(-84.09)"/><circle class="cls-11" cx="10300.45" cy="12334.21" r="1.29" transform="translate(-12727.08 10012.32) rotate(-87.55)"/><circle class="cls-11" cx="10306.51" cy="12341.1" r="1.29" transform="translate(-10482.28 -11900.93) rotate(-1.02)"/><circle class="cls-11" cx="10312.98" cy="12347.62" r="1.29" transform="translate(-11200.37 -11240.02) rotate(-4.49)"/><circle class="cls-11" cx="10319.84" cy="12353.74" r="1.29" transform="matrix(0.99, -0.14, 0.14, 0.99, -11880.41, -10532.95)"/><circle class="cls-11" cx="10327.09" cy="12359.46" r="1.29" transform="translate(-12519.97 -9780.76) rotate(-11.49)"/><circle class="cls-11" cx="10334.7" cy="12364.73" r="1.29" transform="translate(-13116.33 -8984.69) rotate(-15.02)"/><circle class="cls-11" cx="10342.66" cy="12369.55" r="1.29" transform="translate(-13666.5 -8146.38) rotate(-18.58)"/><circle class="cls-11" cx="10350.95" cy="12373.88" r="1.29" transform="translate(-14167.25 -7267.93) rotate(-22.16)"/><circle class="cls-11" cx="10359.55" cy="12377.72" r="1.29" transform="translate(-14615.19 -6352.08) rotate(-25.77)"/><circle class="cls-11" cx="10368.45" cy="12381.03" r="1.29" transform="translate(-15006.93 -5402.26) rotate(-29.4)"/><circle class="cls-11" cx="10377.63" cy="12383.79" r="1.29" transform="translate(-15339.17 -4422.68) rotate(-33.05)"/><circle class="cls-11" cx="10387.08" cy="12385.99" r="1.29" transform="translate(-15608.95 -3418.37) rotate(-36.72)"/><circle class="cls-11" cx="10396.77" cy="12387.6" r="1.29" transform="translate(-15813.76 -2395.13) rotate(-40.39)"/><circle class="cls-11" cx="10406.54" cy="12388.58" r="1.29" transform="translate(-15951.81 -1359.94) rotate(-44.07)"/><circle class="cls-11" cx="10416.23" cy="12388.94" r="1.29" transform="translate(-16022.27 -319.9) rotate(-47.74)"/><circle class="cls-11" cx="10425.81" cy="12388.67" r="1.29" transform="translate(-16025.3 718.67) rotate(-51.39)"/><circle class="cls-11" cx="10435.26" cy="12387.81" r="1.29" transform="translate(-15961.75 1749.97) rotate(-55.02)"/><circle class="cls-11" cx="10444.56" cy="12386.36" r="1.29" transform="matrix(0.52, -0.85, 0.85, 0.52, -15833.05, 2768.83)"/><circle class="cls-11" cx="10453.69" cy="12384.35" r="1.29" transform="translate(-15641.04 3770.76) rotate(-62.2)"/><circle class="cls-11" cx="10462.63" cy="12381.79" r="1.29" transform="translate(-15387.78 4751.88) rotate(-65.76)"/><circle class="cls-11" cx="10471.36" cy="12378.69" r="1.29" transform="translate(-15075.41 5708.93) rotate(-69.29)"/><circle class="cls-11" cx="10479.84" cy="12375.08" r="1.29" transform="translate(-14706.05 6639.16) rotate(-72.79)"/><circle class="cls-11" cx="10488.07" cy="12370.96" r="1.29" transform="translate(-14281.71 7540.22) rotate(-76.28)"/><circle class="cls-11" cx="10496.02" cy="12366.37" r="1.29" transform="translate(-13804.23 8410.1) rotate(-79.76)"/><circle class="cls-11" cx="10503.67" cy="12361.3" r="1.29" transform="translate(-13275.27 9246.93) rotate(-83.22)"/><circle class="cls-11" cx="10511" cy="12355.79" r="1.29" transform="translate(-12696.29 10048.94) rotate(-86.69)"/><circle class="cls-11" cx="10517.98" cy="12349.84" r="1.29" transform="translate(-10297.15 -12058.24) rotate(-0.15)"/><circle class="cls-11" cx="10524.6" cy="12343.47" r="1.29" transform="matrix(1, -0.06, 0.06, 1, -11023.77, -11396.1)"/><circle class="cls-11" cx="10530.82" cy="12336.7" r="1.29" transform="translate(-11710.55 -10687.77) rotate(-7.11)"/><circle class="cls-11" cx="10536.64" cy="12329.55" r="1.29" transform="translate(-12355.15 -9934.53) rotate(-10.61)"/><circle class="cls-11" cx="10542.03" cy="12322.03" r="1.29" transform="translate(-12954.98 -9137.91) rotate(-14.14)"/><circle class="cls-11" cx="10546.96" cy="12314.16" r="1.29" transform="translate(-13507.21 -8299.74) rotate(-17.69)"/><circle class="cls-11" cx="10551.42" cy="12305.95" r="1.29" transform="translate(-14008.8 -7422.33) rotate(-21.26)"/><circle class="cls-11" cx="10555.38" cy="12297.42" r="1.29" transform="translate(-14456.57 -6508.57) rotate(-24.86)"/><circle class="cls-11" cx="10558.82" cy="12288.6" r="1.29" transform="translate(-14847.36 -5562.02) rotate(-28.49)"/><circle class="cls-11" cx="10561.73" cy="12279.48" r="1.29" transform="translate(-15178.11 -4586.97) rotate(-32.13)"/><circle class="cls-11" cx="10564.07" cy="12270.1" r="1.29" transform="translate(-15446.08 -3588.5) rotate(-35.8)"/><circle class="cls-11" cx="10565.83" cy="12260.47" r="1.29" transform="translate(-15649 -2572.44) rotate(-39.47)"/><circle class="cls-11" cx="10566.97" cy="12250.7" r="1.29" transform="translate(-15785.22 -1546.83) rotate(-43.15)"/><circle class="cls-11" cx="10567.48" cy="12241.01" r="1.29" transform="translate(-15854.49 -517.88) rotate(-46.81)"/><circle class="cls-11" cx="10567.37" cy="12231.41" r="1.29" transform="translate(-15857.19 508.38) rotate(-50.46)"/><circle class="cls-11" cx="10566.66" cy="12221.94" r="1.29" transform="translate(-15794.42 1526.18) rotate(-54.09)"/><circle class="cls-11" cx="10565.36" cy="12212.62" r="1.29" transform="translate(-15667.83 2530.37) rotate(-57.7)"/><circle class="cls-11" cx="10563.5" cy="12203.45" r="1.29" transform="translate(-15479.48 3516.49) rotate(-61.28)"/><circle class="cls-11" cx="10561.08" cy="12194.48" r="1.29" transform="translate(-15231.67 4480.79) rotate(-64.83)"/><circle class="cls-11" cx="10558.13" cy="12185.71" r="1.29" transform="translate(-14926.77 5420.13) rotate(-68.36)"/><circle class="cls-11" cx="10554.66" cy="12177.17" r="1.29" transform="matrix(0.31, -0.95, 0.95, 0.31, -14567.13, 6331.94)"/><circle class="cls-11" cx="10550.68" cy="12168.88" r="1.29" transform="translate(-14154.94 7214.09) rotate(-75.36)"/><circle class="cls-11" cx="10546.22" cy="12160.87" r="1.29" transform="translate(-13692.24 8064.82) rotate(-78.83)"/><circle class="cls-11" cx="10541.29" cy="12153.15" r="1.29" transform="matrix(0.13, -0.99, 0.99, 0.13, -13180.83, 8882.57)"/></g></g></svg>