<?xml version="1.0" encoding="UTF-8" standalone="no"?>
<svg width="120px" height="163px" viewBox="0 0 120 163" version="1.1" xmlns="http://www.w3.org/2000/svg" xmlns:xlink="http://www.w3.org/1999/xlink" xmlns:sketch="http://www.bohemiancoding.com/sketch/ns">
    <!-- Generator: Sketch 3.4.2 (15857) - http://www.bohemiancoding.com/sketch -->
    <title>Vidya</title>
    <desc>Created with Sketch.</desc>
    <defs>
        <path id="path-1" d="M0,0.430446602 L119.547368,0.430446602 L119.547368,163 L0,163"></path>
    </defs>
    <g id="Home" stroke="none" stroke-width="1" fill="none" fill-rule="evenodd" sketch:type="MSPage">
        <g id="Form" sketch:type="MSArtboardGroup" transform="translate(-440.000000, -220.000000)">
            <g id="Vidya" sketch:type="MSLayerGroup" transform="translate(440.000000, 220.000000)">
                <g id="Group-3">
                    <mask id="mask-2" sketch:name="Clip 2" fill="white">
                        <use xlink:href="#path-1"></use>
                    </mask>
                    <g id="Clip-2"></g>
                    <path d="M119.547158,91.7700023 C119.547158,85.3069731 117.703474,79.2780832 114.522947,74.1718049 L113.529263,52.9327466 C109.433474,18.1346204 80.1308421,0.430393851 59.7708421,0.430393851 C39.2534737,0.430393851 10.1087368,18.1346204 6.01294737,52.9327466 L5.00294737,74.5157401 C2.26557895,79.0338469 0.575052632,84.2577595 0.257157895,89.8504003 C-0.142842105,92.5238113 -0.0886315789,95.3111641 0.507684211,98.112232 C0.872947368,99.8282159 1.43136842,101.450303 2.134,102.979549 C4.11031579,108.517329 7.50978947,113.373041 11.8897895,117.113073 C13.324,122.870297 16.5634737,132.86763 24.1497895,140.724336 C42.9650526,160.211012 50.3776842,162.996255 59.7324211,162.999947 L59.7324211,162.999947 L59.7418947,162.999947 L59.7513684,162.999947 L59.7908421,162.999947 L59.8003158,162.999947 L59.8097895,162.999947 L59.8097895,162.999947 C69.164,162.996255 76.5771579,160.211012 95.3924211,140.724336 C102.881368,132.967857 106.132947,123.129831 107.595053,117.339902 C112.734526,113.042821 116.552947,107.217549 118.367684,100.561452 C118.629789,99.7659699 118.856105,98.9504424 119.034526,98.112232 C119.433474,96.2364133 119.585579,94.3674521 119.527684,92.533834 C119.533474,92.2790476 119.547158,92.0263712 119.547158,91.7700023" id="Fill-1" fill="#E89B4C" sketch:type="MSShapeGroup" mask="url(#mask-2)"></path>
                </g>
                <path d="M70.9742105,70.1243935 L70.0394737,74.2737722 C70.0394737,74.2737722 85.2963158,66.1037269 92.7363158,68.1420181 C97.8121053,69.533057 102.518947,73.5895942 102.518947,73.5895942 C102.518947,73.5895942 98.8673684,67.8935618 95.6831579,66.1021443 C85.6226316,60.441455 70.9742105,70.1243935 70.9742105,70.1243935" id="Fill-4" fill="#231F1F" sketch:type="MSShapeGroup"></path>
                <path d="M48.4414211,70.1243935 L49.3761579,74.2737722 C49.3761579,74.2737722 34.1193158,66.1037269 26.6793158,68.1420181 C21.6035263,69.533057 16.8966842,73.5895942 16.8966842,73.5895942 C16.8966842,73.5895942 20.5482632,67.8935618 23.7324737,66.1021443 C33.793,60.441455 48.4414211,70.1243935 48.4414211,70.1243935" id="Fill-6" fill="#231F1F" sketch:type="MSShapeGroup"></path>
                <path d="M28.3521579,113.388708 C21.8737368,113.388708 16.6221579,108.125232 16.6221579,101.632135 C16.6221579,95.1390382 21.8737368,89.8755625 28.3521579,89.8755625 C34.8305789,89.8755625 40.0821579,95.1390382 40.0821579,101.632135 C40.0821579,108.125232 34.8305789,113.388708 28.3521579,113.388708 Z" id="Fill-8" fill-opacity="0.3" fill="#EEAF5E" sketch:type="MSShapeGroup"></path>
                <path d="M91.2077368,113.388708 C84.7293158,113.388708 79.4777368,108.125232 79.4777368,101.632135 C79.4777368,95.1390382 84.7293158,89.8755625 91.2077368,89.8755625 C97.6861579,89.8755625 102.937737,95.1390382 102.937737,101.632135 C102.937737,108.125232 97.6861579,113.388708 91.2077368,113.388708 Z" id="Fill-10" fill-opacity="0.3" fill="#EDA955" sketch:type="MSShapeGroup"></path>
                <path d="M68.4738947,114.764185 L50.9512632,114.764185 L56.8249474,79.953399 L62.6002105,79.953399 L68.4738947,114.764185 Z" id="Fill-12" fill-opacity="0.3" fill="#DB8239" sketch:type="MSShapeGroup"></path>
                <path d="M55.6357368,110.069258 C55.6357368,112.66196 53.5383684,114.76408 50.9515263,114.76408 C48.3641579,114.76408 46.2673158,112.66196 46.2673158,110.069258 C46.2673158,107.476556 48.3641579,105.374436 50.9515263,105.374436 C53.5383684,105.374436 55.6357368,107.476556 55.6357368,110.069258" id="Fill-14" fill-opacity="0.3" fill="#DD833A" sketch:type="MSShapeGroup"></path>
                <path d="M68.4739474,114.76408 C65.8865789,114.76408 63.7897368,112.66196 63.7897368,110.069258 C63.7897368,107.476556 65.8865789,105.374436 68.4739474,105.374436 C71.0607895,105.374436 73.1581579,107.476556 73.1581579,110.069258 C73.1581579,112.66196 71.0607895,114.76408 68.4739474,114.76408 Z" id="Fill-16" fill-opacity="0.3" fill="#DD833A" sketch:type="MSShapeGroup"></path>
                <path d="M40.0393684,80.6601016 C40.0393684,83.4448168 37.7872632,85.7020239 35.0088421,85.7020239 C32.2304211,85.7020239 29.9783158,83.4448168 29.9783158,80.6601016 C29.9783158,77.8753864 32.2304211,75.6181793 35.0088421,75.6181793 C37.7872632,75.6181793 40.0393684,77.8753864 40.0393684,80.6601016" id="Fill-18" fill="#53372A" sketch:type="MSShapeGroup"></path>
                <path d="M89.4371053,80.6601016 C89.4371053,83.4448168 87.185,85.7020239 84.4065789,85.7020239 C81.6281579,85.7020239 79.3760526,83.4448168 79.3760526,80.6601016 C79.3760526,77.8753864 81.6281579,75.6181793 84.4065789,75.6181793 C87.185,75.6181793 89.4371053,77.8753864 89.4371053,80.6601016" id="Fill-20" fill="#53372A" sketch:type="MSShapeGroup"></path>
                <path d="M10.1086316,108.162685 C10.1086316,110.429915 8.27494737,112.267753 6.01284211,112.267753 C3.75073684,112.267753 1.91705263,110.429915 1.91705263,108.162685 C1.91705263,105.895456 3.75073684,104.057617 6.01284211,104.057617 C8.27494737,104.057617 10.1086316,105.895456 10.1086316,108.162685" id="Fill-22" fill="#FFDC00" sketch:type="MSShapeGroup"></path>
                <path d="M116.832947,108.162685 C116.832947,110.429915 114.999263,112.267753 112.737158,112.267753 C110.475053,112.267753 108.641368,110.429915 108.641368,108.162685 C108.641368,105.895456 110.475053,104.057617 112.737158,104.057617 C114.999263,104.057617 116.832947,105.895456 116.832947,108.162685" id="Fill-24" fill="#FFDC00" sketch:type="MSShapeGroup"></path>
                <path d="M65.56,127.335283 L59.7515789,128.823384 L53.9431579,127.335283 L38.8068421,129.175232 L59.7515789,134.177591 L80.6963158,129.175232 L65.56,127.335283 Z" id="Fill-26" fill-opacity="0.8" fill="#8C4535" sketch:type="MSShapeGroup"></path>
                <path d="M80.6575263,129.175021 L59.7322632,134.17316 L38.807,129.175021 C38.807,129.175021 49.2533158,140.692105 59.7127895,140.692105 C70.0427895,140.692105 80.6575263,129.175021 80.6575263,129.175021 Z" id="Fill-28" fill-opacity="0.5" fill="#B97040" sketch:type="MSShapeGroup"></path>
                <path d="M61.9073158,65.1832252 C61.9073158,66.3764485 60.9420526,67.3438984 59.7515263,67.3438984 C58.561,67.3438984 57.5957368,66.3764485 57.5957368,65.1832252 C57.5957368,63.9900019 58.561,63.0225521 59.7515263,63.0225521 C60.9420526,63.0225521 61.9073158,63.9900019 61.9073158,65.1832252" id="Fill-30" fill="#F4623A" sketch:type="MSShapeGroup"></path>
                <path d="M78.5258947,76.890054 L90.6064211,76.890054 L84.5658947,71.1148955 L78.5258947,76.890054 Z" id="Fill-32" fill="#E89B4C" sketch:type="MSShapeGroup"></path>
                <path d="M29.094,76.890054 L41.1745263,76.890054 L35.134,71.1148955 L29.094,76.890054 Z" id="Fill-34" fill="#E89B4C" sketch:type="MSShapeGroup"></path>
                <path d="M48.2703158,106.958384 C48.2703158,107.696368 47.6734737,108.294562 46.9371579,108.294562 C46.2008421,108.294562 45.604,107.696368 45.604,106.958384 C45.604,106.220401 46.2008421,105.622206 46.9371579,105.622206 C47.6734737,105.622206 48.2703158,106.220401 48.2703158,106.958384" id="Fill-36" fill="#FFDC00" sketch:type="MSShapeGroup"></path>
            </g>
        </g>
    </g>
</svg>