<?xml version="1.0" encoding="utf-8"?>
<!-- Generator: Adobe Illustrator 18.1.1, SVG Export Plug-In . SVG Version: 6.00 Build 0)  -->
<svg version="1.1" id="Layer_1" xmlns="http://www.w3.org/2000/svg" xmlns:xlink="http://www.w3.org/1999/xlink" x="0px" y="0px"
	 viewBox="0 0 25 25" enable-background="new 0 0 25 25" xml:space="preserve">
<g>
	<circle fill="#FFFFFF" cx="12.5" cy="12.5" r="11.5"/>
	<path fill="#1B468D" d="M12.5,0C5.6,0,0,5.6,0,12.5S5.6,25,12.5,25S25,19.4,25,12.5S19.4,0,12.5,0z M20.4,16.8l-6.7-3.6V17l2,1.9
		v1.4L12.5,19l0,0l0,0l-3.2,1.3v-1.4l2-1.9v-3.9l-6.7,3.6v-1.9l6.7-5.7V5.6c0,0-0.1-1.9,1.2-1.9c1.4,0,1.2,1.9,1.2,1.9v3.6l6.7,5.7
		V16.8z"/>
</g>
</svg>
