<?xml version="1.0" encoding="utf-8"?>
<!-- Generator: Adobe Illustrator 18.1.1, SVG Export Plug-In . SVG Version: 6.00 Build 0)  -->
<svg version="1.1" id="Layer_1" xmlns="http://www.w3.org/2000/svg" xmlns:xlink="http://www.w3.org/1999/xlink" x="0px" y="0px"
	 viewBox="0 0 25 25" enable-background="new 0 0 25 25" xml:space="preserve">
<g>
	<circle fill="#FFFFFF" cx="12.5" cy="12.5" r="10.5"/>
	<path fill="#1B468D" d="M9.4,15.4c0,0.6-0.5,1.1-1.1,1.1S7.2,16,7.2,15.4c0-0.6,0.5-1.1,1.1-1.1S9.4,14.7,9.4,15.4z M17.1,8.3
		C17,7.6,16.4,7,15.6,7H9.3C8.6,7,8,7.5,7.9,8.3l-0.6,3.6h10.3L17.1,8.3z M25,12.5C25,19.4,19.4,25,12.5,25S0,19.4,0,12.5
		S5.6,0,12.5,0S25,5.6,25,12.5z M19.1,11.9l-0.6-3.8c-0.1-1.5-1.4-2.7-2.9-2.7H9.4c-1.5,0-2.8,1.2-2.9,2.7l-0.6,3.8v5.9h1.2v0.9
		c0,0.5,0.4,0.9,0.9,0.9s0.9-0.4,0.9-0.9v-0.9h7.4v0.9c0,0.5,0.4,0.9,0.9,0.9c0.5,0,0.9-0.4,0.9-0.9v-0.9h1.1V11.9z M16.7,14.2
		c-0.6,0-1.1,0.5-1.1,1.1c0,0.6,0.5,1.1,1.1,1.1c0.6,0,1.1-0.5,1.1-1.1C17.9,14.7,17.4,14.2,16.7,14.2z"/>
</g>
</svg>
