<?xml version="1.0" encoding="utf-8"?>
<!-- Generator: Adobe Illustrator 18.1.1, SVG Export Plug-In . SVG Version: 6.00 Build 0)  -->
<svg version="1.1" id="Layer_1" xmlns="http://www.w3.org/2000/svg" xmlns:xlink="http://www.w3.org/1999/xlink" x="0px" y="0px"
	 viewBox="0 0 16 26" enable-background="new 0 0 16 26" xml:space="preserve">
<g>
	<path fill="#FFFFFF" d="M15,8.8c0-3.9-3.1-7.1-7-7.1S1,4.9,1,8.8C1,9.9,1.3,11,1.8,12h0L8,24.3l6.3-12.4h0C14.7,11,15,9.9,15,8.8z"
		/>
	<path fill="#C94628" d="M16,8.2C16,3.7,12.4,0,8,0S0,3.7,0,8.2c0,1.3,0.3,2.5,0.8,3.6h0L8,26l7.2-14.2h0C15.7,10.7,16,9.5,16,8.2z
		 M8,11.7c-1.9,0-3.5-1.6-3.5-3.6S6.1,4.6,8,4.6s3.5,1.6,3.5,3.6S9.9,11.7,8,11.7z"/>
</g>
</svg>
