<?xml version="1.0" encoding="utf-8"?>
<!-- Generator: Adobe Illustrator 18.1.1, SVG Export Plug-In . SVG Version: 6.00 Build 0)  -->
<svg version="1.1" id="Layer_1" xmlns="http://www.w3.org/2000/svg" xmlns:xlink="http://www.w3.org/1999/xlink" x="0px" y="0px"
	 viewBox="0 200 612 400" enable-background="new 0 0 612 792" xml:space="preserve">
<g>
	<rect x="54.4" y="487.3" fill="#F2B450" width="528.1" height="35.6"/>
	<rect x="53.6" y="377.1" fill="#F2B450" width="34.6" height="180.7"/>
	<circle fill="#F2B450" cx="29.2" cy="263.4" r="29.2"/>
	<circle fill="#F2B450" cx="582.8" cy="378.6" r="29.2"/>
	<path fill="#F2B450" d="M88.6,378.6c0,0,0-95.4-35.6-132.5l-17.6,22.3c0,0,18.4,9.7,18.4,110.2"/>
	<rect x="92.9" y="411.7" fill="#163B79" width="467.3" height="69.5"/>
	<rect x="564.8" y="377.1" fill="#F2B450" width="34.6" height="180.7"/>
	<path fill="#CBCBCB" d="M236.2,369.9c-8.3-6.8-34.2-20.5-63.7-20.5s-55.4,13.7-63.7,20.5c-9.4,7.9-15.1,11.2-15.1,11.2
		c28.4,28.8,79.2,26.6,79.2,26.6s50.4,2.2,79.2-26.6C251.3,381.1,245.5,377.5,236.2,369.9z"/>
</g>
</svg>
