<?xml version="1.0" encoding="utf-8"?>
<!-- Generator: Adobe Illustrator 18.1.1, SVG Export Plug-In . SVG Version: 6.00 Build 0)  -->
<svg version="1.1" id="Layer_1" xmlns="http://www.w3.org/2000/svg" xmlns:xlink="http://www.w3.org/1999/xlink" x="0px" y="0px"
	 viewBox="0 0 170 80" enable-background="new 0 0 170 80" xml:space="preserve">
<g>
	<g>
		<path fill="#E5E5E5" d="M169.2,16.9c-2.6-6.9-11.4-6.5-11.4-6.5s-3-4.7-8.9-8.3s-13.4-1.5-13.4-1.5L5.5,36.8c0,0-3.8,1.3-3.3,4.6
			c0,0,58.8-1.8,96.4-5.7C136.1,31.8,169,17,169.2,16.9z"/>
		<path fill="#E5E5E5" d="M5.3,45.4c0,0,63,15.8,129.7-0.6c33.5-8.2,36.3-17.6,34.6-26.3c-0.1-0.6-0.3-1.2-0.5-1.7
			C169,17,136.1,31.8,98.6,35.7C61,39.6,2.2,41.4,2.2,41.4C2.6,44.7,5.3,45.4,5.3,45.4z"/>
	</g>
	<path fill="#163B79" d="M8.9,35.8L0,3.8c0,0,4.5-2.6,9.8,1.4s24,23.7,24,23.7L8.9,35.8z"/>
	<path fill="#FFFFFF" d="M130.8,14.2l0.9,3.3l26-7.2c-0.4-0.6-2.8-4.1-7.2-7.2l-15.9,4.4C131.7,8.3,130,11.3,130.8,14.2z"/>
	<path fill="#8BD7F8" d="M98.6,35.7C61,39.6,2.2,41.4,2.2,41.4c0.4,3.3,3.1,4,3.1,4s63,15.8,129.7-0.6c33.5-8.2,36.3-17.6,34.6-26.3
		c-0.1-0.6-0.3-1.2-0.5-1.7C169,17,136.1,31.8,98.6,35.7z"/>
	<path fill="#163B79" d="M120.3,32.3l-34,4.5L70.5,76.2c-1.3,1.9,0.5,4.3,2.6,3.7l12.1-3.3c0.6-0.2,1.2-0.5,1.7-1L120.3,32.3z"/>
	<path fill="#163B79" d="M11,41L4.7,57.3c-0.9,2.6,2.3,4.5,4.2,2.5l27.8-25.9L11,41z"/>
	<circle fill="#FFFFFF" cx="122.5" cy="15.5" r="2.8"/>
	<circle fill="#FFFFFF" cx="113.4" cy="18" r="2.8"/>
	<circle fill="#FFFFFF" cx="104.1" cy="20.6" r="2.8"/>
	<circle fill="#FFFFFF" cx="95.1" cy="23.1" r="2.8"/>
	<circle fill="#FFFFFF" cx="86.2" cy="25.5" r="2.8"/>
</g>
</svg>
