<?xml version="1.0" encoding="utf-8"?>
<!-- Generator: Adobe Illustrator 18.1.1, SVG Export Plug-In . SVG Version: 6.00 Build 0)  -->
<svg version="1.1" id="Layer_1" xmlns="http://www.w3.org/2000/svg" xmlns:xlink="http://www.w3.org/1999/xlink" x="0px" y="0px"
	 viewBox="0 0 170 90" enable-background="new 0 0 170 90" xml:space="preserve">
<g>
	<path fill="#C94628" d="M6.9,14.8h33.3c0,0,5.2,23.4-16,23.4C1.4,38.2,6.9,14.8,6.9,14.8z"/>
	<path fill="#CBCBCB" d="M42.8,0.9L42.4,0H4.7L4.3,0.9C3.9,1.8-4.8,23.4,3.7,36.1c3.7,5.6,10.1,8.5,19,8.8v35.8h3V44.9
		c8.8-0.3,15.1-3.2,18.7-8.7C52.6,23.5,43.2,1.8,42.8,0.9z M41.8,34.3c-3.2,4.9-9.1,7.4-17.7,7.4c-8.6,0-14.6-2.5-18-7.5
		c-6.7-10-1-27.3,0.5-31.5h33.8C42.1,6.8,48.4,24.3,41.8,34.3z"/>
	<path fill="#CBCBCB" d="M24.2,81.3L47.6,85c0,0-7.4,4.9-23.4,4.9S0.7,85,0.7,85L24.2,81.3z"/>
	<path fill="#FFFFFF" d="M21.7,33.3c0,0-9.9-0.9-9.9-9.9h4.9C16.8,23.4,14.6,26.8,21.7,33.3z"/>
	<g>
		<polygon fill="#F2B450" points="81.8,89.9 154.6,89.9 160.2,81.5 76.2,81.5 		"/>
		<path fill="#FFCA6C" d="M164.4,70.1c-0.1-24.4-19.1-44.3-43.2-45.9c0.7-0.8,1.2-1.8,1.2-2.9c0-2.3-1.9-4.2-4.2-4.2
			S114,19,114,21.3c0,1.1,0.5,2.2,1.2,2.9c-24,1.6-43,21.5-43.2,45.9h-5.6v7H170v-7H164.4z"/>
		<path fill="#FFFFFF" d="M108.1,31.1c0,0-28,12.1-28,39.2h18.2C98.3,70.3,96.9,49.8,108.1,31.1z"/>
	</g>
</g>
</svg>
