<?xml version="1.0" encoding="utf-8"?>
<!-- Generator: Adobe Illustrator 18.1.1, SVG Export Plug-In . SVG Version: 6.00 Build 0)  -->
<svg version="1.1" id="Layer_1" xmlns="http://www.w3.org/2000/svg" xmlns:xlink="http://www.w3.org/1999/xlink" x="0px" y="0px"
	 viewBox="0 0 170 150" enable-background="new 0 0 170 150" xml:space="preserve">
<g>
	<rect x="85" y="0" fill="#163B79" width="5.2" height="150.3"/>
	<g>
		<path fill="#8BD7F8" d="M22.4,71.9c-5,11.1,1,20.9-5,33.8S0.1,117.9,0.1,117.9c4.8-15.6,1.4-13,0-36S9,56.3,15.3,55.3
			s17.3,5,17.3,5S27.5,60.6,22.4,71.9z M170,50.3c-2.8-2.6-6.3-3.7-8.9-4.1c-1.9-4.8-5.3-9.6-11.3-12.4c-14.9-7-31.7,9.4-31.7,9.4
			s-14.4,12.2-34.5,12.2S43.6,50,33.2,64.7s-1.9,27.1-0.7,28.8c1.2,1.7,7.7,5.8,8.6,15.8c1,10.1-3.6,15.8-3.6,15.8s3.1,11,0.7,20.2
			h2.2l-1.4,5h8.6l-4.3-5.8l1.4-20.2c0,0,7.7-2,15.1-13.7l-1.4,15.1c0,0,9.9,7.9,9.4,18.7H70l-0.7,5.8h7.9l-10.8-24.5l5.8-18v-5
			h34.5l6.5,25.9c0,0-0.9,11.2,1.4,15.8l1.4,0.7l-1.4,5h7.2c0,0-7.6-11.7-3.6-24.5l2.2-23.8l25.9,6.5l5.8,10.8l-5,2.2l7.2,4.3
			c0,0,2.3-2.3,2.2-5.8c-0.2-3.4-1.4-5-1.4-5l-5-13.7c0,0-22.1-2.6-28.2-16.7c0,0,7-27.4,14.5-25.8c0,0-0.2,7.4,5,12.2l-5,4.3
			l3.6,3.6l3.6-2.9v4.3c0,0,4.1,0.7,7.2-1.4c0.3-0.2,0.7-0.7,0.7-0.7s-2.9-10.1,2.2-15.1s10.1-2.9,10.1-2.9s0.2-3.6-0.7-8.2
			L170,50.3z"/>
		<path fill="#DC519D" d="M162.8,52.2l-3.8,0.3l-0.7-5.8l2.8-0.5c-3.5-10.4-19-22.9-37.3-8.8S97.9,53.5,81.3,54.6
			c-16.6,1.1-33.1-2.9-33.1-2.9l-8.6,5.8c0,0,7.9,3.6,7.9,18S37.4,99.9,37.4,99.9v11.5h7.9c0-2.7,2.1-4.8,4.8-4.8
			c2.7,0,4.8,2.1,4.8,4.8h6c0-2.7,2.1-4.8,4.8-4.8c2.7,0,4.8,2.1,4.8,4.8h6c0-2.7,2.1-4.8,4.8-4.8s4.8,2.1,4.8,4.8h6
			c0-2.7,2.1-4.8,4.8-4.8c2.7,0,4.8,2.1,4.8,4.8h6c0-2.7,2.1-4.8,4.8-4.8c2.7,0,4.8,2.1,4.8,4.8h6c0-2.7,2.1-4.8,4.8-4.8
			c2.7,0,4.8,2.1,4.8,4.8h6.7V98.9c0,0-19.8-6.9-20.9-24.1s18.7-23,18.7-23l6.5,5l-1.4,14.4l8,0.7c0,0-0.3-4.3,3.6-8.6
			c4.1-4.7,9.5-2.9,9.5-2.9C163.8,56,162.8,52.2,162.8,52.2z M155.5,57.1h-6.7l-2-6.8c0,0,3.8-0.9,6.5,2
			C156,55.1,155.5,57.1,155.5,57.1z"/>
		<circle fill="#163B79" cx="150.8" cy="54.2" r="1.6"/>
		<circle fill="#EDA8CE" cx="137.8" cy="41.3" r="4.7"/>
		<path fill="#EDA8CE" d="M144.7,47c0,0,4.5-4.5,0-10.4c0,0,9.4,2.9,10.4,12.6C155.1,49.2,152.6,43.6,144.7,47z"/>
		<path fill="#F2B450" d="M56.1,86.6h52.5v-39l0,0c-9.1,5-16.2,6.3-27.3,7c-9.4,0.6-25.3-1.4-25.3-1.4L56.1,86.6z"/>
		<circle fill="#FFFFFF" cx="137.8" cy="41.3" r="2"/>
		<g>
			<polygon fill="#FFFFFF" points="105.1,82.9 59.7,82.9 59.7,53.6 61.9,53.8 61.9,80.7 102.9,80.7 102.9,50.4 105.1,49.4 			"/>
		</g>
		<path fill="#EDA8CE" d="M131.4,36.6c0,0-5,0.6-9,9.4c-2.7,5.8-1.7,10.5-1.7,10.5s7-7,11.7-7.9C132.3,48.6,125.5,44.3,131.4,36.6z"
			/>
		<circle fill="#8BD7F8" cx="105.9" cy="44" r="2"/>
		<circle fill="#8BD7F8" cx="112.3" cy="39.8" r="2"/>
		<circle fill="#8BD7F8" cx="118.5" cy="35.2" r="2"/>
		<circle fill="#8BD7F8" cx="124.4" cy="31.3" r="2"/>
		<circle fill="#8BD7F8" cx="131.2" cy="28.1" r="2"/>
		<circle fill="#8BD7F8" cx="139.1" cy="26.6" r="2"/>
		<circle fill="#8BD7F8" cx="147.2" cy="27.7" r="2"/>
		<circle fill="#8BD7F8" cx="154.4" cy="30.7" r="2"/>
		<circle fill="#8BD7F8" cx="160.1" cy="35.9" r="2"/>
		<circle fill="#8BD7F8" cx="164.3" cy="42" r="2"/>
	</g>
</g>
</svg>
